<svg xmlns="http://www.w3.org/2000/svg" xmlns:xlink="http://www.w3.org/1999/xlink" width="236" height="120" viewBox="0 0 236 120">
    <defs>
        <path id="a" d="M0 120h235.731V.089H0z"/>
        <path id="c" d="M0 120h235.731V.089H0z"/>
    </defs>
    <g fill="none" fill-rule="evenodd">
        <path fill="#1C1447" d="M29.5 29.552V.896h19.945v5.608h-14.2v4.953h8.25v5.568h-8.25v6.918h14.816v5.61z"/>
        <g>
            <path fill="#1C1447" d="M69.247 29.024l-2.566-4.314c-1.018-1.709-2.566-4.517-3.095-5.575-.489 1.058-2.037 3.785-3.095 5.575l-2.566 4.314h-6.801l9.04-14.57L51.53.537h6.802L60.491 4.2c1.018 1.71 2.566 4.518 3.095 5.575.53-1.057 2.037-3.784 3.095-5.575L68.84.536h6.801l-8.674 13.919 9.081 14.57h-6.8zM89.813 6.071h-6.557v7.326h6.638c2.648 0 4.073-1.221 4.073-3.704 0-2.482-1.63-3.622-4.154-3.622m-.285 12.86h-6.272v10.093h-5.702V.536h12.463c5.376 0 9.814 2.971 9.814 9.035 0 6.593-4.397 9.36-10.303 9.36M114.207 5.745c-3.991 0-6.638 3.215-6.638 8.995 0 5.778 2.769 9.075 6.76 9.075 3.992 0 6.638-3.215 6.638-8.994 0-5.78-2.768-9.076-6.76-9.076m.04 23.727c-7.452 0-12.543-5.454-12.543-14.65 0-9.199 5.172-14.733 12.625-14.733 7.413 0 12.503 5.453 12.503 14.65 0 9.198-5.172 14.733-12.584 14.733M142.592 6.071h-7.452v7.326h7.452c2.648 0 4.073-1.221 4.073-3.704 0-2.564-1.547-3.622-4.073-3.622zm3.381 22.953l-5.09-10.255h-5.743v10.255h-5.702V.536h13.277c5.375 0 9.815 2.971 9.815 9.035 0 4.273-1.833 6.96-5.457 8.384l5.457 11.07h-6.557zM167.638 6.152v22.872h-5.702V6.152h-8.186V.536h22.075v5.616z"/>
            <mask id="b" fill="#fff">
                <use xlink:href="#a"/>
            </mask>
            <path fill="#1C1447" d="M178.145 29.024h5.702V.536h-5.702zM204.495 29.024l-10.467-15.546c-.692-1.058-1.629-2.482-1.995-3.215 0 1.058.081 4.64.081 6.226v12.535h-5.62V.536h5.457l10.1 15.058c.693 1.058 1.63 2.483 1.996 3.215 0-1.058-.082-4.64-.082-6.226V.536h5.62v28.488h-5.09zM224.287 29.472c-7.453 0-12.463-5.698-12.463-14.692 0-8.668 5.213-14.691 12.667-14.691 5.824 0 8.919 2.726 10.792 7.122l-5.416 2.238c-1.06-2.117-2.363-3.704-5.458-3.704-4.276 0-6.72 3.745-6.72 9.035 0 5.25 2.485 9.117 6.76 9.117 3.911 0 5.255-1.832 5.58-4.315h-4.52v-5.33h10.222v3.743c0 7.326-4.846 11.477-11.444 11.477M29.906 63.042h5.701V34.553h-5.701zM49.291 63.49c-4.764 0-8.919-1.994-11.077-5.169l4.113-3.663c1.996 2.32 4.562 3.256 7.29 3.256 3.38 0 4.969-.936 4.969-3.093 0-1.831-.978-2.646-6.353-3.866-5.254-1.221-8.92-2.89-8.92-8.506 0-5.168 4.561-8.343 10.182-8.343 4.44 0 7.697 1.669 10.386 4.477l-4.114 3.988c-1.833-1.872-3.87-2.93-6.476-2.93-3.054 0-4.072 1.302-4.072 2.564 0 1.79 1.222 2.36 5.742 3.418 4.52 1.058 9.53 2.605 9.53 8.79 0 5.413-3.42 9.077-11.2 9.077" mask="url(#b)"/>
        </g>
        <path fill="#E12425" d="M29.5 108.358h134.985V68.955H29.5z"/>
        <g>
            <path fill="#FEFEFE" d="M53.412 92.1h-4.557v-5.28h10.204v4.554c0 7.256-4.8 11.37-11.334 11.37-7.382 0-12.344-5.644-12.344-14.553 0-8.585 5.163-14.552 12.546-14.552 5.768 0 8.833 2.701 10.69 7.055L53.25 82.91c-1.048-2.097-2.34-3.67-5.405-3.67-4.235 0-6.656 3.71-6.656 8.95 0 5.201 2.46 9.029 6.695 9.029 4.659 0 5.346-2.898 5.527-4.271.033-.356.054-.546.052-.848l-.052-.001zM76.79 79.564h-7.383v7.255h7.382c2.623 0 4.034-1.207 4.034-3.667 0-2.54-1.533-3.588-4.034-3.588m3.35 22.737l-5.043-10.16h-5.689v10.16h-5.646V74.083H76.91c5.325 0 9.724 2.943 9.724 8.95 0 4.23-1.816 6.893-5.408 8.303l5.408 10.965h-6.496M90.906 102.3V74.084h19.605v5.523H96.55v5.844h10.47v5.482H96.55v5.845h13.96v5.524zM123.337 90.932c1.668-4.758 3.253-9.312 3.384-9.795.13.483 1.714 5.037 3.382 9.795h-6.766zm10.765 11.369h6.213l-10.73-28.218h-5.486L113.287 102.3h6.05s.924-2.616 2.117-6.008h10.531l2.117 6.008zM151.65 79.645v22.656h-5.645V79.645h-8.11v-5.562h21.867v5.562z"/>
            <path fill="#1C1447" d="M32.936 116.96h-1.74v1.693h1.74c.637 0 .936-.336.936-.85 0-.563-.3-.843-.936-.843m-.075-2.404h-1.665v1.244h1.732c.542 0 .737-.252.737-.616 0-.412-.233-.628-.804-.628m.03 5.343h-2.976v-6.55h3.003c1.272 0 2.076.608 2.076 1.73 0 .563-.262 1.012-.692 1.274.524.232.917.708.917 1.43 0 1.376-.926 2.116-2.329 2.116M39.11 114.62H37.4v1.685h1.71c.609 0 .936-.28.936-.85 0-.59-.355-.834-.935-.834zm.778 5.278l-1.17-2.357H37.4v2.357H36.09v-6.548h3.049c1.235 0 2.255.682 2.255 2.076 0 .984-.422 1.6-1.255 1.928l1.255 2.544h-1.506z"/>
            <mask id="d" fill="#fff">
                <use xlink:href="#c"/>
            </mask>
            <path fill="#1C1447" d="M42.394 119.899h1.31v-6.55h-1.31zM47.596 114.64v5.259h-1.31v-5.26h-1.88v-1.29h5.07v1.29zM52.17 116.006c-.13-.383-.261-.776-.326-1.02-.066.244-.197.637-.329 1.02l-.42 1.188h1.497l-.421-1.188zm1.385 3.893l-.514-1.461h-2.395l-.514 1.46h-1.404l2.507-6.548h1.273l2.488 6.549h-1.44zM55.839 119.899h1.31v-6.55h-1.31zM62.406 119.899L60 116.324c-.158-.242-.374-.57-.458-.74 0 .244.018 1.066.018 1.433v2.882h-1.29v-6.55h1.252l2.32 3.461c.16.243.376.571.46.74 0-.244-.02-1.067-.02-1.432v-2.768h1.292v6.549h-1.17zM68.983 117.147c-.515.272-.722.608-.722 1 0 .422.338.693.992.693.404 0 .74-.094 1.01-.29l-1.28-1.403zm2.525 2.751l-.496-.534c-.514.421-1.141.636-1.908.636-1.337 0-2.152-.561-2.152-1.74 0-.917.504-1.468 1.338-1.88l-.168-.187c-.347-.384-.57-.804-.57-1.328 0-1.066.841-1.619 1.944-1.619.805 0 1.33.243 1.956.685l-.627.945a2.213 2.213 0 0 0-1.366-.47c-.382 0-.617.16-.617.43 0 .282.141.47.346.713l1.806 2.057c.15-.3.299-.655.458-1.086l1.056.337c-.205.636-.448 1.19-.738 1.638l1.236 1.403h-1.498zM79.871 119.899l-2.404-3.575c-.158-.242-.374-.57-.458-.74 0 .244.02 1.066.02 1.433v2.882h-1.292v-6.55h1.253l2.32 3.461c.159.243.375.571.459.74 0-.244-.019-1.067-.019-1.432v-2.768h1.29v6.549h-1.169zM84.755 114.547c-1.057 0-1.498.908-1.498 2.076 0 1.17.44 2.077 1.498 2.077 1.057 0 1.497-.907 1.497-2.077 0-1.168-.44-2.076-1.497-2.076m0 5.453c-1.787 0-2.844-1.385-2.844-3.377 0-1.993 1.057-3.376 2.844-3.376 1.788 0 2.843 1.383 2.843 3.376 0 1.992-1.055 3.377-2.843 3.377M91.491 114.62h-1.712v1.685h1.712c.608 0 .936-.28.936-.85 0-.59-.357-.834-.936-.834zm.777 5.278l-1.17-2.357h-1.319v2.357h-1.31v-6.548h3.05c1.235 0 2.253.682 2.253 2.076 0 .984-.42 1.6-1.252 1.928l1.252 2.544h-1.504zM97.226 114.64v5.259h-1.31v-5.26h-1.881v-1.29h5.072v1.29zM103.708 119.899v-2.752h-2.684v2.752h-1.309v-6.55h1.309v2.508h2.684v-2.507h1.31v6.549zM106.235 119.899v-6.55h4.546v1.28h-3.236v1.134h1.88v1.271h-1.88v1.581h3.378v1.284zM114.87 114.62h-1.712v1.685h1.711c.608 0 .936-.28.936-.85 0-.59-.354-.834-.936-.834zm.775 5.278l-1.168-2.357h-1.32v2.357h-1.31v-6.548h3.05c1.236 0 2.254.682 2.254 2.076 0 .984-.42 1.6-1.253 1.928l1.253 2.544h-1.506zM122.196 119.899l-2.406-3.575a9.4 9.4 0 0 1-.457-.74c0 .244.017 1.066.017 1.433v2.882h-1.29v-6.55h1.253l2.32 3.461c.16.243.374.571.46.74 0-.244-.019-1.067-.019-1.432v-2.768h1.29v6.549h-1.168zM127.293 119.899h1.31v-6.55h-1.31zM132.935 114.62h-1.712v1.685h1.712c.608 0 .934-.28.934-.85 0-.59-.354-.834-.934-.834zm.776 5.278l-1.17-2.357h-1.318v2.357h-1.31v-6.548h3.049c1.235 0 2.255.682 2.255 2.076 0 .984-.422 1.6-1.253 1.928l1.253 2.544h-1.506zM136.313 119.899v-6.55h4.545v1.28h-3.236v1.134h1.879v1.271h-1.879v1.581H141v1.284zM141.925 119.899v-6.55h1.308v5.257h3.286v1.293zM150.233 116.006c-.13-.383-.263-.776-.327-1.02-.067.244-.198.637-.329 1.02l-.42 1.188h1.496l-.42-1.188zm1.383 3.893l-.515-1.461h-2.394l-.513 1.46h-1.404l2.507-6.548h1.273l2.488 6.549h-1.442zM157.754 119.899l-2.404-3.575c-.159-.242-.373-.57-.46-.74 0 .244.021 1.066.021 1.433v2.882h-1.291v-6.55h1.252l2.321 3.461c.16.243.375.571.46.74 0-.244-.02-1.067-.02-1.432v-2.768h1.29v6.549h-1.169zM161.954 114.62h-.692v4.005h.646c1.375 0 2.002-.806 2.002-2.001 0-1.34-.571-2.003-1.956-2.003m-.046 5.277h-1.956v-6.548h2.05c1.87 0 3.255.879 3.255 3.274 0 2.3-1.665 3.274-3.349 3.274" mask="url(#d)"/>
        </g>
        <path fill="#FEFEFE" d="M0 108.358h23.242V.896H0z"/>
        <path fill="#1C1447" d="M.894.896l11.621 23.283V.896zM0 45.672h10.727L0 23.284zM0 63.582v21.493l10.727-21.493zM12.515 108.358V85.075L.894 108.358z"/>
        <path fill="#B01F25" d="M0 19.938l12.515 24.838v-8.295L0 11.64zM0 97.374v8.298l12.515-24.84v-8.295z"/>
        <path fill="#B01F25" d="M16.087.896V49.3H0v10.882h16.087v48.176h7.155V.896z"/>
    </g>
</svg>
