<svg xmlns="http://www.w3.org/2000/svg" width="148" height="50" viewBox="0 0 148 50">
    <g fill="none" fill-rule="evenodd">
        <path fill="#FEFEFE" d="M134.642 38.159H147.8V-.001h-13.158z"/>
        <path fill="#ED2D24" d="M.01 38.164h131.482V.001H.01z"/>
        <path fill="#FEFEFE" d="M22.861 22.882h-4.427V17.75h9.913v4.426c0 7.05-4.663 11.05-11.01 11.05-7.17 0-11.989-5.486-11.989-14.146 0-8.342 5.016-14.142 12.186-14.142 5.602 0 8.579 2.624 10.381 6.857l-5.21 2.155c-1.019-2.04-2.271-3.567-5.25-3.567-4.114 0-6.464 3.605-6.464 8.697 0 5.056 2.387 8.777 6.502 8.777 4.525 0 5.193-2.816 5.368-4.152.032-.346.053-.529.05-.823h-.05zM59.277 32.796V5.37h19.041v5.368H64.76v5.68h10.17v5.33H64.76v5.68h13.558v5.37zM101.232 32.796h6.032L96.844 5.37h-5.328l-10.5 27.427h5.875l2.056-5.84h10.23c1.159 3.297 2.055 5.84 2.055 5.84zm-10.457-11.05c1.622-4.626 3.16-9.05 3.288-9.52.125.47 1.665 4.894 3.284 9.52h-6.572zM118.275 10.775v22.02h-5.484v-22.02h-7.875V5.37h21.237v5.405zM45.567 17.75h-7.17v-7.053h7.17c2.429 0 3.917 1.018 3.917 3.486 0 2.39-1.37 3.567-3.917 3.567m9.56-3.683c0-5.838-4.27-8.698-9.443-8.698H32.913v27.428h5.484v-9.878h5.525l4.898 9.878h6.307l-5.252-10.658c3.49-1.371 5.252-3.96 5.252-8.072"/>
        <path fill="#19124A" d="M140.702 0v8.241l6.62-8.24zM141.476 15.94h6.323V8.07zM141.564 22.298l6.235 7.765v-7.765zM140.702 38.157h6.616l-6.616-8.237z"/>
        <path fill="#B01F2D" d="M140.702 12.502v2.96L147.8 6.6V3.64zM140.702 28.453l7.097 8.862v-2.96l-7.097-8.862z"/>
        <path fill="#B01F2D" d="M134.642 0v38.158h4.05V21.052h9.107v-3.865h-9.106V.001z"/>
        <path fill="#FFF" d="M2.942 47.045H1.253v1.645h1.69c.617 0 .907-.326.907-.825 0-.546-.29-.82-.908-.82m-.072-2.337H1.253v1.212h1.68c.528 0 .717-.246.717-.601 0-.4-.225-.61-.78-.61m.026 5.193H.008v-6.366h2.916c1.236 0 2.017.59 2.017 1.682 0 .546-.254.982-.672 1.238.509.226.89.688.89 1.39 0 1.336-.9 2.056-2.263 2.056M8.94 44.772H7.275v1.637H8.94c.591 0 .908-.272.908-.826 0-.574-.343-.81-.908-.81zm.755 5.13l-1.137-2.293H7.276V49.9h-1.27v-6.364h2.961c1.2 0 2.19.663 2.19 2.018 0 .955-.41 1.554-1.219 1.874l1.219 2.472H9.695zM12.129 49.902H13.4v-6.365h-1.271zM17.181 44.79v5.112H15.91V44.79h-1.827v-1.254h4.924v1.254zM21.623 46.119a19.82 19.82 0 0 1-.317-.992c-.064.238-.19.62-.318.992l-.408 1.154h1.454l-.41-1.154zm1.345 3.783l-.499-1.42h-2.326l-.5 1.42H18.28l2.435-6.366h1.236l2.417 6.366h-1.4zM25.186 49.902h1.272v-6.365h-1.272zM31.564 49.902l-2.335-3.475a10.032 10.032 0 0 1-.446-.72c0 .238.019 1.038.019 1.393v2.802h-1.254v-6.366h1.217l2.252 3.364c.156.236.365.556.448.72 0-.24-.02-1.038-.02-1.393v-2.691H32.7v6.366h-1.135zM37.952 47.228c-.5.263-.7.59-.7.972 0 .41.327.672.962.672.394 0 .719-.09.982-.281l-1.244-1.363zm2.453 2.673l-.482-.52c-.5.41-1.109.618-1.854.618-1.297 0-2.089-.545-2.089-1.69 0-.89.49-1.426 1.299-1.826l-.163-.183c-.336-.374-.554-.782-.554-1.292 0-1.036.817-1.572 1.89-1.572.78 0 1.29.236 1.898.664l-.608.918a2.152 2.152 0 0 0-1.326-.455c-.374 0-.6.155-.6.419 0 .272.136.455.335.692l1.754 2c.146-.294.29-.638.445-1.056l1.026.327c-.199.62-.435 1.156-.717 1.593l1.2 1.363h-1.454zM48.527 49.902l-2.336-3.475a9.962 9.962 0 0 1-.444-.72c0 .238.018 1.038.018 1.393v2.802h-1.254v-6.366h1.218l2.253 3.364c.155.236.365.556.446.72 0-.24-.02-1.038-.02-1.393v-2.691h1.254v6.366h-1.135zM53.27 44.7c-1.027 0-1.454.883-1.454 2.019 0 1.135.427 2.017 1.454 2.017s1.454-.882 1.454-2.017c0-1.136-.427-2.019-1.454-2.019m0 5.299c-1.735 0-2.762-1.344-2.762-3.28 0-1.937 1.027-3.283 2.762-3.283 1.736 0 2.762 1.346 2.762 3.283 0 1.936-1.026 3.28-2.762 3.28M59.813 44.772h-1.664v1.637h1.663c.591 0 .908-.272.908-.826 0-.574-.344-.81-.907-.81zm.755 5.13l-1.138-2.293h-1.28V49.9h-1.272v-6.364h2.962c1.199 0 2.188.663 2.188 2.018 0 .955-.408 1.554-1.215 1.874l1.215 2.472h-1.46zM65.383 44.79v5.112H64.11V44.79h-1.827v-1.254h4.926v1.254zM71.678 49.902v-2.674h-2.606v2.674h-1.273v-6.366h1.273v2.438h2.606v-2.438h1.273v6.366zM74.133 49.902v-6.366h4.414v1.245h-3.143v1.1h1.826v1.236h-1.826v1.539h3.28v1.246zM82.518 44.772h-1.662v1.637h1.662c.59 0 .91-.272.91-.826 0-.574-.345-.81-.91-.81zm.755 5.13l-1.136-2.293h-1.281V49.9h-1.271v-6.364h2.96c1.202 0 2.19.663 2.19 2.018 0 .955-.408 1.554-1.217 1.874l1.217 2.472h-1.462zM89.634 49.902l-2.336-3.475a8.728 8.728 0 0 1-.445-.72c0 .238.018 1.038.018 1.393v2.802h-1.253v-6.366h1.217l2.253 3.364c.154.236.363.556.446.72 0-.24-.019-1.038-.019-1.393v-2.691h1.254v6.366h-1.135zM94.586 49.902h1.272v-6.365h-1.272zM100.064 44.772H98.4v1.637h1.664c.591 0 .907-.272.907-.826 0-.574-.344-.81-.907-.81zm.755 5.13l-1.139-2.293H98.4V49.9h-1.27v-6.364h2.96c1.2 0 2.19.663 2.19 2.018 0 .955-.408 1.554-1.216 1.874l1.216 2.472h-1.46zM103.345 49.902v-6.366h4.415v1.245h-3.144v1.1h1.825v1.236h-1.825v1.539h3.28v1.246zM108.796 49.902v-6.366h1.271v5.11h3.19v1.256zM116.865 46.119a18.717 18.717 0 0 1-.318-.992c-.065.238-.193.62-.319.992l-.408 1.154h1.453l-.408-1.154zm1.343 3.783l-.5-1.42h-2.325l-.498 1.42h-1.365l2.436-6.366h1.237l2.415 6.366h-1.4zM124.17 49.902l-2.334-3.475a9.645 9.645 0 0 1-.448-.72c0 .238.02 1.038.02 1.393v2.802h-1.254v-6.366h1.216l2.255 3.364c.154.236.365.556.446.72 0-.24-.02-1.038-.02-1.393v-2.691h1.253v6.366h-1.134zM128.248 44.772h-.67v3.892h.626c1.335 0 1.944-.783 1.944-1.946 0-1.3-.554-1.946-1.9-1.946m-.044 5.13h-1.9v-6.365h1.99c1.819 0 3.162.854 3.162 3.181 0 2.236-1.617 3.183-3.252 3.183"/>
    </g>
</svg>
