<svg xmlns="http://www.w3.org/2000/svg" width="850" height="92" viewBox="0 0 850 92">
    <g fill="#FFFFFE" fill-rule="evenodd">
        <path d="M.06 92h4.096V.085H.06zM140.928 61.006c.528 0 1.188-.041 1.98-.124a11.04 11.04 0 0 0 2.525-.593 11.55 11.55 0 0 0 2.648-1.362c.874-.593 1.658-1.402 2.352-2.425.692-1.023 1.262-2.302 1.707-3.836.446-1.535.669-3.391.669-5.569 0-2.112-.207-4.001-.62-5.668-.412-1.666-1.088-3.085-2.029-4.257-.94-1.171-2.153-2.062-3.638-2.673-1.485-.61-3.316-.916-5.495-.916h-7.92v27.423h7.821zm-.396-31.382c5.446 0 9.636 1.385 12.573 4.157 2.937 2.772 4.406 6.997 4.406 12.673 0 2.969-.33 5.601-.99 7.894-.661 2.294-1.683 4.225-3.069 5.792-1.386 1.568-3.152 2.765-5.297 3.589-2.145.825-4.686 1.237-7.623 1.237h-12.127V29.624h12.127zM178.85 46.899a7.208 7.208 0 0 0-1.535-2.302 7.291 7.291 0 0 0-2.276-1.534c-.875-.38-1.841-.569-2.896-.569-1.089 0-2.072.189-2.946.569a6.798 6.798 0 0 0-2.252 1.559 7.474 7.474 0 0 0-1.485 2.301 8.769 8.769 0 0 0-.644 2.797h14.702a8.618 8.618 0 0 0-.668-2.821zm1.015 16.434c-1.915 1.453-4.324 2.178-7.227 2.178-2.047 0-3.821-.331-5.322-.99-1.502-.66-2.764-1.584-3.786-2.772-1.024-1.188-1.791-2.607-2.302-4.257-.512-1.65-.801-3.448-.866-5.396 0-1.946.297-3.728.89-5.345.595-1.617 1.428-3.02 2.5-4.209a11.346 11.346 0 0 1 3.812-2.771c1.468-.66 3.077-.99 4.826-.99 2.277 0 4.166.471 5.668 1.411 1.501.94 2.705 2.137 3.613 3.589a14.165 14.165 0 0 1 1.881 4.752c.347 1.716.487 3.349.421 4.9h-19.157c-.033 1.122.1 2.187.396 3.193a7.235 7.235 0 0 0 1.436 2.672c.66.777 1.501 1.395 2.524 1.857 1.023.463 2.228.693 3.614.693 1.782 0 3.242-.412 4.381-1.238 1.138-.824 1.889-2.078 2.252-3.762h4.158c-.561 2.871-1.799 5.033-3.712 6.485zM206.921 48.459a9.437 9.437 0 0 0-1.435-3.045 7.042 7.042 0 0 0-2.475-2.128c-1.008-.528-2.187-.792-3.54-.792-1.419 0-2.623.28-3.613.841a7.227 7.227 0 0 0-2.425 2.203 9.191 9.191 0 0 0-1.362 3.093 14.876 14.876 0 0 0-.421 3.515c0 1.254.149 2.467.446 3.638.297 1.172.767 2.203 1.411 3.093a7.185 7.185 0 0 0 2.499 2.154c1.023.545 2.261.817 3.713.817 1.451 0 2.664-.28 3.638-.842a6.758 6.758 0 0 0 2.351-2.227c.594-.924 1.023-1.981 1.288-3.168.263-1.189.396-2.408.396-3.663 0-1.188-.158-2.352-.471-3.489zm-15.122-9.084v3.464h.099c.693-1.418 1.782-2.45 3.267-3.093 1.485-.643 3.118-.965 4.9-.965 1.98 0 3.705.363 5.173 1.089s2.689 1.708 3.663 2.945c.973 1.237 1.708 2.665 2.203 4.282.495 1.617.742 3.333.742 5.148 0 1.815-.24 3.531-.718 5.148-.478 1.617-1.204 3.027-2.177 4.233-.974 1.204-2.195 2.152-3.663 2.845-1.469.694-3.177 1.04-5.123 1.04-.628 0-1.33-.067-2.104-.198a11.75 11.75 0 0 1-2.302-.644 8.989 8.989 0 0 1-2.154-1.212 6.777 6.777 0 0 1-1.707-1.906h-.099v13.167h-4.208V39.375h4.208zM231.462 51.75c-.527.394-1.221.681-2.078.862a31.45 31.45 0 0 1-2.698.443c-.941.115-1.89.247-2.847.395-.957.147-1.815.385-2.573.714a4.664 4.664 0 0 0-1.857 1.404c-.478.607-.718 1.436-.718 2.487 0 .69.141 1.273.421 1.748.28.477.644.863 1.089 1.158.446.296.966.509 1.56.641.593.131 1.22.196 1.881.196 1.386 0 2.574-.188 3.564-.566.99-.377 1.798-.854 2.425-1.429.627-.574 1.089-1.198 1.386-1.871.297-.673.445-1.305.445-1.896V51.75zm6.831 13.118c-.726.427-1.732.643-3.019.643-1.089 0-1.955-.305-2.599-.916-.643-.61-.965-1.609-.965-2.995-1.155 1.386-2.5 2.385-4.034 2.995-1.535.611-3.193.916-4.975.916-1.156 0-2.252-.133-3.292-.396-1.039-.264-1.939-.676-2.698-1.238-.759-.56-1.361-1.294-1.806-2.203-.446-.907-.668-2.005-.668-3.292 0-1.451.247-2.639.742-3.563a6.46 6.46 0 0 1 1.956-2.252 8.984 8.984 0 0 1 2.772-1.313 33.545 33.545 0 0 1 3.192-.742 39.078 39.078 0 0 1 3.292-.519 18.475 18.475 0 0 0 2.747-.495c.792-.214 1.418-.528 1.881-.941.462-.412.693-1.014.693-1.806 0-.924-.173-1.666-.52-2.228a3.563 3.563 0 0 0-1.336-1.287 5.444 5.444 0 0 0-1.832-.594c-.677-.1-1.345-.148-2.004-.148-1.782 0-3.267.339-4.455 1.014-1.188.677-1.832 1.955-1.931 3.836h-4.207c.065-1.584.396-2.921.99-4.009a7.51 7.51 0 0 1 2.376-2.648c.99-.677 2.119-1.164 3.39-1.461 1.27-.297 2.632-.445 4.084-.445 1.155 0 2.302.083 3.44.247 1.139.165 2.17.502 3.094 1.013a5.937 5.937 0 0 1 2.228 2.148c.56.922.841 2.124.841 3.605v13.139c0 .989.058 1.713.173 2.174.115.461.503.691 1.163.691.363 0 .793-.065 1.287-.198v3.268zM245.179 39.375v5.395h.099c1.022-2.079 2.277-3.613 3.762-4.603 1.485-.99 3.366-1.452 5.643-1.386v4.455c-1.683 0-3.119.231-4.307.693-1.188.462-2.146 1.138-2.871 2.029-.726.891-1.255 1.972-1.584 3.243-.33 1.27-.495 2.73-.495 4.381v11.384h-4.207V39.375h3.96M269.374 39.375v3.712h-5.099v15.89c0 .495.041.891.124 1.188.082.296.239.528.47.693.231.165.552.272.965.321.413.05.949.074 1.609.074h1.931v3.713h-3.218c-1.089 0-2.022-.074-2.797-.222-.776-.149-1.402-.421-1.88-.817-.479-.396-.834-.957-1.065-1.683-.231-.726-.347-1.683-.347-2.871V43.087h-4.356v-3.712h4.356v-7.673h4.208v7.673h5.099M276.595 39.375v3.762h.099c1.914-2.904 4.67-4.356 8.267-4.356 1.584 0 3.019.33 4.306.99 1.287.66 2.194 1.782 2.723 3.366a8.945 8.945 0 0 1 3.39-3.218c1.403-.758 2.946-1.138 4.629-1.138 1.287 0 2.45.14 3.49.421 1.039.28 1.93.717 2.672 1.311.743.594 1.32 1.362 1.733 2.302.412.94.619 2.071.619 3.391v18.76h-4.208v-16.78c0-.792-.066-1.535-.198-2.228-.132-.693-.38-1.294-.742-1.806-.364-.512-.867-.916-1.51-1.213-.643-.297-1.477-.445-2.5-.445-2.079 0-3.712.593-4.9 1.781-1.188 1.188-1.782 2.772-1.782 4.752v15.939h-4.208v-16.78c0-.825-.074-1.584-.223-2.277-.148-.694-.404-1.295-.767-1.807a3.586 3.586 0 0 0-1.46-1.188c-.611-.28-1.395-.42-2.351-.42-1.221 0-2.27.247-3.143.742-.875.495-1.584 1.089-2.129 1.782-.545.692-.941 1.41-1.188 2.153-.248.743-.371 1.362-.371 1.856v15.939h-4.208V39.375h3.96M330.812 46.899a7.206 7.206 0 0 0-1.534-2.302 7.296 7.296 0 0 0-2.277-1.534c-.875-.38-1.84-.569-2.896-.569-1.089 0-2.071.189-2.945.569a6.777 6.777 0 0 0-2.252 1.559 7.458 7.458 0 0 0-1.486 2.301 8.768 8.768 0 0 0-.643 2.797h14.701a8.618 8.618 0 0 0-.668-2.821zm1.015 16.434c-1.914 1.453-4.324 2.178-7.227 2.178-2.046 0-3.82-.331-5.321-.99-1.502-.66-2.764-1.584-3.787-2.772-1.023-1.188-1.79-2.607-2.302-4.257-.512-1.65-.8-3.448-.866-5.396 0-1.946.297-3.728.891-5.345.594-1.617 1.427-3.02 2.5-4.209a11.352 11.352 0 0 1 3.811-2.771c1.468-.66 3.077-.99 4.827-.99 2.276 0 4.165.471 5.667 1.411 1.501.94 2.706 2.137 3.614 3.589a14.207 14.207 0 0 1 1.881 4.752c.346 1.716.486 3.349.421 4.9h-19.157a10.158 10.158 0 0 0 .396 3.193 7.218 7.218 0 0 0 1.435 2.672c.66.777 1.502 1.395 2.525 1.857 1.023.463 2.227.693 3.614.693 1.781 0 3.242-.412 4.38-1.238 1.139-.824 1.889-2.078 2.252-3.762h4.159c-.562 2.871-1.8 5.033-3.713 6.485zM343.444 39.375v4.059h.099c1.749-3.101 4.52-4.653 8.316-4.653 1.683 0 3.085.231 4.207.693 1.122.462 2.03 1.106 2.723 1.931.693.825 1.179 1.806 1.46 2.944.28 1.139.421 2.402.421 3.787v16.83h-4.208V47.641c0-1.584-.462-2.838-1.385-3.762-.925-.923-2.196-1.385-3.812-1.385-1.287 0-2.401.197-3.341.593a6.264 6.264 0 0 0-2.352 1.683 7.25 7.25 0 0 0-1.41 2.55c-.314.973-.471 2.038-.471 3.192v14.454h-4.207V39.375h3.96M376.53 39.375v3.712h-5.099v15.89c0 .495.041.891.124 1.188.082.296.239.528.47.693.231.165.553.272.966.321.412.05.948.074 1.608.074h1.931v3.713h-3.217c-1.09 0-2.022-.074-2.797-.222-.776-.149-1.403-.421-1.881-.817-.479-.396-.834-.957-1.065-1.683-.231-.726-.346-1.683-.346-2.871V43.087h-4.356v-3.712h4.356v-7.673h4.207v7.673h5.099M391.379 43.087v-3.712h4.306v-3.812c0-2.079.602-3.654 1.807-4.727 1.204-1.072 2.962-1.608 5.272-1.608.396 0 .849.033 1.361.098.511.067.965.166 1.361.298v3.662a5.244 5.244 0 0 0-1.188-.272 10.3 10.3 0 0 0-1.188-.074c-1.023 0-1.815.198-2.376.594-.561.396-.841 1.156-.841 2.277v3.564h4.95v3.712h-4.95v21.879h-4.208V43.087h-4.306M410.614 56.329c.412 1.205.982 2.211 1.708 3.019a7.391 7.391 0 0 0 2.549 1.857 7.603 7.603 0 0 0 3.094.643c1.089 0 2.12-.215 3.094-.643a7.42 7.42 0 0 0 2.549-1.857c.725-.808 1.294-1.814 1.707-3.019.413-1.204.619-2.582.619-4.134 0-1.55-.206-2.928-.619-4.133-.413-1.204-.982-2.219-1.707-3.044a7.285 7.285 0 0 0-2.549-1.881 7.59 7.59 0 0 0-3.094-.643 7.586 7.586 0 0 0-3.094.643 7.258 7.258 0 0 0-2.549 1.881c-.726.825-1.296 1.84-1.708 3.044-.413 1.205-.619 2.583-.619 4.133 0 1.552.206 2.93.619 4.134zm-4.281-9.406c.527-1.632 1.319-3.051 2.375-4.256s2.359-2.154 3.911-2.847c1.55-.693 3.333-1.039 5.346-1.039 2.046 0 3.836.346 5.37 1.039 1.535.693 2.83 1.642 3.886 2.847s1.848 2.624 2.376 4.256c.528 1.634.792 3.391.792 5.272 0 1.882-.264 3.631-.792 5.247-.528 1.617-1.32 3.028-2.376 4.232-1.056 1.205-2.351 2.146-3.886 2.822-1.534.676-3.324 1.015-5.37 1.015-2.013 0-3.796-.339-5.346-1.015-1.552-.676-2.855-1.617-3.911-2.822-1.056-1.204-1.848-2.615-2.375-4.232-.529-1.616-.792-3.365-.792-5.247 0-1.881.263-3.638.792-5.272zM438.165 39.375v5.395h.099c1.023-2.079 2.277-3.613 3.762-4.603 1.485-.99 3.366-1.452 5.643-1.386v4.455c-1.683 0-3.118.231-4.307.693-1.188.462-2.145 1.138-2.87 2.029-.727.891-1.255 1.972-1.584 3.243-.331 1.27-.495 2.73-.495 4.381v11.384h-4.208V39.375h3.96M464.499 64.967h4.702V29.624h-4.702zM479.056 39.375v4.059h.099c1.748-3.101 4.52-4.653 8.316-4.653 1.683 0 3.085.231 4.207.693 1.122.462 2.03 1.106 2.723 1.931.693.825 1.179 1.806 1.46 2.944.28 1.139.421 2.402.421 3.787v16.83h-4.208V47.641c0-1.584-.462-2.838-1.386-3.762-.924-.923-2.195-1.385-3.811-1.385-1.287 0-2.401.197-3.341.593a6.264 6.264 0 0 0-2.352 1.683 7.267 7.267 0 0 0-1.411 2.55c-.314.973-.47 2.038-.47 3.192v14.454h-4.207V39.375h3.96M512.141 39.375v3.712h-5.099v15.89c0 .495.041.891.125 1.188.082.296.238.528.47.693.23.165.552.272.965.321.412.05.948.074 1.608.074h1.931v3.713h-3.217c-1.09 0-2.022-.074-2.797-.222-.776-.149-1.403-.421-1.881-.817-.479-.396-.834-.957-1.064-1.683-.232-.726-.347-1.683-.347-2.871V43.087h-4.356v-3.712h4.356v-7.673h4.207v7.673h5.099M531.827 46.899a7.208 7.208 0 0 0-1.535-2.302 7.291 7.291 0 0 0-2.276-1.534c-.875-.38-1.841-.569-2.896-.569-1.089 0-2.072.189-2.946.569a6.798 6.798 0 0 0-2.252 1.559 7.474 7.474 0 0 0-1.485 2.301 8.769 8.769 0 0 0-.644 2.797h14.702a8.618 8.618 0 0 0-.668-2.821zm1.015 16.434c-1.915 1.453-4.324 2.178-7.227 2.178-2.047 0-3.821-.331-5.322-.99-1.501-.66-2.764-1.584-3.786-2.772-1.024-1.188-1.791-2.607-2.302-4.257-.512-1.65-.801-3.448-.866-5.396 0-1.946.297-3.728.89-5.345.595-1.617 1.428-3.02 2.5-4.209a11.346 11.346 0 0 1 3.812-2.771c1.468-.66 3.077-.99 4.826-.99 2.277 0 4.166.471 5.668 1.411 1.501.94 2.705 2.137 3.613 3.589a14.144 14.144 0 0 1 1.881 4.752c.347 1.716.487 3.349.421 4.9h-19.157c-.033 1.122.1 2.187.396 3.193a7.235 7.235 0 0 0 1.436 2.672c.66.777 1.501 1.395 2.524 1.857 1.023.463 2.228.693 3.614.693 1.782 0 3.242-.412 4.381-1.238 1.138-.824 1.889-2.078 2.252-3.762h4.159c-.563 2.871-1.8 5.033-3.713 6.485zM544.39 39.375v5.395h.098c1.024-2.079 2.278-3.613 3.762-4.603 1.486-.99 3.367-1.452 5.644-1.386v4.455c-1.683 0-3.119.231-4.307.693-1.189.462-2.146 1.138-2.87 2.029-.727.891-1.256 1.972-1.584 3.243-.331 1.27-.496 2.73-.496 4.381v11.384h-4.207V39.375h3.96M560.16 39.375v4.059h.099c1.749-3.101 4.52-4.653 8.315-4.653 1.684 0 3.086.231 4.208.693 1.122.462 2.03 1.106 2.723 1.931.692.825 1.179 1.806 1.46 2.944.28 1.139.421 2.402.421 3.787v16.83h-4.208V47.641c0-1.584-.462-2.838-1.385-3.762-.925-.923-2.195-1.385-3.813-1.385-1.287 0-2.4.197-3.34.593-.941.396-1.726.957-2.352 1.683a7.267 7.267 0 0 0-1.411 2.55c-.314.973-.47 2.038-.47 3.192v14.454h-4.208V39.375h3.961M598.389 51.75c-.529.394-1.222.681-2.079.862-.859.181-1.757.329-2.699.443-.94.115-1.888.247-2.845.395-.958.147-1.816.385-2.575.714a4.668 4.668 0 0 0-1.856 1.404c-.479.607-.718 1.436-.718 2.487 0 .69.141 1.273.421 1.748.28.477.644.863 1.089 1.158.445.296.965.509 1.56.641a8.693 8.693 0 0 0 1.88.196c1.386 0 2.575-.188 3.564-.566.99-.377 1.799-.854 2.426-1.429.627-.574 1.089-1.198 1.386-1.871.297-.673.446-1.305.446-1.896V51.75zm6.83 13.118c-.726.427-1.733.643-3.02.643-1.088 0-1.955-.305-2.597-.916-.645-.61-.966-1.609-.966-2.995-1.156 1.386-2.499 2.385-4.034 2.995-1.536.611-3.194.916-4.975.916-1.156 0-2.252-.133-3.292-.396-1.04-.264-1.939-.676-2.698-1.238-.759-.56-1.362-1.294-1.807-2.203-.445-.907-.668-2.005-.668-3.292 0-1.451.248-2.639.742-3.563a6.48 6.48 0 0 1 1.956-2.252 8.99 8.99 0 0 1 2.773-1.313 33.596 33.596 0 0 1 3.191-.742 39.098 39.098 0 0 1 3.293-.519 18.437 18.437 0 0 0 2.746-.495c.793-.214 1.419-.528 1.881-.941.463-.412.694-1.014.694-1.806 0-.924-.173-1.666-.52-2.228a3.563 3.563 0 0 0-1.336-1.287 5.444 5.444 0 0 0-1.832-.594c-.677-.1-1.345-.148-2.004-.148-1.783 0-3.267.339-4.455 1.014-1.188.677-1.832 1.955-1.932 3.836h-4.207c.067-1.584.397-2.921.991-4.009a7.49 7.49 0 0 1 2.376-2.648c.989-.677 2.12-1.164 3.39-1.461 1.271-.297 2.632-.445 4.083-.445 1.155 0 2.303.083 3.442.247 1.138.165 2.169.502 3.093 1.013a5.927 5.927 0 0 1 2.227 2.148c.56.922.842 2.124.842 3.605v13.139c0 .989.057 1.713.174 2.174.115.461.501.691 1.162.691.363 0 .793-.065 1.287-.198v3.268zM618.758 39.375v3.712h-5.1v15.89c0 .495.041.891.125 1.188.082.296.238.528.47.693.23.165.552.272.966.321.412.05.947.074 1.607.074h1.932v3.713h-3.218c-1.089 0-2.022-.074-2.797-.222-.776-.149-1.403-.421-1.881-.817-.479-.396-.834-.957-1.064-1.683-.232-.726-.347-1.683-.347-2.871V43.087h-4.355v-3.712h4.355v-7.673h4.207v7.673h5.1M622.217 64.967h4.207V39.375h-4.207v25.592zm0-30.195h4.207v-5.148h-4.207v5.148zM635.531 56.329c.412 1.205.983 2.211 1.708 3.019a7.395 7.395 0 0 0 2.55 1.857 7.6 7.6 0 0 0 3.094.643 7.602 7.602 0 0 0 3.093-.643 7.41 7.41 0 0 0 2.549-1.857c.726-.808 1.295-1.814 1.708-3.019.413-1.204.619-2.582.619-4.134 0-1.55-.206-2.928-.619-4.133-.413-1.204-.982-2.219-1.708-3.044a7.276 7.276 0 0 0-2.549-1.881 7.585 7.585 0 0 0-3.093-.643c-1.09 0-2.121.214-3.094.643a7.262 7.262 0 0 0-2.55 1.881c-.725.825-1.296 1.84-1.708 3.044-.412 1.205-.619 2.583-.619 4.133 0 1.552.207 2.93.619 4.134zm-4.281-9.406c.527-1.632 1.319-3.051 2.376-4.256 1.056-1.205 2.358-2.154 3.91-2.847 1.551-.693 3.333-1.039 5.347-1.039 2.045 0 3.836.346 5.37 1.039 1.534.693 2.829 1.642 3.886 2.847 1.055 1.205 1.847 2.624 2.376 4.256.527 1.634.792 3.391.792 5.272 0 1.882-.265 3.631-.792 5.247-.529 1.617-1.321 3.028-2.376 4.232-1.057 1.205-2.352 2.146-3.886 2.822-1.534.676-3.325 1.015-5.37 1.015-2.014 0-3.796-.339-5.347-1.015-1.552-.676-2.854-1.617-3.91-2.822-1.057-1.204-1.849-2.615-2.376-4.232-.528-1.616-.792-3.365-.792-5.247 0-1.881.264-3.638.792-5.272zM663.151 39.375v4.059h.099c1.749-3.101 4.521-4.653 8.316-4.653 1.683 0 3.085.231 4.208.693 1.122.462 2.03 1.106 2.722 1.931.693.825 1.18 1.806 1.461 2.944.279 1.139.42 2.402.42 3.787v16.83h-4.207V47.641c0-1.584-.463-2.838-1.386-3.762-.925-.923-2.195-1.385-3.811-1.385-1.287 0-2.402.197-3.342.593-.941.396-1.725.957-2.351 1.683a7.252 7.252 0 0 0-1.411 2.55c-.314.973-.47 2.038-.47 3.192v14.454h-4.208V39.375h3.96M701.381 51.75c-.528.394-1.221.681-2.079.862-.859.181-1.757.329-2.698.443-.94.115-1.889.247-2.846.395-.957.147-1.816.385-2.574.714a4.668 4.668 0 0 0-1.856 1.404c-.479.607-.718 1.436-.718 2.487 0 .69.14 1.273.421 1.748.28.477.643.863 1.089 1.158a4.58 4.58 0 0 0 1.559.641c.594.131 1.22.196 1.881.196 1.386 0 2.574-.188 3.564-.566.99-.377 1.798-.854 2.426-1.429.626-.574 1.089-1.198 1.386-1.871.296-.673.445-1.305.445-1.896V51.75zm6.831 13.118c-.727.427-1.733.643-3.02.643-1.088 0-1.955-.305-2.598-.916-.644-.61-.965-1.609-.965-2.995-1.156 1.386-2.5 2.385-4.034 2.995-1.535.611-3.194.916-4.976.916-1.155 0-2.252-.133-3.291-.396-1.04-.264-1.939-.676-2.698-1.238-.76-.56-1.361-1.294-1.807-2.203-.445-.907-.668-2.005-.668-3.292 0-1.451.247-2.639.742-3.563a6.48 6.48 0 0 1 1.956-2.252 8.984 8.984 0 0 1 2.772-1.313 33.616 33.616 0 0 1 3.192-.742 39.141 39.141 0 0 1 3.292-.519 18.475 18.475 0 0 0 2.747-.495c.792-.214 1.419-.528 1.881-.941.462-.412.694-1.014.694-1.806 0-.924-.174-1.666-.52-2.228a3.566 3.566 0 0 0-1.337-1.287 5.432 5.432 0 0 0-1.831-.594c-.677-.1-1.346-.148-2.005-.148-1.782 0-3.267.339-4.455 1.014-1.188.677-1.832 1.955-1.93 3.836h-4.207c.065-1.584.395-2.921.989-4.009a7.51 7.51 0 0 1 2.376-2.648c.99-.677 2.12-1.164 3.39-1.461 1.271-.297 2.632-.445 4.084-.445 1.156 0 2.302.083 3.441.247 1.138.165 2.17.502 3.094 1.013a5.927 5.927 0 0 1 2.227 2.148c.561.922.842 2.124.842 3.605v13.139c0 .989.057 1.713.173 2.174.115.461.503.691 1.163.691.363 0 .792-.065 1.287-.198v3.268zM711.394 64.967h4.208V29.624h-4.208zM731.836 33.583v-3.959h28.265v3.959h-11.782v31.383h-4.702V33.583h-11.781"/>
        <path d="M761.704 39.375v5.395h.099c1.022-2.079 2.277-3.613 3.762-4.603 1.485-.99 3.366-1.452 5.643-1.386v4.455c-1.683 0-3.118.231-4.307.693-1.187.462-2.145 1.138-2.871 2.029-.725.891-1.254 1.972-1.584 3.243-.33 1.27-.495 2.73-.495 4.381v11.384h-4.207V39.375h3.96M789.251 51.75c-.528.394-1.221.681-2.079.862-.859.181-1.757.329-2.697.443-.941.115-1.89.247-2.847.395-.957.147-1.815.385-2.574.714a4.668 4.668 0 0 0-1.856 1.404c-.479.607-.718 1.436-.718 2.487 0 .69.14 1.273.421 1.748.28.477.643.863 1.089 1.158.446.296.965.509 1.559.641a8.722 8.722 0 0 0 1.881.196c1.386 0 2.574-.188 3.564-.566.99-.377 1.798-.854 2.426-1.429.626-.574 1.089-1.198 1.386-1.871.297-.673.445-1.305.445-1.896V51.75zm6.831 13.118c-.727.427-1.732.643-3.019.643-1.089 0-1.956-.305-2.599-.916-.644-.61-.965-1.609-.965-2.995-1.156 1.386-2.5 2.385-4.034 2.995-1.535.611-3.194.916-4.976.916-1.155 0-2.252-.133-3.291-.396-1.04-.264-1.939-.676-2.698-1.238-.76-.56-1.361-1.294-1.807-2.203-.445-.907-.668-2.005-.668-3.292 0-1.451.247-2.639.743-3.563a6.467 6.467 0 0 1 1.955-2.252 8.984 8.984 0 0 1 2.772-1.313 33.566 33.566 0 0 1 3.193-.742 39.057 39.057 0 0 1 3.291-.519 18.467 18.467 0 0 0 2.748-.495c.792-.214 1.419-.528 1.88-.941.462-.412.694-1.014.694-1.806 0-.924-.174-1.666-.52-2.228a3.558 3.558 0 0 0-1.337-1.287 5.432 5.432 0 0 0-1.831-.594c-.676-.1-1.345-.148-2.005-.148-1.782 0-3.267.339-4.455 1.014-1.188.677-1.832 1.955-1.93 3.836h-4.207c.065-1.584.395-2.921.989-4.009a7.529 7.529 0 0 1 2.376-2.648c.99-.677 2.12-1.164 3.39-1.461 1.271-.297 2.632-.445 4.084-.445 1.156 0 2.302.083 3.441.247 1.139.165 2.17.502 3.094 1.013a5.927 5.927 0 0 1 2.227 2.148c.561.922.842 2.124.842 3.605v13.139c0 .989.057 1.713.173 2.174.115.461.503.691 1.163.691.363 0 .792-.065 1.287-.198v3.268zM802.338 55.883a9.401 9.401 0 0 0 1.435 3.044 7.02 7.02 0 0 0 2.476 2.129c1.006.529 2.186.792 3.539.792 1.418 0 2.623-.28 3.613-.842a7.23 7.23 0 0 0 2.426-2.203 9.223 9.223 0 0 0 1.361-3.093c.28-1.155.42-2.327.42-3.515 0-1.253-.148-2.466-.445-3.638-.297-1.171-.767-2.203-1.41-3.094a7.235 7.235 0 0 0-2.5-2.153c-1.024-.545-2.261-.816-3.713-.816-1.419 0-2.623.28-3.613.841a6.708 6.708 0 0 0-2.376 2.227c-.594.925-1.024 1.981-1.287 3.168a16.78 16.78 0 0 0-.396 3.663c0 1.189.156 2.352.47 3.49zm15.122 9.083v-3.464h-.099c-.693 1.418-1.782 2.442-3.266 3.068-1.486.627-3.119.941-4.901.941-1.98 0-3.705-.364-5.173-1.09-1.468-.724-2.69-1.699-3.663-2.919-.973-1.221-1.708-2.64-2.203-4.257-.495-1.618-.742-3.333-.742-5.149 0-1.814.238-3.53.718-5.147.477-1.617 1.204-3.028 2.178-4.233.972-1.204 2.194-2.161 3.663-2.871 1.467-.709 3.175-1.064 5.123-1.064.66 0 1.369.066 2.129.198.758.132 1.517.355 2.276.668a9.766 9.766 0 0 1 2.153 1.237 6.812 6.812 0 0 1 1.708 1.907h.099V29.624h4.208v35.342h-4.208zM844.086 46.899a7.225 7.225 0 0 0-1.535-2.302 7.296 7.296 0 0 0-2.277-1.534c-.875-.38-1.839-.569-2.895-.569-1.09 0-2.071.189-2.945.569a6.792 6.792 0 0 0-2.253 1.559 7.474 7.474 0 0 0-1.485 2.301 8.715 8.715 0 0 0-.643 2.797h14.701a8.618 8.618 0 0 0-.668-2.821zm1.015 16.434c-1.914 1.453-4.324 2.178-7.228 2.178-2.046 0-3.819-.331-5.321-.99-1.502-.66-2.764-1.584-3.786-2.772-1.024-1.188-1.791-2.607-2.302-4.257-.512-1.65-.801-3.448-.866-5.396 0-1.946.297-3.728.89-5.345.594-1.617 1.427-3.02 2.5-4.209a11.356 11.356 0 0 1 3.812-2.771c1.468-.66 3.076-.99 4.826-.99 2.277 0 4.166.471 5.668 1.411 1.501.94 2.705 2.137 3.613 3.589a14.207 14.207 0 0 1 1.881 4.752c.347 1.716.486 3.349.421 4.9h-19.156a10.158 10.158 0 0 0 .395 3.193 7.22 7.22 0 0 0 1.436 2.672c.66.777 1.501 1.395 2.524 1.857 1.023.463 2.228.693 3.613.693 1.783 0 3.244-.412 4.381-1.238 1.139-.824 1.889-2.078 2.253-3.762h4.158c-.562 2.871-1.799 5.033-3.712 6.485zM70.605 33.724c-.195-.082.124-.473.278-.556.155-.083.711-.103.711-.103s-.165.258-.196.515-.597.227-.793.144M72.232 34.661c-.195-.082.124-.473.278-.555.155-.083.711-.104.711-.104s-.165.258-.196.515-.597.227-.793.144M72.335 33.457c-.195-.083.124-.474.278-.557.155-.082.711-.103.711-.103s-.165.258-.196.515c-.031.258-.597.227-.793.145M70.636 34.866c-.196-.082.124-.473.278-.556.155-.082.711-.103.711-.103s-.165.257-.196.515c-.031.257-.598.226-.793.144M72.275 35.811c-.169-.072.107-.412.24-.483.133-.072.613-.09.613-.09s-.142.224-.168.448c-.027.223-.516.196-.685.125M70.669 36.104c-.169-.071.106-.411.24-.482.133-.072.612-.09.612-.09s-.142.224-.168.447c-.027.224-.516.197-.684.125M73.676 35.687c-.169-.072.106-.412.239-.483.134-.072.614-.09.614-.09s-.143.224-.169.448c-.027.223-.515.196-.684.125M72.346 36.902c-.169-.071.106-.411.239-.483.134-.071.614-.089.614-.089s-.143.223-.169.447c-.027.224-.516.197-.684.125M73.738 36.81c-.169-.072.106-.412.239-.484.134-.071.613-.089.613-.089s-.142.223-.168.447c-.027.224-.516.197-.684.126M73.789 34.622c-.168-.072.107-.412.24-.483.133-.072.613-.09.613-.09s-.142.224-.169.448c-.026.223-.515.196-.684.125M36.647 41.694a1.704 1.704 0 0 1-.439-1.636c.232-.873.185-1.524-.186-1.939-.16-.181-.28-.307-.483-.391.21 1.145.306 2.124-.467 3.081.077-.34-.336-1.028-.278-1.887.051-.742.301-1.49.054-1.827.286.209 1.012.328 1.319.383.689.092.87.425 1.109.983.078.183.376.371.471.574.126-.322.281-.571.338-.739.092-.277.046-.535-.032-.834.371.039.551.757.7.919.14.153.235.278.501.28.111-.311.087-.545.122-.844.047-.388.202-.69.057-1.132.216.032.443.313.562.586.15.348.09.631.34.84.252-.162.373-.449.442-.613.201-.556.335-1.014.366-1.681.291.237.458.257.749.495.356.285.557.844.81 1.015.792.534 1.633.954 2.46 1.329 1.051.477 2.037.8 3.698 1.172.686.092 1.174.13 1.806-.041.286-.077.928-.1 1.077-.102.146-.002.498.091.868.187.601.154.788.801.783 1.329-.586.394-1.116.414-2.024.626-.721.168-1.377.246-1.932.831-.122.128-.273.35-.52.35.049-.114.032-.25-.067-.386a.697.697 0 0 0-.363-.22c-.226.223-.276.683-.59.575.031-.211-.267-.304-.499-.278-.237.027-.348.262-.607.226.112-.273-.22-.535-.459-.651-.078.058-.35.585-.668.621.146-.332-.168-.818-.48-.901-.089.281-.242.792-.664.901.145-.33.041-1.123-.495-1.2-.023.463-.126.749-.472.984.153-1.262-.914-1.657-1.908-1.957-.401-.12-.402-.137-.797-.279-.212-.087-.437-.162-.725-.146-.071.31.208.927.494 1.22-.541-.069-.884-.284-1.119-.562-.203-.239-.218-.449-.395-.874-.371.911.129 1.186.486 1.745-1.436 0-1.496-1.685-1.504-1.776a1.48 1.48 0 0 0-.326.641c-.027.338.062.842.355 1.166-.216-.031-.664-.309-.757-.595-.112-.347-.083-.174-.115-.54-.025-.277-.016-.989-.132-1.275-.115.189-.278.494-.262.835.115.749-.332.98-.202 1.412M29.662 32.229c-.05.586.273.907.564 1.468.345.667.363 1.644.024 2.474a4.818 4.818 0 0 1-.55.977c-.421-1.718-.979-3.422-.038-4.919M33.732 35.998c-.014.394.582.815.631 1.464.041.421-.04.783-.14 1.174-.124.484.149.777-.093 1.383-.128.32-.261.636-.227 1.099-.175-.222-.831-1.4-.592-2.358.192-.769.207-1.226.218-2.086.012-.268.092-.478.203-.676M32.585 39.88c-.632-.437-.935-1.577-.721-2.163.415-1.14.3-1.241.255-2.405-.008-.21.031-.681.181-1.002-.015 1.017.694 1.341.693 2.306 0 .416.019 1.081-.223 1.637-.324.747-.263 1.408-.185 1.627M30.951 33.518c.083.528.383 1.045.553 1.357.232.427.184 1.368-.119 2.31-.13.406-.547.923-.54 1.33-.082-.237.041.159-.18-.729-.242-.97.254-1.454.324-2.203.048-.519-.073-1.525-.038-2.065M21.232 43.873s.617-.381.926-1.894c.309-1.515 2.07-2.416 2.627-2.493-.497.567-.943 1.259-1.398 2.1-.642 1.186-1.681 2.068-2.155 2.287"/>
        <path d="M29.527 39.553c-.391-.989-.618-1.514-1.627-2.08-.7-.392-1.185-.474-1.995-.594-1.292-.19-1.954.085-2.426.332-.471.248-.86.575-1.289 1.48-.34.718-.296 1.363-.273 2.011.169-.803.441-1.449.968-1.977.481-.482 1.036-.817 1.282-.888.795-.232 1.274-.023 1.274-.023-.564.124-.934.231-1.344.509-.706.48-1.374 1.394-1.552 2.105 0 0 .649-1.104 1.75-1.595a3.62 3.62 0 0 1 2.354-.358 2.963 2.963 0 0 0-.806.432c-.508.366-.887 1.056-1.277 1.798-.572 1.091-1.002 1.716-1.465 2.141.371-.124 1.606-.819 2.116-1.568.51-.75.95-1.746 1.113-1.946.162-.202.697-.495 1.034-.395.333.1.599.353.606.359.301.344.675.998.544 2.133-.211 1.821-.936 3.31-2.53 6.002-1.524 2.574-2.379 3.542-2.996 4.943-.857 1.941-.711 4.49 1.349 5.035.974.312 2.389-.288 2.389-.288s.407-.308.401.6l.21-3.284s-.364 1.428-1.559 1.51c-1.194.082-1.73-.226-1.853-1.081-.124-.855.412-2.338.824-3.038.412-.7 3.192-5.272 3.295-5.52.103-.247 1.153-2.059 1.4-3.316.248-1.256.474-2.45.083-3.439M30.281 75.249a9.303 9.303 0 0 1-.216-2.032c-.003-.587.329-.69.945-.69.515 0 .638.237.515.502-.471 1.011-.278 1.98.134 2.865-.577.587-1.24.005-1.378-.645m-3.974-7.956c-.299 1.362-.271 1.949-.209 2.557.158-.202.318-.323.467-.31a2.594 2.594 0 0 0-.158 1.071c.154-.236.289-.375.513-.439-.068.413-.104.707-.042 1.17.196-.422.375-.822.585-.669.21.134 0 0 .203.121.17.102-.18.681-.242.834-.06.147.213.404.548.498-.308 1.19-.597 2.166-.348 3.223.093.394.255.772.76 1.05a6.31 6.31 0 0 1-.108-2.294c.057-.471.291-.931.502-1.367.112-.23.399-.139.522.149.176.41.172 1.303.184 1.748.041 1.483.247 2.278 1.685 2.99.575.284 1.022.126 1.334-.145.205-.178.587-.577.354-.938-.339-.526-.189-.617.295-.555.584.074 1.019-.288 1.256-.759.112-.224.154-.912-.288-.858-1.185.144-1.228-.451-1.401-.844-.176-.401-.091-1.826.371-1.864.247-.021.365-.304.277-.664-2.795.027-5.626-1.274-7.06-3.705"/>
        <path d="M33.049 40.809c.041.371.824 1.977 1.4.7.577-1.277 1.689 1.236 3.913 1.236 2.225 0 3.111-.674 3.769-.571.659.102 1.039.592.763 1.395-.546 1.586-1.607 2.513-3.955 4.778-.793 1.006-1.421 2.062-1.478 2.178-.212.425-.2.738.002.803.172.054.35-.028.53-.262.411-.536.508-1.266 1.234-1.694.455-.268 2.472-1.066 2.472-1.066s1.112-.37 1.689.247c.576.618.906 2.595.823 3.46-.082.865-.411 2.554-2.265 3.831-1.854 1.277-1.03 2.389-.576 2.884.453.494 2.854.247 2.854.247s.954.033 1.47.844c.289.454.289 1.05.289 1.05s-1.058.742-1.854.66c-1.379-.145-1.977-.742-3.13-.701-1.154.041-3.048.041-3.048.041s-1.032-.136-.742-1.07c.453-1.463 1.045-3.012.891-3.924-.097-.573-1.063-.522-1.427-.384-.363.138-.671.339-1.215.06-.215-.111-.231-.621-.301-.984a5.955 5.955 0 0 1 .145-2.778c.156-.533.152-.501.239-.68.187-.38-.305-.821-.674-.058-.513 1.062-.539 1.933-.553 2.594-.026 1.316.835 4.011.671 5.247-.165 1.236-.494 2.06-1.401 2.966-.906.907-3.79 4.367-3.79 4.367s-1.151 1.373-.411 2.883c.514 1.05 1.665.858 2.183.865.438.005.7-.185 1.38.371.589.482.706 1.225.144 1.318-2.863.473-4.057-.062-5.561-.948-1.504-.885-1.236-3.254-1.236-3.254s-.062-1.174 1.792-2.513c.453-.72.865-1.709.536-2.327-.312-.584-.968-1.792-.968-1.792s-.618-2.677-.536-3.748c.083-1.071-.041-2.719.824-4.449s2.616-3.851 3.316-5.591c.7-1.741 1.555-3.836 1.792-6.231M35.316 33.025c0 .189-.037.346-.12.444-.502-.093-.752-.531-.906-.847-.649.09-.901-.079-1.427-.489-.311-.265-.674-.826-.872-1.328-.326.03-.866-.379-1.182-.734-.564-.587-.487-1.158-.989-1.896-.125 1.379-1.089 2.352-.452 3.693.233-.535.384-.997.709-1.409-.011.843-.002.999.083 1.695.061.394.222.874.452 1.063-.072-.475-.025-.671.089-.988.151-.422.288-.575.572-.75.107.267.087.408.061.693-.025.27-.046.51.039.857.144.588.316.888.463 1.288a2.798 2.798 0 0 1 .132-1.138c.098-.294.218-.429.452-.595.38.652.315 1.051.37 1.673.052.595.421.807.528 1.206.248-.546-.213-1.441.554-1.957-.123.777-.114 1.313.139 1.934.142.35.52.633.648 1.138.088-.718-.284-1.492.1-2.249.36.36.234.676.337 1.051.147.534.429.825.279 1.341.738-.316.395-1.642.4-2.411.004-.494.073-.459.161-.807-.171-.194-.41-.321-.62-.478"/>
        <path d="M36.634 27.657c-.199.095-.199.095-.393.255-.144.19-.091.512-.009.804.117.421-.003.729-.333.798-.279.058-.551-.002-.709-.362-.174-.401-.226-.731-.112-1.03a6.774 6.774 0 0 1-.916.003c-.192-.012-.452.009-.603-.163-.191-.215-.413-.705-.147-.864.275-.176 1.01-.231 1.222-.243-.195-.535-.681-.566-.856-.908a1.628 1.628 0 0 1-.142-1.182c-.039-.004-.478.098-.649.112-.499.044-.742-.268-.826-.645-.062-.274-.255-.662-.526-.857.062-.163.254-.218.417-.234.284-.027.288-.007.575.022.237.024.497.005.713-.057.313-.087.365-.148.581-.341.147.255.166.479.124.911-.044.443-.069.966.034 1.398.128.538.438.681.97.579.554-.105.545-.337.533-.718-.079-.958-.771-1.257-.386-2.37.283.244.684.192 1.21.089.318-.062.638-.33 1.098-.133-.282.433-.16.562-.223.967-.128.83-.944.945-1.472.896.422.546.404.894.293 1.323-.139.534-.304.407-.358.942.302-.114 1.131-.509 1.333-.294.245.531.297.954-.443 1.302m.897 2.952c-.008-.157-.026-.438.167-.623.201.062.46.274.513.591.066.384.066.954-.09 1.111.786-.417.807-1.193.635-1.802-.152-.488-.579-.742-.494-1.159.656-.1.835.738.874 1.155.224-.348.331-.9.231-1.301-.078-.31-.534-.619-.341-1.07.209-.004.328.182.464.376.121.173.239.415.309.67.151-.467.062-.867-.091-1.233-.153-.368-.396-.42-.481-1.04.33-.144.34.262.726.388.026-.424.052-.563-.333-1.118.125-.125.38-.027.534.148.021-.402-.378-.908-.602-1.122.158-.077.324.005.469.072.051-.356-.187-.683-.392-.845-.255-.201-.446-.166-.656-.363-.204-.19-.51-.61-.564-.911.224-.023.517-.054.772-.17.412-.187.624-.396.865-.757.268-.401.376-.907-.069-1.344a1.203 1.203 0 0 0-1.224-.302c-.46.146-.726.631-1.278.356-.08.264-.22.312-.263.334-.153.077-.527.106-.869.063-.317-.039-1.62.029-1.935.067-.68.082-3.303 1.089-3.228.463-.124.618-.974-.278-1.87.526a1.37 1.37 0 0 0-.402 1.571c.27.649.925.863 1.759.706-.018.276-.069.482-.309.718-.199.197-.471.362-.63.816-.151.594-.129 1.698.417 2.184-.08-.618-.08-.905.098-1.302.12-.309.404-.539.566-.535a7.004 7.004 0 0 0-.214 1.665c-.003.591.004.932.32 1.468.017-.661.242-1.499.597-1.553.367.591-.065 1.112-.152 1.635-.095.574.229.844.608 1.036-.109-.277-.032-.574.027-.818.064-.267.336-1.096.806-.9-.47.93-.462 1.499-.237 2.21.145.454.595 1.009.919 1.077-.241-.309-.396-.9-.396-1.232 0-.576.097-1.251.348-1.41.124.128.297.336.239.8-.062.502-.115.666.039 1.147.139.432.386.726.625.981-.177-1.02-.046-2.139.417-2.371-.06.787-.119 1.4.132 1.878.251.476.43 1.063.429 1.485.21.157.449.284.62.478.022-.083.047-.188.067-.329.089-.608-.39-1.411-.359-1.744.324-.023.625.628.756.995.427-.2.803-.502 1.212-.737a22.923 22.923 0 0 1-.081-1.079"/>
        <path d="M41.395 33.899c-.314-.274-.723-1.083-.577-1.341.417 0 .907.723 1.329 1.182.434.472 1.143.617 1.38 1.268-.038-.882-.273-1.451-.874-1.948-.308-.254-.771-.555-1.149-.79.089-.056.143-.041.349-.041.186 0 .507.18.665.259.326.164.44-.007.788.309.068-.068-.373-.752-.605-.96a2.264 2.264 0 0 0-.809-.46c-.479-.143-1.153-.121-1.56-.294-.376-.16-.479-.232-.888-.548-.217.911-.441 1.235-1.105 1.776-.254.207-.379.309-.529.188-.127-.103-.136-.225-.15-.353a35.539 35.539 0 0 1-.048-.458c-.409.234-.785.537-1.212.737l.004.008c.182.526.155.942.037 1.448-.188.809-.055 1.556.086 2.323.091.491 1.009 1.4 1.055 1.745.139-.425-.353-1.337-.389-1.615-.059-.461-.133-.694-.128-1.132.005-.438.139-1.206.201-1.208.18.163.468.784.427 1.455-.039.644.198 1.076.535 1.478.191.226.51.216.608.695.129-.412.078-.662.021-.901-.139-.587.013-.716.046-1.339.026-.484.026-.484-.088-.983-.079-.332-.015-.778.124-.942.186.061.424.692.422 1.029-.001.31.031.948.197 1.284.235.478.874.878.843 1.26.312-1.002.21-1.875-.132-2.923-.128-.391-.357-.867-.331-1.351.386.144.727 1.279.872 1.693.108.31.094.315.292.547.234.276.45.486.774.63.588.261.777.624 1.026 1.135.058-.251.036-.657-.158-1.183-.309-.843-.667-1.081-1.349-1.679M42.461 28.658c-.257-.688-.815-.593-1.256-.928-.125-.094-.33-.391-.433-.576a.68.68 0 0 0 .134.733c.251.252.602.418.865.668.355.336.299.751.882 1.043-.818.392-1.315-.745-1.853-.522.178 1.033 1.373.859 1.853 1.682-.575-.185-.903-.087-1.451-.11-.231-.011-.659-.103-.852-.219-.547-.328-.488-.548-.366-.968.179-.615.5-.886.325-1.574a2.72 2.72 0 0 1-.055-.578c-.001-.566.652-1.444.137-2.122.247.175.566.412.587.804.061.632.144 1.143.792 1.41.948.392.751 1.202.691 1.257M58.533 43.417c-.658.15-1.319.288-1.973.453-.594.15-1.019.145-1.38-.513-.279-.506-.526-.498-.526-.498s-.026.243-.379.281a3.689 3.689 0 0 1-.685-.056c-.453-.1-1.069-.2-1.511-.185.255.225-.036.483-.201.51-.673.113-1.529.149-2.224.232.417.209.496.885-.081 1.035-.428.112-1.094.116-1.479.394.541.37.139.732.023.835a2.266 2.266 0 0 1-.757.478c-.36.141-.8.307-.888.54.739.172-.157.95-.409 1.23-.286.317-.456.385-.518.755.438-.007.966.116.701.524-.263.457-.689 1.187-.803 1.446-.101.229-.216.453-.325.678 1.002-.568 1.382-.828 2.23-.207.19.139.282.162.499.116.272-.058.49-.159.707-.315.472-.34.777-.26.954.303.84-.842 1.621-1.139 2.044-.664.302-.355.597-.712.891-1.064.424-.508.911-.585 1.081.124.184-.374.288-.574.435-.839.2-.359.355-.846.654-.908.135-.029.278-.063.401.184.053-.187.054-.446.065-.569.042-.488.062-.978.092-1.49.171.368.225.702.261 1.307-.002.54.092 1.143-.31 1.792-.117-.43-.247-.917-.463-.68-.489.571-.774 1.429-1.246 2.322-.005-.247-.135-1.199-.458-1.091-.386.128-.927 1.029-1.391 1.652-.211-.381-.308-.482-.674-.365a1.627 1.627 0 0 0-.556.303c-.411.387-.507 1.006-.617 1.53-.067.322-.241.684-.482.896-.109.096-.22.19-.332.282.21.144.418.301.631.455.549-.277.94-.512 1.454-.743.69-.309 1.831-.678 1.513.134.35-.029.658-.28.793-.422.494-.514.777-1.065 1.324-1.161.123-.021.247-.039.372-.052.226-.286.488-.523.744-.777-.116-.018-.329-.204-.287-.492.023-.162.124-.521.154-.649.095-.4.4-.743 1.104-.563-.024-.384-.037-.716-.067-1.041-.061-.693.354-.791.904-.769-.114-.478-.214-.92-.326-1.359-.051-.196-.101-.399-.194-.576-.381-.734-.375-.853.24-1.235a5.177 5.177 0 0 1 2.001-.727 4.864 4.864 0 0 0-.73-.781M80.99 36.365c-.01-.187-.357-.627-.118-.791.117-.081-.061-.288-.096-.443-.021-.091-.197-.316-.22-.411-.046-.182.059-.239.008-.426-.108-.39-.428-.798-.549-1.138-.131-.367-.063-.657-.183-.853-.033-.054-.364-.281-.397-.332-.215-.346-.112-.468-.295-.722-.238-.331-.588-.498-.801-.716-.21-.214-.281-.478-.499-.627-.068-.047-.321-.049-.374-.113-.448-.541-.972-.458-1.216-.122a52.605 52.605 0 0 0-1.277 1.868c.054.041.108.082.159.125a.526.526 0 0 1 .057-.085c.331-.413.679-.817 1.051-1.195.135-.138.452-.381.688-.243.134.071.176.234.114.37-.186.407-.608.793-.927 1.174.304-.231.581-.513 1.009-.8.212-.142.394-.329.556-.189.216.189-1.202 1.383-1.493 1.721.306-.113 1.321-.988 1.576-1.083.246-.092.364-.068.463.032.059.061.123.226.016.358-.284.476-1.908 1.407-2.179 1.691 1.318-.772 2.534-1.32 2.791-.947.113.121.01.36-.186.481-.245.147-1.313.706-1.688.929.421-.106 1.503-.597 1.81-.611.224-.01.455-.089.64.22.083.217-.278.451-.502.557-.206.099-.626.21-1.011.339.476-.023 1.253-.098 1.592-.114.039.041.221-.071.251.104.082.277-.381.329-.535.372-.453.126-2.027.47-2.005.549.532-.076 1.063-.18 1.598-.217.323-.023 1.158-.045 1.215.176.087.232-.005.479-.299.477-.614-.004-1.343.114-2.054.2.731 0 1.293.049 1.828.023.296-.015.723.028.798.315.025.095-.011.35-.155.359-1.895.146-2.159 0-3.323 0-.007.155-.079.205-.123.361.427-.007.855-.013 1.282-.018.863-.008 1.364.119 2.226.107.51-.008.795-.395.777-.712"/>
        <path d="M76.294 36.627c.168-.276.099-.452.36-.589-.101-.052-.519-.108-.393-.204.194-.164.05-.369.277-.521-.532-.247-.784-1.547-.676-1.628-.17-.053-.601-.432-.678-.684-.064-.209.065-.605.262-.744-.295-.034-.467-.314-.314-.593a3.98 3.98 0 0 0-.159-.125l-.114.171c-.174.264-.351.335-.673.222-.218-.076-.697-.061-.593-.215a1.255 1.255 0 0 0-.445.055c-.27.075-1.122-.19-.875-.283-.413-.116-.786-.044-1.203.249-.005.003-.03-.026-.047-.036-.093-.06-.14-.213-.14-.213s-.646.3-.867.543c-.258.284-.646 1.115-.79.837-.16.27-.18.624-.262.941-.033.127-.202.573-.272.302-.192.141-.212.453-.198.716.007.155.082.346.017.458-.247.428-.031.745.189 1.078.189.283.041.717.542.886.45.153.38.685.085 1.086-.374.509-.829.551-1.439.36.112.408.041.635-.131.779.16.265.274.552.401.834.705-.359 1.371-.764 1.95-1.331.285-.279.619-.177.879.115.126.14.233.305.38.416.298.227.619.426.821.562-.059-.396 1.289-.014 1.661-.014-.299-.216.723-.387 1.181-.582-.44-.581.633-.45.909-.806-.288-.022-.432-.105-.308-.27l.714-.611c-.251-.12-.046-.468-.065-.67.141-.002.283-.128.425-.13.044-.155.116-.206.123-.361h-.534"/>
        <path d="M66.987 52.502c-.308.087-.597.248-.89.384-.428.199-.95-.023-.735-.498.272-.42.49-.891.832-1.244a2.526 2.526 0 0 1 1.221-.71l-.068-.506c-.331.067-.669.117-.988.207-.388.109-.45-.183-.394-.468.156-.779.492-1.438 1.108-1.916-.029-.27-.055-.541-.079-.813a3.126 3.126 0 0 1-1.35.65c-.098-.477-.605-1.143.242-1.222-.309-.275-.656-.495-.878-.805-.215-.303-.308-.695-.445-1.052-.415-1.079.221-2.877 1.247-3.461.195-.111.5-.197.68-.12.185.078.279.37.438.608.162-.329.27-.759.567-.899.208-.098.46-.225.663-.328-.127-.282-.241-.569-.401-.834-.126.106-.307.167-.511.222-.558.148-1.105.35-1.638.572-.093.038-.364.187-.497.244-.961.633-1.127.605-1.478.646.657.549.09 1.184-.34 1.432-.347.201-.841.069-1.079-.097a1.476 1.476 0 0 1-.457-.459c-.221-.35-.295-.825-.176-1.15-.244-.056-.5-.087-.745-.181a.429.429 0 0 1-.01.222c-.066.203-.228.203-.344.228-.21.045-.44.039-.734.008-.565-.059-.904-.267-.602-1.046-1.689 1.249-3.772.769-4.781-.48.054.399.301 1.115.464 1.371.386.611.874.976 1.482 1.483.14-.478.857-.673 1.468-.447.19.069 1.06.36 1.445.524.139.059.355.117.332.387-.019.223-.254.278-.398.314-.208.051-.417.101-.625.149.277.231.511.497.73.781a6.536 6.536 0 0 1 1.837.005c.633.087.735.194.95.504.278.401.084.753.076 1.065-.003.126.045.512.056.495.37-.649.704-.591 1.099.164.197.376.39.76.526 1.162.183.537.247.843-.297 1.339-.262.239-.371.409-.456.695 1.093-.689.948 1.212.946 1.456-.006.727-.606 1.077-.938 1.62-.112.184-.19.253-.263.567.567-.412.633.008.567.494l-.04.291c.686.327 1.441.604 2.206.509.259-.606.715-.984 1.368-1.299.279-.135.553-.235.829-.328-.022-.205-.044-.41-.068-.613-.226.057-.451.116-.674.178"/>
        <path d="M82.158 51.474c-.04-.305.177-.666.562-.909-.849-.375-1.642-.467-2.499-.518-.416-.024-.567-.293-.327-.691.085-.14.144-.165.381-.412a5.358 5.358 0 0 0-1.885-.144c-.257.023-.39-.006-.473-.123-.085-.118-.103-.258.051-.471-.174-.06-.641.084-.86.116-.754.11-1.535-.162-2.284.199-.147.07-.527.151-.667-.157-.013-.029-.047-.158-.02-.223-.089-.016-.297.058-.369.087-.592.239-1.154.317-1.783.049-.055-.024-.117-.029-.184-.024-.218.018-.484.153-.72.181-.378.045-.777-.063-1.155-.015-.2.025-.394.094-.577.251-.104.09-.268.136-.331.245-.398.688-1.021.882-1.671 1.013l.068.506c.098-.024.196-.044.299-.057.502-.062.979-.161 1.173.517.046.158.321.24.456.388.099.109.193.268.192.405 0 .081-.174.205-.289.236-.526.142-1.057.266-1.585.401.024.203.046.407.068.613.168-.057.337-.112.509-.171a9.55 9.55 0 0 1 1.534-.413 7.524 7.524 0 0 1 1.168-.093c.819-.013 1.133.227 1.668.719.13.119.276.265.572.445-.031-.216.041-.314.226-.432.087-.056.53.009.689.087.425.208 1.398.844 1.587.952 0-.339.242-.302.371-.329.916-.01 3.892 2.412 4.817 4.314.353-.472.388-.795-.376-1.694-.521-.614-.933-1.026-1.455-1.638-.11-.129-.433-.405-.267-.683.133-.257.339-.242.535-.217.256.034.363.115.565.239.217-.208.217-.373.131-.662.447.176.715.279 1.379.213-.139-.212-.093-.316.16-.387.692-.147 1.318 0 2.097.261-.179-.963-.712-1.536-1.481-1.974M62.061 40.516c1.041-.046 1.418-.88 2.323-1.305.134-.064.27-.146.305-.234-1.036-.016.688-1.168.675-1.854-.515.185-.324-.354-.257-.549.242-.69.236-.73.473-1.256.045-.099.294-.6.262-.791-.164.103-.313.104-.476.103-.02 0 .303-1.839.269-2.119-.184.075-.56.184-.533-.127.068-.784.254-1.131.478-1.641-.136.039-.69.057-.476-.577.089-.265.398-.885.337-1.282-.803.268-.356-.605-.147-.928.117-.181.27-.349.628-.556-.262 0-.517 0-.782.108-.391.16-.544.234-.903.451-.811.491-.803.503-1.479-.178-.659.701-.947 1.38-1.407 2.05-.168.207-.453.051-.697-.407-.326.464-.342 1.349-.467 1.984-.086.437-.288.436-.333.442-.093.012-.164.036-.314-.15-.107.235-.1.243-.148.492-.081.428-.065.811-.09 1.22-.021.349-.127.984-.529 1.105.34.279.515.711.608 1.215.096.526.15.728-.237.896a1.135 1.135 0 0 1-.639.062c-.009.185.093.556.216.799.285.562.549 1.489.209 1.92.525-.093 1.022.171 1.498.664.163.169.362.4.408.631.245.094.501.125.745.181.076-.21.231-.358.48-.369M95.432 41.822c-.026-.111-.731-1.764-.82-2.419-.133-.971-.047-1.88.133-2.812.022-.114.071-.289.016-.343-.89-.885-1.639-1.748-2.705-2.619-.523-.428-1.432-1.046-3.568-2.284-1.205-.602-1.854.011-2.58.889-.483.585-.881 1.241-1.318 1.866-.113-.232-.095-.352.015-.584.158-.334.445-.686.063-1.116-.555-.624-1.056-1.296-1.563-1.959-.29-.38-1.007-1.866-1.204-2.497-.273-.564-.831-.77-1.423-.842-.806-.1-1.627-.116-2.421-.273-.705-.14-1.371-.468-2.074-.623-.375-.083-.798-.015-1.188.053-.366.063-.709.25-1.074.319-.347.065-.579.145-.636.563-.034.24-.204.53-.403.666-.939.64-1.619 1.386-1.799 2.601.824.155.78-.322 1.125-.734v.851c1.254-.014 2.446-.834 1.957-1.978.053-.023.121-.079.157-.064.493.218.914.195 1.344-.2.164-.151.525-.156.784-.123 1.087.135 2.148.354 3.061 1.034.804.598 1.474 1.273 1.808 2.257a111.696 111.696 0 0 0 1.768 4.9c.109.277.333.56.893.521.408-.028.801-.099 1.203-.141.255 0 .117.263.091.381-.114.247-.597.41-.902.409-1.613-.004-3.198.554-4.833.208-.367-.079-.904.015-1.18.246-.636.533-1.224 1.121-1.822 1.7.452.253.875.555 1.288.849.884-.765 2.196-.926 3.433-.636.643.15 1.483.344 2.085.52.875.256 1.362.432 2.204.782a8.69 8.69 0 0 1 1.58.871c.45.308.891.312 1.36.004.665-.436 1.301-.767 2.022-1.112.48-.231.712.186.468.285l-1.13.784c-.23.158-.482.298-.685.478-.644.569-1.077.531-1.703.408-.408-.081-.744-.458-1.15-.549-.386-.046-.417.17-.168.407.405.433.83.848 1.209 1.303.518.621 1.274.706 1.967.944.324.111.635.286.968.349.474.09.984.218 1.44.128 1.119-.219 2.191-.511 3.152-1.269.748-.59.775-1.3.789-2.025a1.216 1.216 0 0 0-.034-.374"/>
        <path d="M101.013 73.842c-.094.164-.315.359-.473.356-.194-.004-.495-.16-.556-.322-.256-.683-.375-1.381-.586-2.081-.074-.49.162-.684.508-.833.472-.203.856.056.989.417.29.791.598 1.628.118 2.463m-2.098 1.486c-.279.484-1.216.463-1.272-.159a10.902 10.902 0 0 0-.126-1.015c-.2-1.281-.293-2.604-.966-3.754-.671-1.148-1.298-1.998-2.485-3.192-2.083-2.095-4.322-2.674-7.079-2.883-.996-.075-2.006.052-3.01.05-.352-.001-.686-.194-.692-.587-.003-.179.02-.383.344-.56.522-.286.951-.41 1.724-.495.561-.062 1.343-.054 1.914-.054 2.73-.013 4.966 1.082 6.449 2.086 1.191.805 2.541 2.471 3.352 3.621 1.054 1.496 1.443 2.432 1.949 4.11.245.811.342 2.058-.102 2.832M82.698 62.81c-.238.052-.691.116-.784-.157-.169-.36.111-.624.286-.721.73-.406 1.485-.791 2.273-1.067a8.046 8.046 0 0 1 3.63-.413c.475.055.811.387.804.869-.008.573-.402.646-.841.658-.289.007-.579.001-.869.001-.903.012-2.038.064-3.006.344-.53.154-.984.375-1.493.486m-37.9 2.027c-.241.324-.452.362-.689.359a3.07 3.07 0 0 1-1.132-.263c-1.649-.709-3.332-.674-5.012-.299-1.016.227-2.042.551-2.959 1.043-.776.416-1.405.933-2.019 1.505a73.32 73.32 0 0 1-1.097 1.004c-.099.089-.347.247-.571-.008-.132-.108-.215-.223-.031-.587.217-.43.318-.658.547-.918.727-.827 1.252-1.476 2.291-2.16.853-.56 1.287-.854 2.24-1.189.741-.26 2.071-.468 2.873-.497 1.406-.051 2.813.024 4.136.557a5.5 5.5 0 0 1 1.259.693c.281.208.332.533.164.76m48.416-3.077c-.403.202-.819-.222-1.098-.505-.34-.344-.473-1.019-.34-1.255.276-.489.589-.603 1.171-.186.916.618.769 1.694.267 1.946m8.676 10.87c-.179-.798-.544-1.744-.755-2.576-.099-.393.017-.633.351-.819-.24-.591-.618-1.053-1.026-1.532l-.051.17c-.062.17-.334.238-.464.065-1.309-2.689-3.31-4.385-5.765-5.956.392-1.638-.277-2.622-1.816-3.141-.787-.062-1.198.626-1.251.726-.335.629-.06 1.498.24 2.008a2.068 2.068 0 0 0 1.842 1.008c.324-.013.672.234.973.418 1.315.808 2.548 1.734 3.585 2.875.535.588.868 1.135 1.292 1.816.099.158.279.664.008.819-.347.2-.58-.076-.977-.537-.529-.614-.995-1.078-1.511-1.604-.521-.532-1.014-1.096-1.575-1.582-.633-.549-1.727-1.225-2.352-1.536-1.02-.507-1.312-.612-2.281-1.088-.161-.08-.389-.29-.375-.417.089-.821-.396-1.414-.775-2.037-.133-.22-.422-.359-.663-.498-.473-.272-.359.267-.539.401a.855.855 0 0 1-.48.165c-1.889-.01-3.602.376-5.349 1.28-.334.173-.624.509-.979.355-.263-.115-.389-.595-.593-.914-.41-.643-.531-1.052-.97-1.674-.561-.795-1.295-1.668-1.953-2.227-1.809-1.538-3.837-2.706-6.396-2.708-1.487-.001-2.858.292-4.227.755-.369.125-.701.359-1.064.505-.145.059-.387.081-.482 0-.086-.073-.082-.329-.029-.472.015-.04.033-.076.049-.114-.765.095-1.52-.182-2.206-.509-.036.243-.041.236-.109.527-.046.206-.392.402-.531.238a20.17 20.17 0 0 0-.58-.717c-.626-.743-1.253-1.101-2.067-1.475-1.306-.6-2.476-.96-4.138-1.004a1.327 1.327 0 0 1-.167-.015c-.256.255-.518.491-.744.777.852-.092 1.752-.006 2.599.145.949.169 1.652.485 2.461 1.068.527.381.927.798 1.215 1.298.282.488.174.663.124.715-.144.151-.412.294-.989.067-.8-.272-1.087-.414-1.804-.648-1.604-.523-3.253-.612-4.903-.352-1.544.243-3.077 1.044-4.271 2.025-1.018.836-1.754 1.736-2.707 2.654-.187.181-.452.413-.672.404-.656-.027-.901-.498-.532-1.039a24.562 24.562 0 0 1 1.699-2.211c.472-.545.667-.733 1.255-1.173.226-.169.808-.591 1.069-.709-.214-.154-.421-.311-.631-.455-.74.609-1.535 1.158-2.218 1.824-.805.783-1.46 1.718-2.222 2.551-.447.49-.351.425-.974.475-.212.668-.853 2.119-.538 2.246.946.379 1.586.481 2.518.001.299-.155.658-.213.999-.264.241-.035.354-.014.448-.214.639-1.351 1.085-1.708 2.059-2.756.864-.932 1.961-1.73 3.027-2.219.708-.325 1.947-.579 2.708-.61 1.459-.06 3.002-.226 4.145 1.03.131.144.206.357.15.626-.039.191-.314.202-.48.196-.595-.025-1.118-.106-1.781-.139-.991-.048-2.018-.044-2.964.193-1.443.362-2.937 1.155-4.032 2.304-.768.805-1.335 1.353-1.835 2.457-.248.547-.419 1.127-.657 1.678-.297.686-.782.819-1.363.363-1.391-1.091-3.003-1.531-4.729-1.614-.738-.035-1.49-.046-2.216.037-1.203.139-1.783.216-2.903.563-1.132.352-2.709 1.276-3.818 2.422-.791.816-1.134 1.117-1.789 2.004-.511.693.037 1.956.865 2.033.799.073 1.153-.534 1.61-.985.274-.27.479-.555.778-.854.451-.45 1.012-.845 1.567-1.16.872-.494 1.428-.736 2.425-.983.824-.204 1.81-.267 2.655-.232 1.037.041 1.834.137 2.529.9.309.34.387.761.269 1.088-.093.255-.701.045-.951-.058-1.26-.519-2.564-.665-3.895-.496a4.364 4.364 0 0 0-1.566.496c-.645.364-1.305.811-1.77 1.381-.582.714-1.401 1.73-1.168 1.854.117.072.438-.178.569-.304.585-.557 1.111-1.182 1.73-1.698 1.383-1.15 2.689-1.16 4.574-.748.771.168 1.523.639 2.271.913.665.244 1.197-.065 1.165-.653-.071-1.3.759-2.373 2.041-2.494.479-.045.989.145 1.473.272.558.146.905-.028 1.039-.585.116-.476.014-.691-.029-1.033-.038-.288-.082-.552-.107-.829-.083-.935.476-1.762 1.214-2.645.557-.665 1.613-1.44 2.355-1.884 1.438-.858 3.014-1.162 4.669-.79.738.165 1.457.419 2.182.643 1.061.327 1.816-.112 2.038-1.107a.66.66 0 0 1 .124-.26c.425-.529.964-.475 1.491.144.648.762 1.827.81 2.431.091.399-.473.69-1.127 1.192-1.405.979-.542 2.039-1.044 3.125-1.255 1.514-.295 3.352-.24 4.812.409.904.402 1.344.572 2.366 1.369 1.68 1.312 2.994 2.963 3.592 5.067.244.855.166 1.085.106 1.764-.04.451-.55.785-.887.659-.172-.065-.301-.226-.303-.52-.016-1.478-.635-2.192-1.329-3.219a11.3 11.3 0 0 0-1.792-2.054c-.911-.811-1.704-1.487-3.692-2.079-.868-.259-1.367-.224-2.311-.186-1.218.048-2.25.339-3.049 1.234-.425.476-.437 1.356-.042 1.654.356.268.841.397 1.353.15.485-.235.554-.707.497-1.168-.062-.501.116-.772.589-.911 1.657-.489 3.234-.21 4.633.709 1.083.71 2.059 1.55 2.818 2.659.527.77 1.127 1.383 1.388 2.427.071.283-.017.748-.066 1.051-.116.71.189 1.545 1.14 1.391.63-.102 1.215-.269 1.469-.86.15-.348.242-.603.469-1.063.291.852.504 1.187 1.384 1.341.02.003.107.243.124.289.248.653 1.051 1.086 1.876.711.875-.397 1.805-.384 2.734-.423 2.185-.09 4.07.591 5.743 2.012.917.778 1.62 1.645 2.298 2.586a7.107 7.107 0 0 1 1.305 3.449c.061.618.108.981-.55 1.241-.543.215-.738.831-.651 1.307.087.469.417.972 1.078.98.439.005.883.021 1.316.09 1.052.167 1.949-.366 2.187-1.35.093-.386.27-.529.694-.427.991.239 1.28-.084 1.464-.986.083-.402-.079-.794-.206-1.359"/>
        <path d="M104.305 46.53c-.525-.753-.978-1.423-1.513-2.169-.368-.511-.699-.902-1.036-1.461-.597-.992-.947-1.246-1.297-2.858-.169-.778-.118-1.599.031-2.343.134-.669.447-.938.879-.924.372.012.582.195.812.487.157.198.412.548.301 1.112-.098.499.86 1.076.881 2.137.278-1.916-.232-3.111-1.243-3.977.217-.025.452-.04.64.025 1.117.381 1.164 1.974 1.113 2.989-.048.941-.123 2.135-.062 2.564.06.429.175 1.606 1.395 2.379-.664-.997-.957-1.329-.86-2.92.093-1.436.041-1.84-.025-2.533-.101-1.043-.358-1.486-.477-1.74-.118-.253-.365-.492-.365-.492.032.011.471.247.759.806.287.555.505 1.06.508 1.888.002.651.004 1.345-.017 1.827-.053 1.202.184 1.804.699 2.541.43.615 1.333 1.225 1.642 1.395-1.318-1.715-1.727-2.432-1.802-3.624-.055-.871.059-1.661-.067-2.477-.253-1.643-.842-3.051-2.217-3.762-.208-.107-.633-.216-1.243-.27.332-.101 1.393-.287 2.533.65.535.439.778 1.209 1.19 1.62 1.012 1.013 1.204 1.483 1.658 2.338-.033-.058-.749-2.585-1.952-3.882-.672-.725-1.806-1.062-1.831-1.07-1.85-.572-3.566.744-4.01 2.479a7.473 7.473 0 0 0-.219 2.133c.031.937.252 1.679.786 2.744.716 1.426 1.178 2.031 2.139 3.352.695.957 1.396 1.847 2.007 2.874.386.647.692 1.096.85 2.085.243 1.516-.667 1.866-1.637 1.684-1.555-.292-2.323-1.456-3.1-2.659-.698-1.082-1.286-2.237-1.91-3.368a61.555 61.555 0 0 0-.348-.618c-.112-.194-1.716-2.484-2.825-4.607-2.949 1.118-8.019 3.081-7.922 3.184 1.088 1.143 1.929 1.198 2.892 2.145.628.619.85.691 1.458 1.443.187.218.462.476.608.715.325.535.539.915.789 1.486.069.156.294.757-.023.726-.209.002-.382-.421-.455-.617-.226-.608-.393-.948-.966-1.163-.651-.245-1.416-.481-2.077-.699-1.221-.401-2.419-.464-3.678-.029-.462.195-.85.666-.907.731-.864.983-.85 2.548.172 3.647.758.814 1.387 1.223 2.011 2.139.338.497.612 1.332.72 2.227-.66.12-1.154.253-1.653.287-.423.029-.875.015-1.277-.105-.957-.283-1.773.028-2.408.655-.559.552-.941 1.282-1.41 1.947 1.448.357 2.402-.022 2.752-.264.689-.475 1.464-.675 2.251-.79 1.227-.178 2.47-.244 3.702-.39.614-.073.657-.63.583-1.034-.075-.41-.42-1.26-.523-1.882-.04-.315-.079-.68.048-.928.212-.413.832-.444 1.358-.172.321.166.626.306.988.448.386.151.687.088.816-.463.274-1.169.247-1.578.879-2.888.108-.224.303-1.125.392-1.537.057-.247.367-.248.364.016-.058.489-.093.944-.222 1.413-.131.477-.411.899-.531 1.372-.38 1.494-.397 2.286-.5 3.439a4.604 4.604 0 0 0 .959 3.21c.761.973 1.803 1.761 3.078 2.119.988.277 1.942.668 2.306 1.75.438 1.3 1.008 2.611.917 3.998-.021.319-.036.445-.103.682.408.479.786.941 1.026 1.532.033-.018.065-.036.102-.054.266-.124.57-.375.655-.635.131-.405.161-.875.11-1.303-.126-1.059-.345-2.107-.481-3.165-.078-.6-.037-1.216-.102-1.818-.078-.716-.054-1.5-.961-1.8-.296-.099-.571-.28-.834-.456-.958-.64-1.31-2.735-.558-3.647.72-.873.9-1.947 1.231-2.961.194-.594.428-.796.902-.401.688.573 2.114.715 2.992.513.721-.166 1.301-.547 1.647-1.386.403-.977.093-2.395-.492-3.494-.499-.935-.785-1.229-1.392-2.098"/>
        <path d="M105.623 38.42c.09.394.219.839.248 1.572.02.528-.053 1.339.08 1.81.297 1.061 1.171 2.066 1.171 2.066s-.705-1.463-.427-2.69c.159-.699.02-1.053-.181-1.358-.145-.222-.366-.658-.891-1.4M80.915 43.099c-.455.009-1.073-.004-.547-.961-1.051-.052-1.691.334-2.307.216-.22-.042-.353-.072-.433-.36-.03-.112.031-.361.062-.485-.216.107-.405.122-.515.042-.299-.22-.107-.38-.007-.524.134-.191.288-.357.457-.503-.413-.294-.836-.596-1.288-.849-.261.253-.525.505-.795.75-.369.333-.791.651-1.247.824-.178.068-.326.009-.539-.213-.144-.151-.35-.361-.638-.402-.546 1.195-1.627 1.452-2.178.605-.325.106-.675.332-.994.816-.225.341-.535.556-.849.564-.241.007-.335-.028-.438-.203-.215.124-.534.437-.654.607-.301.425-.51.917-.352 1.537.103.407.104.835-.027 1.287-.111.387-.271.782-.632 1.091.024.272.05.543.079.813.106-.081.218-.158.34-.229.298-.171 1.157-.45 1.743-.352.714.119 1.404.274 1.869.991.323-.381.476-.545.374-.969.689.167 1.151.729 1.493 1.014.061-.157.114-.333.257-.487.147-.198.347-.233.546-.258.46-.057.636.095 1.06.464.643-.728.932-.779 2.379-.196-.082-.618.304-.938 1.009-.772.7.165.932-.141 1.439-.689.195-.21.655-.325.889-.505-.533-.485.163-.826.325-.898.691-.303 1.218-.611 1.639-1.344.167-.292.484-.388.631-.508-1.061-.247-1.411.072-2.151.086M95.419 36.244c.396-.39 1.555-1.244 2.302-1.41l-.487-.867a1.326 1.326 0 0 1-.455.966c-.112-.297-.155-.619-.031-.906-.212.19-.626.445-.916.564.314.083.54.183.713.459-.335.159-.98.382-1.438-.175-.299-.363-.332-.854.019-1.162.115-.1.309-.164.48-.006.167.153-.039.45-.178.517.326.061 1.047-.385.749-.76-.235-.293-.859-.18-1.164.019.198-.37.289-.999-.016-1.205-.396-.268-.792.475-.783.735.192-.201.481-.288.586-.195.097.084.098.349-.074.534-.3.321-.897.234-1.263-.046-.403-.31-.521-.86-.12-1.504.199.21.484.672.481.99.231-.398.39-.608.727-.947-.37.093-.79-.113-1.031-.248.259-.208.617-.364 1.029-.303l-1.253-.961c.165.381.058.729-.074 1.032-.191-.199-.492-.548-.495-.92-.243.41-.403.619-.727.946.3-.084.81.066 1.065.201-.516.551-1.118.477-1.486.242-.396-.253-.766-.742-.519-1.192.122-.221.463-.163.568-.092.119.078.161.328.016.564.293-.2.771-.655.41-.968-.277-.242-.736-.021-1.041.266.113-.346-.02-.983-.383-1.081-.448-.123-.621.647-.478.945.028-.151.247-.477.438-.356.197.125.133.4.06.533-.223.406-.722.452-1.147.223-.671-.361-.702-1.001-.4-1.335.316.095.476.289.639.574.04-.311.18-.775.309-1.029-.251.196-.577.236-.899.2a1.32 1.32 0 0 1 .82-.694l-.964-.247c.036.741-.572 2.074-.77 2.595 3.696 2.116 4.104 2.4 7.181 5.504"/>
        <path d="M92.008 28.715c-.342.202-.582.293-.718.535-.14.243-.343 1.008-.398 1.308.277-.205.879-.756 1.004-.979.124-.224.054-.679.112-.864M96.45 32.112c-.127.377-.165.631-.374.814-.208.187-.914.545-1.197.661.144-.313.557-1.016.749-1.185.193-.168.653-.194.822-.29M63.489 5.307V3.728a1.955 1.955 0 0 0-1.528 1.579h1.528M64.297 5.307h1.519a1.956 1.956 0 0 0-1.519-1.579v1.579M61.981 6.07a1.954 1.954 0 1 0 3.816 0h-3.816M64.132 1.768c.094-.469.312-.914.714-1.413h-1.968c.4.499.616.944.709 1.413a.483.483 0 0 1 .545 0"/>
        <path d="M63.594 2.578c-.078.485-.192 1.02-.648 1.385.691-.333 1.162-.345 1.936 0-.384-.279-.653-.901-.752-1.388a.48.48 0 0 1-.536.003M63.427 1.954c-.487-.12-.997-.379-1.315-.794v2.042c.321-.416.833-.675 1.324-.796a.479.479 0 0 1-.009-.452M64.294 1.954a.48.48 0 0 1-.011.452c.492.121 1.005.38 1.324.796V1.16c-.317.415-.827.674-1.313.794"/>
        <path d="M63.86 2.719a.55.55 0 0 1-.549-.548.55.55 0 0 1 1.097 0 .549.549 0 0 1-.548.548M62.688 13.566h2.397V7.573h-2.397z"/>
        <path d="M53.909 8.829c.341-.312 1.6-1.357 3.039-1.272 1.067.062 1.873.462 2.525.784.183.092.357.178.522.249.73.315 1.916.553 2.76.553.103 0 .2-.004.288-.011l.062-.005-.035-.431-.062.005c-.08.007-.169.01-.264.01-.229 0-.486-.02-.751-.054l.04-.234a.626.626 0 0 0-.181-1.226.63.63 0 0 0-.628.628c0 .195.091.368.232.483l-.043.254a6.551 6.551 0 0 1-1.246-.369 6.665 6.665 0 0 1-.316-.148l.128-.276a.627.627 0 1 0-.537-.241l-.12.258a7.574 7.574 0 0 0-1.15-.453l.075-.312a.625.625 0 0 0-.184-1.225.63.63 0 0 0-.629.628c0 .197.093.37.234.486l-.069.289a5.476 5.476 0 0 0-.626-.074 3.273 3.273 0 0 0-.486.008l-.041-.23a.624.624 0 0 0-.402-1.107.626.626 0 1 0-.174 1.229l.036.207a4.798 4.798 0 0 0-1.104.438l-.129-.217a.623.623 0 0 0-.545-.936.63.63 0 0 0 0 1.256c.017 0 .032-.003.048-.004l.123.207c-.321.217-.558.42-.682.534-.082.075-.165.16-.246.252l-.156-.116a.63.63 0 0 0-.611-.77.628.628 0 1 0 .222 1.214l.191.143a4.053 4.053 0 0 0-.463.983l-.244-.058a.628.628 0 1 0-.156.568l.264.064a3.8 3.8 0 0 0-.004 1.172l-.251.057a.626.626 0 0 0-1.093.42.628.628 0 0 0 1.236.151l.234-.053c.106.374.253.736.41 1.068l-.242.125a.63.63 0 0 0-.979.521.63.63 0 0 0 1.256 0v-.001l.234-.121c.208.375.406.677.532.859l.012.061.013.06.052-.011.056.076.037.05.272-.206.005-.001v-.002l.068-.053-.037-.049a3.255 3.255 0 0 1-.069-.095c-.075-.446-.254-1.851.338-2.443.391-.391.797-.565 1.319-.565.211 0 .424.027.629.053l.29.036.068-.136c.274-.548.768-1.137 1.334-1.146l.052-.001c.695 0 1.376.251 2.277.84.517.338 1.101.502 1.784.502.193 0 .362-.013.498-.022a2.16 2.16 0 0 1 .265-.013l.061.004.025-.432-.062-.004c-.084-.005-.188.003-.321.013-.132.01-.295.022-.473.022-.591 0-1.095-.141-1.54-.432-.976-.638-1.729-.91-2.517-.91h-.056c-.85.014-1.419.85-1.642 1.249a5.183 5.183 0 0 0-.665-.055c-.642 0-1.161.22-1.632.691-.473.473-.566 1.278-.548 1.932-.323-.57-.683-1.337-.801-2.089-.282-1.792.927-2.956 1.066-3.083M76.173 11.759a.626.626 0 0 0-.464.209l-.251-.057a3.806 3.806 0 0 0-.004-1.173l.263-.063a.63.63 0 0 0 .456.199.63.63 0 0 0 0-1.257.628.628 0 0 0-.611.489l-.244.059a4.129 4.129 0 0 0-.463-.983l.191-.142a.628.628 0 1 0-.407-.586c0 .048.007.095.018.141l-.156.116a3.284 3.284 0 0 0-.246-.252 6.175 6.175 0 0 0-.682-.534l.123-.207c.016.001.031.005.047.005a.63.63 0 1 0-.628-.629c0 .113.032.217.084.308l-.13.218a4.78 4.78 0 0 0-1.104-.438l.037-.208a.627.627 0 1 0-.576-.122l-.041.231a3.282 3.282 0 0 0-.487-.009 5.219 5.219 0 0 0-.625.074l-.069-.29a.623.623 0 0 0 .233-.484.628.628 0 1 0-1.256 0c0 .281.188.517.443.597l.076.312c-.432.125-.811.29-1.15.452l-.12-.258a.625.625 0 0 0-.495-1.011.627.627 0 1 0-.042 1.252l.128.276a6.602 6.602 0 0 1-.316.148c-.34.147-.786.276-1.245.368l-.044-.253a.622.622 0 0 0 .232-.483.63.63 0 0 0-1.256 0c0 .283.189.52.447.598l.039.234a5.858 5.858 0 0 1-.752.054c-.094 0-.183-.004-.263-.01l-.061-.005-.035.431.062.005c.087.007.184.011.287.011.844 0 2.031-.238 2.761-.553.167-.073.349-.163.525-.25.648-.321 1.455-.721 2.522-.783 1.44-.084 2.698.96 3.039 1.272.139.127 1.347 1.292 1.066 3.083-.118.748-.477 1.515-.801 2.087.018-.654-.075-1.457-.548-1.93-.472-.471-.99-.691-1.632-.691-.235 0-.463.029-.666.055-.222-.399-.791-1.235-1.641-1.249h-.049c-.793 0-1.548.272-2.524.91-.445.29-.949.432-1.541.432a6.08 6.08 0 0 1-.472-.022 2.79 2.79 0 0 0-.321-.013l-.062.004.024.432.062-.004a2.6 2.6 0 0 1 .265.012c.135.011.304.023.498.023.683 0 1.267-.164 1.784-.502.901-.589 1.58-.84 2.273-.84h.056c.565.01 1.06.599 1.334 1.147l.068.136.29-.036c.205-.026.417-.053.628-.053.522 0 .929.174 1.32.565.59.591.412 1.998.337 2.444a1.985 1.985 0 0 1-.068.094l-.038.05.069.051-.001.003.006.001.272.205.037-.049.056-.076.052.011.013-.06.012-.06c.126-.182.325-.483.533-.859l.232.12v.001a.63.63 0 1 0 .277-.521l-.241-.124a6.78 6.78 0 0 0 .409-1.069l.235.054a.63.63 0 0 0 .607.476.63.63 0 0 0 0-1.257"/>
        <path d="M72.287 21.402c-.433-.132-.712-.479-.622-.773.091-.294.515-.424.949-.292.134.041.252.102.35.176l.046-.177c.51-2.182.963-3.912 1.958-5.101l-1.851-.79c.542.741.58 1.604.461 2.112-.547-.34-1.014-.804-1.167-1.417-.107.567-.456 1.485-.774 2.034.605-.254 1.091-.371 1.709-.143-.341.67-1.103 1.823-2.525 1.493-.928-.215-1.585-.962-1.4-1.89.06-.301.293-.643.762-.602.458.042.492.773.35 1.051.6-.304 1.208-1.909.268-2.142-.738-.182-1.602.769-1.846 1.463-.138-.837-.766-1.959-1.511-1.913-.967.058-.686 1.738-.35 2.143.06-.558.415-1.055.7-1.034.258.016.588.44.538.947-.085.886-1.152 1.483-2.083 1.483-1.03 0-1.897-.739-2.046-2.266.578.093 1.605.482 1.991.996-.12-.924-.123-1.457 0-2.415-.478.604-1.406.792-1.962.873.16-.654.544-1.345 1.28-1.755h-3.196c.736.41.992 1.098 1.154 1.749-.553-.085-1.466-.272-1.93-.867.117.958.117 1.491 0 2.415.377-.506 1.381-.892 1.957-.99-.149 1.521-1.207 2.143-2.088 2.219-.947.082-2.144-.247-2.301-1.274-.078-.503.543-.832.798-.847.286-.021.662.328.72.885.224-.682.432-2.002-.535-2.06-.742-.046-1.206.874-1.343 1.711-.245-.694-1.244-1.552-1.947-1.264-.87.357-.199 1.804.399 2.108-.143-.278-.192-1.071.264-1.113.469-.041.706.48.753.783.142.927-.602 1.615-1.565 1.771-1.525.248-2.362-.741-2.289-1.649.624-.239 1.12-.122 1.734.134-.321-.549-.668-1.467-.774-2.034-.16.624-.636 1.09-1.196 1.43-.124-.505-.088-1.378.46-2.125l-1.851.79c.971 1.147 1.381 3.22 1.962 5.117l.031.112c.082-.052.175-.095.277-.127.434-.132.859-.002.949.292.09.294-.188.641-.622.773a1.113 1.113 0 0 1-.383.051c.01.182-.006.362-.06.577 2.522-1.228 6.287-1.363 8.962-1.363 0 0 5.208-.336 8.896 1.363a6.61 6.61 0 0 1 .03-.588 1.093 1.093 0 0 1-.491-.04"/>
        <path d="M55.344 20.162a1.277 1.277 0 0 0-.68.197c-.326.204-.481.514-.397.788.076.249.335.414.677.43l.052.001c.124 0 .25-.019.373-.057.234-.072.435-.202.567-.368.145-.178.193-.378.137-.56-.08-.262-.367-.431-.729-.431M72.276 20.162c-.362 0-.648.169-.729.431-.056.182-.007.382.137.561.132.165.334.295.567.367.124.037.249.057.372.057.06 0 .119-.005.175-.014.282-.045.49-.201.556-.417.076-.248-.045-.529-.316-.732a1.277 1.277 0 0 0-.762-.253"/>
        <path d="M73.236 20.219a.338.338 0 0 1-.083-.011c-5.962-1.657-12.257-1.657-18.708.002a.31.31 0 0 1-.154-.599c6.558-1.686 12.96-1.685 19.028.001a.31.31 0 1 1-.083.607"/>
        <path d="M54.368 20.281a.37.37 0 1 1-.093-.73c3.268-.84 6.535-1.266 9.711-1.266 3.178 0 6.323.427 9.349 1.268a.37.37 0 0 1-.198.714 34.173 34.173 0 0 0-9.152-1.24c-3.113 0-6.318.418-9.525 1.242a.363.363 0 0 1-.092.012M58.248 12.325c-.301.747-.574 1.188-.494 1.744.075.562.691 2.041.973 2.591.191-.67.479-2.296.405-2.808-.075-.513-.75-1.158-.884-1.527M69.575 12.341c.261.761.511 1.216.402 1.767-.103.557-.795 2.002-1.105 2.537-.156-.68-.359-2.318-.259-2.826.102-.508.808-1.117.962-1.478M54.468 17.089a.665.665 0 1 1-1.33 0 .665.665 0 0 1 1.33 0"/>
        <path d="M53.803 17.816a.728.728 0 1 1 .001-1.455.728.728 0 0 1-.001 1.455M64.546 15.524a.706.706 0 1 1-1.413.001.706.706 0 0 1 1.413-.001"/>
        <path d="M63.839 14.879a.646.646 0 1 0 .645.645.646.646 0 0 0-.645-.645m0 1.413a.768.768 0 1 1 0-1.536.768.768 0 0 1 0 1.536M74.243 17.044a.666.666 0 1 1-1.332 0 .666.666 0 0 1 1.332 0"/>
        <path d="M73.578 17.771a.729.729 0 0 1 0-1.455.729.729 0 0 1 0 1.455M73.149 22.757c0 .94-3.823 1.988-9.31 1.988-5.486 0-9.309-1.048-9.309-1.988s3.823-1.987 9.309-1.987c5.487 0 9.31 1.047 9.31 1.987zm-9.31-2.358c-4.692 0-9.679.826-9.679 2.358s4.987 2.358 9.679 2.358c4.693 0 9.681-.826 9.681-2.358s-4.988-2.358-9.681-2.358z"/>
        <path d="M71.066 23.2c-1.818-.472-4.434-.744-7.176-.744-2.778 0-5.416.277-7.238.76a.185.185 0 0 0-.131.227.185.185 0 0 0 .226.132c1.793-.475 4.396-.748 7.143-.748 2.712 0 5.293.267 7.083.732a.19.19 0 0 0 .226-.133.186.186 0 0 0-.133-.226M33.271 15.028l-.084-.526a.659.659 0 0 0-.425.607l.509-.081M33.54 14.985l.505-.08a.658.658 0 0 0-.589-.445l.084.525M32.809 15.362a.66.66 0 0 0 1.271-.202l-1.271.202M33.297 13.815c.007-.161.056-.32.163-.507l-.655.104c.16.145.255.281.311.432a.174.174 0 0 1 .086-.042.168.168 0 0 1 .095.013"/>
        <path d="M33.161 14.114c0 .165-.01.349-.142.495.212-.148.369-.176.644-.102-.142-.073-.265-.266-.323-.422a.169.169 0 0 1-.179.029M33.072 13.915a.794.794 0 0 1-.479-.195l.108.68a.803.803 0 0 1 .399-.335.161.161 0 0 1-.034-.075.172.172 0 0 1 .006-.075M33.361 13.869c.014.02.025.044.029.07a.148.148 0 0 1-.009.081.805.805 0 0 1 .484.195l-.109-.68a.797.797 0 0 1-.395.334"/>
        <path d="M33.206 13.823a.143.143 0 1 0 .044.282.143.143 0 0 0 .12-.164.144.144 0 0 0-.164-.118m.051.323a.184.184 0 1 1-.058-.364.184.184 0 1 1 .058.364M33.124 15.825l.317 1.995.798-.127-.317-1.995-.798.127M32.858 16.206a.253.253 0 1 0-.039-.503.253.253 0 0 0 .039.503"/>
        <path d="M33.478 17.097l-.032.004c-.028.003-.063.011-.107.021-.083.02-.196.047-.327.047a.867.867 0 0 1-.359-.076c-.373-.168-.636-.216-.91-.168-.283.05-.43.354-.486.503-.225.007-.502.02-.732.338-.127.173-.124.428-.089.641a2.164 2.164 0 0 1-.351-.62c-.187-.576.151-1.024.19-1.073.099-.125.459-.533.937-.581.054-.005.108-.008.162-.008.284 0 .523.075.716.135l.011.004c.062.019.122.037.177.052.158.04.374.063.591.063.178 0 .341-.016.458-.044l.03-.007-.04-.161-.029.007c-.107.026-.255.04-.419.04-.203 0-.403-.022-.549-.059a1.195 1.195 0 0 1-.074-.021l.019-.067a.256.256 0 0 0 .125-.09.253.253 0 1 0-.396.017l-.016.059c-.1-.029-.21-.055-.329-.073l.006-.078a.252.252 0 1 0-.281-.011l-.005.069c-.058 0-.116.002-.173.008a.986.986 0 0 0-.123.02l-.017-.048a.252.252 0 0 0-.245-.396.253.253 0 1 0-.017.496l.013.038a1.557 1.557 0 0 0-.277.164l-.035-.042a.251.251 0 0 0-.284-.314.253.253 0 1 0 .04.502l.033-.002.032.037c-.08.078-.138.147-.171.187-.016.02-.031.042-.047.065l-.031-.017c-.001-.01 0-.019-.002-.029a.253.253 0 1 0-.21.29.267.267 0 0 0 .064-.021l.047.024a1.473 1.473 0 0 0-.08.278l-.055-.005a.25.25 0 0 0-.427-.03.252.252 0 0 0 .398.31l.063.004c.003.102.019.208.05.315l-.055.021a.246.246 0 0 0-.177-.038.245.245 0 0 0-.165.101.248.248 0 0 0-.045.188.25.25 0 0 0 .289.21.25.25 0 0 0 .207-.202l.047-.019c.046.094.098.183.153.266l-.048.036a.253.253 0 1 0-.044.487.252.252 0 0 0 .212-.263l.046-.034c.079.099.15.177.197.226l.006.017.011.028.02-.007.019.018.022.021.084-.088.01-.004-.002-.005.022-.023-.022-.021a.793.793 0 0 1-.025-.026c-.049-.144-.181-.596-.018-.82.186-.257.394-.263.614-.269l.105-.004.018-.056c.061-.194.192-.413.375-.445.239-.043.473.002.814.155.134.06.278.091.428.091.151 0 .279-.031.364-.051a.843.843 0 0 1 .086-.018l.031-.003-.016-.166"/>
        <path d="M32.771 16.3l.002-.198.157.002-.002.197-.157-.001M37.598 16.833l.049.003a.25.25 0 0 0 .221.131h.001a.253.253 0 1 0-.04-.503.255.255 0 0 0-.157.093l-.058-.004a1.273 1.273 0 0 0-.051-.315l.058-.023a.256.256 0 0 0 .174.036.253.253 0 0 0-.079-.5.253.253 0 0 0-.209.207l-.051.021a1.43 1.43 0 0 0-.162-.239l.037-.037a.246.246 0 0 0 .067-.001.253.253 0 1 0-.289-.21l.007.029-.024.025a2.056 2.056 0 0 0-.285-.172l.019-.046a.253.253 0 1 0-.258-.11l-.02.05a1.595 1.595 0 0 0-.315-.071l.001-.039a.254.254 0 0 0 .119-.256.253.253 0 1 0-.399.243l-.001.05a1.233 1.233 0 0 0-.291.065l-.026-.063a.252.252 0 0 0 .045-.188.253.253 0 1 0-.309.285l.03.072a2.524 2.524 0 0 0-.29.172l-.034-.053a.251.251 0 0 0-.272-.347.253.253 0 0 0 .038.503l.038.057-.063.042a2.136 2.136 0 0 1-.355.173l-.016-.049a.249.249 0 0 0 .045-.188.252.252 0 1 0-.309.284l.014.041a1.57 1.57 0 0 1-.294.057l-.03.003.012.165.031-.002c.278-.022.732-.179.991-.344.051-.032.105-.07.162-.111.198-.141.445-.316.795-.393a.986.986 0 0 1 .213-.022c.397 0 .757.217.858.284.052.034.513.356.514.961 0 .238-.07.495-.142.696-.033-.212-.109-.454-.284-.58a.753.753 0 0 0-.453-.156c-.129 0-.244.032-.347.062-.097-.12-.332-.367-.618-.327-.273.039-.516.171-.814.441-.227.206-.487.228-.649.242a.773.773 0 0 0-.103.012l-.03.007.036.162.03-.007a.554.554 0 0 1 .076-.008l.011-.001c.165-.014.472-.039.741-.284.273-.247.49-.367.725-.4.186-.026.381.146.496.307l.034.048.101-.029c.1-.03.204-.06.311-.06a.59.59 0 0 1 .356.125c.225.164.239.632.238.785l-.017.034-.014.027.028.015v.004l.01.001.108.057.014-.027.012-.022.022.001.001-.031.001-.019c.029-.061.073-.157.117-.275l.055.018a.25.25 0 0 0 .283.185.251.251 0 0 0 .21-.289.252.252 0 0 0-.402-.161l-.059-.019c.027-.096.049-.197.064-.3M31.345 20.405a.456.456 0 0 0-.217.101c-.097.086-.133.197-.09.284.039.079.134.12.248.107l.018-.002a.45.45 0 0 0 .121-.039.387.387 0 0 0 .169-.152c.039-.067.044-.136.016-.194-.041-.083-.145-.124-.265-.105M36.982 19.509c-.12.019-.207.091-.22.182-.009.064.018.127.075.18.054.048.127.08.209.091a.387.387 0 0 0 .184-.014c.092-.029.153-.093.163-.168.012-.087-.042-.174-.143-.227a.442.442 0 0 0-.268-.044"/>
        <path d="M35.981 19.227c-1.67 0-3.353.363-5.004 1.079a.073.073 0 0 0-.038.096c.016.036.06.054.097.038 1.632-.708 3.297-1.066 4.947-1.066a11.468 11.468 0 0 1 1.317.073.073.073 0 0 0 .061-.065.072.072 0 0 0-.064-.08c-.436-.05-.878-.075-1.316-.075zm-4.975 1.281a.137.137 0 0 1-.124-.081.136.136 0 0 1 .071-.178c1.658-.719 3.35-1.084 5.028-1.084.44 0 .885.025 1.323.075a.135.135 0 0 1 .006.268.115.115 0 0 1-.037 0 11.593 11.593 0 0 0-1.29-.073c-1.642 0-3.298.358-4.923 1.062a.14.14 0 0 1-.054.011zM31.896 17.642c-.06.265-.127.426-.071.607.054.183.338.643.461.811.028-.233.038-.79-.014-.956-.052-.167-.311-.346-.376-.462M35.669 17.048c.127.239.235.378.228.567-.005.191-.159.709-.234.903-.088-.218-.243-.753-.236-.927.007-.174.21-.415.242-.543M34.202 20.137c-1.866.297-3.064.849-3.012 1.178.053.33 1.363.483 3.229.187 1.867-.297 3.064-.849 3.012-1.178-.053-.33-1.362-.484-3.229-.187m.23 1.447c-1.574.25-3.247.223-3.324-.256-.076-.478 1.507-1.023 3.081-1.273s3.248-.223 3.324.256c.076.478-1.507 1.023-3.081 1.273"/>
        <path d="M37.298 19.292a.084.084 0 0 1 .074.092.086.086 0 0 1-.093.073l-.037-.003-.003.041.035.004c.012.001.023 0 .034-.001a.126.126 0 0 0 .105-.109.126.126 0 0 0-.11-.139l-.045-.004-.004.041.044.005M31.04 20.449a.085.085 0 0 1-.11-.043.083.083 0 0 1 .043-.11l.057-.024-.017-.038-.057.024a.124.124 0 0 0-.064.164.124.124 0 0 0 .164.065l.064-.026-.018-.038-.062.026"/>
        <path d="M37.415 18.221c.05-.181.114-.347.203-.495l-.658-.165a.919.919 0 0 1 .266.598l-.014.001a.233.233 0 0 0-.087.032.755.755 0 0 1-.363-.362 2.641 2.641 0 0 1-.151.718c.137-.085.257-.141.395-.15 0 .014 0 .028.002.042a.245.245 0 0 0 .092.154c-.108.225-.309.473-.688.446-.321-.022-.579-.236-.567-.555.004-.103.064-.229.222-.24.155-.011.204.231.172.331.184-.133.301-.699-.024-.727-.255-.022-.493.34-.537.585-.091-.272-.359-.612-.605-.557-.319.07-.136.614-.003.731-.009-.189.083-.373.179-.381.086-.008.218.116.229.287.019.299-.305.555-.615.604-.311.05-.61-.112-.76-.516a.26.26 0 0 0 .074-.123c.201.022.471.094.6.219a2.716 2.716 0 0 1-.128-.804c-.107.191-.337.3-.514.363a.25.25 0 0 0-.079-.069.882.882 0 0 1 .32-.552l-1.065.169c.226.083.347.25.433.425a.262.262 0 0 0-.059.095c-.186-.007-.43-.04-.585-.184.09.312.118.49.127.803.082-.154.307-.303.488-.387a.252.252 0 0 0 .111.091.758.758 0 0 1-.577.712c-.311.078-.727.032-.834-.302-.052-.163.137-.306.221-.324.094-.023.238.074.287.256.038-.239.038-.689-.287-.657-.25.024-.355.355-.357.641-.118-.219-.496-.452-.714-.318-.272.165.028.611.243.68-.062-.085-.12-.346.029-.384.154-.038.261.123.292.221.097.301-.114.569-.427.673-.412.135-.709-.04-.811-.279a.244.244 0 0 0 .02-.142.202.202 0 0 0-.009-.033c.176-.083.336-.07.535-.022a2.553 2.553 0 0 1-.365-.636c-.019.203-.138.373-.292.512a.193.193 0 0 0-.047-.019.907.907 0 0 1 .057-.685l-.574.361c.112.096.212.222.305.366a.246.246 0 0 0 .236.423c.087.174.17.359.256.542a13.178 13.178 0 0 1 3.11-.911 11.767 11.767 0 0 1 3.135-.077c.018-.218.039-.422.069-.612a.246.246 0 0 0 .166-.271.242.242 0 0 0-.078-.142"/>
        <path d="M34.162 19.57a12.852 12.852 0 0 0-3.042.891.519.519 0 0 0 .02.041l.016.036a.414.414 0 0 1 .086-.057c.137-.067.285-.046.331.047.045.093-.029.223-.166.291a.383.383 0 0 1-.125.036.625.625 0 0 1 .01.196c.775-.542 2.022-.787 2.912-.928 0 0 1.717-.387 3.034-.017-.01-.076-.018-.136-.021-.197a.372.372 0 0 1-.165.012c-.152-.021-.262-.122-.248-.224.014-.103.149-.169.3-.147a.38.38 0 0 1 .126.039l.006-.061.003-.033a11.502 11.502 0 0 0-3.077.075M50.514 25.867c.595.087 1.303.249 1.901.304.85.08 1.588.089 2.441.117 1.02-.133 1.565 1.243.912 2.108-.498.658-1.166 1.463-2.105 1.058-.171-.045-.296-.271-.61-.085-.521.458-.895.327-1.26-.056-.144-.083-.358-.166-.495-.119-.754.302-1.105-.048-1.471-.383-.59-.54-.808-1.156-.79-1.837.019-.76.411-1.043 1.477-1.107M51.739 31.079c-.464.077-.589.21-.812.522-.069.097-.339.032-.53-.025-.209-.062-.509-.124-.541-.363.023-.716.951-1.465 1.62-1.234.345.119.367.388.372.599.004.194-.01.534-.109.501M48.473 27.607c-1.194 0-1.488-.248-1.62-.916-.046-.235-.053-.528-.03-.888 1.213.059 1.563.213 1.477.895-.043.342-.041.456.173.909M52.691 32.686c-.085.5-.495.76-.886.706-.285-.039-.716-.455-.726-.718-.019-.451.308-.837.879-.8.497.031.839.199.733.812M56.335 28.509c1.057 0 1.317-.233 1.434-.859.041-.22.046-.494.026-.832-1.074.055-1.2.206-1.227.85-.025.587-.081.608-.233.841M46.733 34.288c-1.078-.303-1.406-.154-1.694.415-.103.201-.183.464-.253.795 1.109.254 1.279.145 1.481-.467.184-.559.298-.531.466-.743M56.943 34.931c.949-.267 1.238-.136 1.492.366a3 3 0 0 1 .223.699c-.978.225-1.127.129-1.305-.411-.162-.492-.162-.492-.41-.654M52.004 37.786c.734.7.77 1.026.459 1.514-.11.172-.277.356-.502.564-.712-.748-.705-.931-.321-1.371.351-.402.259-.411.364-.707M50.506 32.51c-.076.446.004.602.215.902.066.093-.077.319-.189.475-.122.172-.273.426-.497.38-.639-.243-1.022-1.321-.604-1.859.215-.278.466-.214.657-.153.177.057.479.175.418.255M53.233 31.921c-.123-.436-.262-.542-.581-.722-.1-.056-.067-.322-.033-.511.037-.207.064-.501.287-.556.681-.054 1.489.756 1.342 1.421-.076.344-.33.393-.528.42-.185.025-.508.047-.487-.052M51.473 33.962c.418.173.587.129.926-.01.106-.044.294.146.422.288.14.157.355.361.261.57-.379.57-1.514.705-1.947.179-.223-.273-.106-.503-.004-.675.095-.161.277-.429.342-.352M53.115 33.487c.303-.276.331-.435.345-.775.004-.106.233-.184.4-.231.184-.052.434-.147.572.018.328.55.006 1.55-.595 1.692-.311.074-.457-.119-.561-.275-.097-.145-.25-.407-.161-.429M45.39 32.002c.236-.424.568-.911.778-1.346.298-.62.506-1.176.76-1.813.16-.812 1.506-.809 2.082-.053.44.575.961 1.324.355 1.912-.086.116-.317.143-.24.436.258.533.044.776-.388.937-.112.084-.241.22-.237.339.059.661-.34.821-.731.997-.63.283-1.225.263-1.814.044-.657-.245-.797-.627-.565-1.453M57.505 34.391c-.614.063-1.186-.064-1.715-.489-.33-.264-.67-.514-.451-1.129.033-.111-.058-.273-.143-.38-.372-.259-.517-.543-.14-.986.146-.259-.068-.342-.12-.473-.434-.709.246-1.292.805-1.73.735-.576 2.016-.246 1.969.565.085.668.147 1.248.279 1.91.092.466.289 1.01.41 1.471.019.843-.209 1.171-.894 1.241M52.926 38.263c-.316-.447-.465-.942-.363-1.532.063-.367.111-.737.686-.831.101-.022.188-.161.235-.272.04-.398.199-.631.709-.53.265.001.237-.198.317-.295.366-.637 1.116-.363 1.701-.119.769.321 1.068 1.449.414 1.76-.484.352-.91.647-1.37 1.032-.323.271-.664.655-.971.946-.65.374-1.005.339-1.358-.159M46.786 35.371c.336-.481.78-.81 1.41-.923.392-.07.783-.156 1.086.388.059.094.231.132.36.138.416-.103.708-.028.791.522.096.268.286.167.413.212.775.136.77.992.737 1.669-.043.891-1.07 1.603-1.621 1.058-.53-.361-.982-.682-1.537-1.005-.39-.228-.901-.43-1.305-.635-.614-.518-.707-.889-.334-1.424M93.999 18.726c-.117.147-.285.2-.465.095-.215-.141-.067-.307.056-.451.255-.297.695-.458 1.421-.247.868.252-.451-.102-1.012.603m-4.784 2.319c-.125-.188-.781.615-.687.31.257-.626.424-1.142.681-1.606.117-.212.275-.298.543-.424.211-.005-.067.559.088.661l1.386 1.095c-.518.344-1.696.309-2.011-.036m12.336 4.507c-.028-.655-.718-1.166-1.45-1.244-.167-.018-.365-.01-.537-.064-.157-.049-.336-.174-.299-.46.43-.043.92-.041 1.242-.005.436.048.602.18 1.043.378-.138-.64-.85-1.17-1.585-1.122-.155.01-.322.033-.484.033-.194 0-.536-.033-.551-.429.478-.095.932-.179 1.294-.18.439-.001.66.067 1.121.215-.209-.621-.903-1.034-1.628-.905-.165.029-.34.046-.532.088-.177.038-.461.097-.559-.236l-.001-.006c.494-.16.858-.322 1.239-.372.436-.056.727-.006 1.202.083-.286-.59-1.005-.929-1.708-.709-.163.052-.332.093-.527.157-.167.055-.442.16-.562-.204.461-.236.713-.379 1.055-.485.409-.128.749-.178 1.212-.047-.352-.552-1.104-.779-1.776-.478-.161.071-.338.164-.533.241-.159.063-.363.075-.501-.155l-.005-.012c.299-.208.577-.406.835-.511.406-.166.751-.233 1.234-.269-.428-.497-1.224-.473-1.89-.102-.069.038-.156.079-.264.136-.17.088-.444.154-.604-.1.61-.536 1.388-.692 1.754-.675-.001-.035-.562-.33-1.022-.119a.527.527 0 0 0-.198-.432c-.001.37-.524.741-.854.99-.601.453-1.227.853-2.021 1.005-.364.069-.55.007-.647-.112-.119-.158-.019-.38.284-.388.659-.019 1.058-.493 1.524-.832.185-.135.302-.293.606-.303-1.583-.262-2.51-.76-3.528.489-.198-.553.046-.847.351-1.061.32-.224.709-.349 1.036-.564.527-.345.695-1.087.393-1.52-.286.252-.156.457-.492.993-.279.387-.514.428-.674.363.049-.166.271-.541.345-.754.111-.324.124-.311.165-.69 0-.006.061-.68-.196-.731-.182.226-.216.278-.371.669-.15.379-.546 1.442-.968 1.259.113-.362.14-.395.251-.751.08-.255.115-.512.143-.848.014-.165.033-.507-.193-.646-.104.11-.399.618-.448.749-.213.564-.279.664-.506 1.332-1.618-1.039-3.101-1.936-4.524-2.921-1.47-1.017-2.897-2.094-4.547-2.821.644.719 1.38 1.234 2.033 1.841.335.31.555.452.757.467.423.032.554.18.663.278.247.171-.132.169-.41.179.251.2.38.407.594.41.837.008.804.115.896.185.456.34-.288.208-.494.239.165.234.46.432.637.455.305.042.676-.069.85.122.398.28-.095.205-.514.242.304.287.504.543.903.534.472-.009.596-.109.922.154.547.37-.38.301-.843.316.353.35.516.49.764.486.386-.007.919-.115 1.151.093.297.267-.224.309-.936.298.162.444.134.777-.484 1.259-.459.357-.753.843-.833 1.355-.18 1.149-.84 2.077-1.578 2.8-.698.684-1.151 1.185-1.113 2.267.01.298.133.785.337.869.283.116.702-.024 1.038-.133.406-.131.787-.343 1.178-.52.081-.062.197-.031.157.171-.087.483-.186.965-.253 1.451-.01.067-.028.256-.033.337-.002.029.08.066.122.086.525.241 1.409-.297 1.501-.93.094-.642 1.059-1.676 1.606-1.714 1.258-.086 2.292-.594 2.998-1.674.074-.113.097-.26.144-.39.026-.156.157-.156.168.042-.018.208-.021.42-.058.625-.154.842-.808 1.245-1.451 1.67-.229.151-.532.382-.56.606-.093.743-.319 1.371-.811 1.965-.328.396-.892 1.006-1.294 1.235.201-.02-.072.761-.069.76.301-.19.571-.165.726.15-.046-.591 1.369-1.025 1.328-.961-.103.481.077 1.373-.162 1.645.301.008.433.008.525.432.065-.323.263-.579.51-.386.726.441 1.325 1.013 1.823 1.406.146.116.077.425-.294.486.624.22 1.991-.109 1.991-.109s.141.789-.091.998c.413.317.947.578 1.205.865.294.326.54.633.657 1.135.322-.57-.066-1.382-.647-1.836-.261-.203-.521-.409-.369-.903.359.262.67.495.893.742.294.327.563.653.671 1.07.322-.57-.081-1.316-.661-1.77-.264-.206-.639-.396-.474-.906l.023-.046c.356.259.711.487.931.732.294.327.567.531.694 1.027.323-.57-.103-1.274-.683-1.727-.265-.206-.612-.44-.446-.949.351.229.694.432.915.656.309.312.551.558.697.991.296-.584-.119-1.266-.72-1.691a3.628 3.628 0 0 1-.409-.357c-.041-.041-.294-.179-.15-.617.365.225.723.422.956.644.317.304.601.6.749 1.017.279-.593-.178-1.307-.791-1.716-.128-.085-.288-.163-.412-.273-.148-.131-.409-.218-.336-.697.401.186.793.34 1.058.539.352.263.688.502.88.872.206-.622-.348-1.229-1.006-1.561-.146-.075-.329-.137-.47-.243-.148-.11-.299-.214-.297-.643.384.103.821.274 1.088.412.389.203.74.405 1.003.761.102-.647-.537-1.199-1.24-1.42-.144-.045-.313-.141-.462-.21-.142-.066-.329-.329-.318-.56.396.065.898.177 1.179.288.408.163.653.312 1.025.621.037-.654-.605-1.103-1.326-1.253-.131-.027-.282-.04-.421-.079-.139-.026-.422-.252-.384-.573l-.001-.001c.421.028.822.036 1.126.124.422.122.687.251 1.088.521"/>
        <path d="M95.848 17.144c.255.018.533-.15.611-.327.085-.191.065-.583-.018-.664-.021-.019-.13-.047-.241.116-.187.275-.11.495-.139.618-.028.124-.213.257-.213.257M97.215 16.687c.066.049.067.277-.046.393-.114.116-.263.198-.52.126.264-.122.169-.286.339-.422 0 0 .175-.143.227-.097M94.929 17.035c.288 0 .634-.198.727-.431.101-.255.062-.794-.021-.881-.021-.017-.155-.062-.287.154-.224.363-.131.655-.165.818-.034.164-.254.34-.254.34M60.84 66.614h.019v-.02h-.019z"/>
        <path d="M60.853 66.604a.047.047 0 0 1 .005-.01h-.001l-.017.019.013-.009M52.81 84.985c.325.146.77.36 1.098.502.194.084.394.157.591.236 2.215.891 4.52 1.457 6.871 1.824 2.286.356 4.595.414 6.9.235 2.127-.165 3.903-.722 5.913-1.405a14.166 14.166 0 0 0 2.396-1.075c.383-.204.756-.469 1.175-.686.115.356.144.619-.242.843-.401.232-.661.373-1.081.568-1.024.476-1.994.916-3.146 1.252-1.04.305-1.769.511-2.62.662a20.7 20.7 0 0 1-3.061.332 34.605 34.605 0 0 1-5.393-.16c-1.673-.213-3.25-.537-4.925-.97-.691-.179-1.696-.53-2.365-.785-.633-.266-.967-.442-1.611-.723-.197-.103-.266-.137-.416-.287-.097-.097-.124-.282-.084-.363M79.793 86.853c-.27.173-.592.393-.864.562-1.272.793-2.678 1.292-4.074 1.806-.713.262-1.451.466-2.184.674-1.507.405-2.233.537-4.301.74-.741.073-1.974-.1-3.163-.386 2.635.028 4.854-.23 6.249-.551 1.92-.44 3.821-1.015 5.586-1.935a10.978 10.978 0 0 0 1.712-1.097c.304-.306.856-.051 1.039.187M52.376 87.886c-.849-.587-1.449-1.526-1.505-1.591.566.17 1.246.65 1.921 1.128.762.445 1.053.614 1.971.942 1.088.389 1.894.61 3.008.906 1.534.41 1.457.356 3.008.705.706.132 1.684.225 3.058.277-1.846.337-3.237.147-4.551-.091-.924-.168-2.448-.398-3.586-.777-1.946-.65-2.474-.911-3.324-1.499"/>
        <path d="M83.968 84.47c-2.84 3.886-5.839 5.016-8.703 5.759-1.807.469-4.113.699-4.894.732 2.131-.412 4.104-.97 5.609-1.605 1.532-.645 2.446-1.051 3.757-1.984.105-.099.287-.222.491-.137.661.275 2.907-1.828 3.74-2.765M61.199 91.535c-.421-.052-1.734-.514-1.917-.765 1.844.409 3.532.408 5.258.454.228.015 1.055-.029 1.276-.037.638-.027 1.567.355 2.11.382-.556.152-2.713.281-3.393.23-.004.037-1.845-.072-3.334-.264M77.373 84.069a36.824 36.824 0 0 1-3.595 1.735c-.178.084-.483.167-.682.12-.251-.075-.326-.279-.259-.513.332-.106.556-.197.851-.302 1.226-.432 1.915-.765 3.119-1.261.116-.048.615-.355.888-.496.012.489-.201.657-.322.717M77.455 82.852c-.17.116-.787.411-.969.504-.913.431-1.029.453-1.93.868-.328.151-1.588.605-1.437-.024 1.571-.664 3.1-1.251 4.629-1.897.019.205.006.415-.293.549M81.158 78.892c1.336-.29 3.343-.353 4.664-.241.009.46.01.683-.015 1.064-1.413-.204-3.31-.4-4.67-.595-.137-.019-.091-.21.021-.228M83.645 81.244c.949.093 1.574 0 1.258.811-.051.131-.218.553-.263.687-.215.642-.649.61-1.234.566.066-.69.173-1.38.239-2.064M76.78 81.62c.001.301-.46.503-1.148.808-.451.206-.994.478-1.404.538-.271.039-.561.118-.677-.176a37.004 37.004 0 0 0 3.091-1.308c.137-.075.137.02.138.138M79.198 83.573l4.323.605c-.025.174-.053.297-.328.25-.735-.094-1.716-.216-2.449-.322-.388-.056-.869-.115-1.255-.175-.246-.038-.29-.175-.291-.358M80.432 79.789c.276-.039.614-.071.91-.031 1.059.144 3.148.327 4.202.502-.078.212-.078.212-.186.397-1.451-.204-3.446-.474-4.897-.678-.153-.024-.151-.167-.029-.19M82.467 81.969c-.254-.248-.482-.509.073-.862-.868-.119-1.544-.234-2.262-.338-.555-.085-.828-.014-.895.525-.057.46-.084.927-.144 1.442l.636.093c-.002-.51-.035-.952.008-1.386.022-.224-.015-.564.376-.586.615.205.672.686.62 1.231a1.54 1.54 0 0 0 .03.507c.027.109.18.325.267.344.381.082.662.133 1.209.21-.677-.52-.272-.876.082-1.18M63.118 85.925l-3.238-.595c-.002-.436.987-.23 1.721-.09.835.161 1.516.305 1.517.685M57.813 86.034c-.942-.187-1.886-.549-2.711-.833-.002-.652 2.748.195 2.711.833M60.441 86.229l2.524.443c.001.382-.934.279-1.446.186-.513-.092-1.218-.267-1.078-.629M57.425 84.289c-.353.392-.825.288-1.299.21-.079-.013-.647-.163-.586-.471.022-.113.24-.144.348-.123.256.048.498.162.751.228.241.063.49.098.786.156"/>
        <path d="M82.12 85.499c-.507-.074-.86-.113-1.372-.195-.147-.03-.148-.13-.148-.342.517.061 1.164.191 1.681.252.001.192-.075.285-.161.285M83.752 74.648c-.618-.226-1.493.299-2.214.917-.721.618-.904.35-1.988-.062-1.083-.412-2.36 1.269-2.36 1.269s-.328-2.736.166-3.961c.536-.639 2.335-1.736 2.534-.446.165 1.066 1.113 1.276 1.524 1.326 1.102.134 2.338-1.009 2.338-1.009s.034 1.426 0 1.966zm-.016 2.124c.005.175-.039.5-.231.5H81.62c-.525 0-1.128.203-1.39.327-.57.27-1.031.572-1.888 1.003-.312.158-.414.199-.729.338-.133.06-.31.154-.482.229.624-1.282 1.585-2.562 2.476-2.675.394-.05.836.381 1.21.363.662-.032 1.209-.532 1.606-.896.634-.581 1.247-.51 1.298-.371.04.111 0 .557.015 1.182zm-8.359 3.452c-.593.227-.73.242-.85-.029a286.187 286.187 0 0 1-2.385-5.551c-.3-.733.178-.801.342-.521.503.861 3.369 4.989 3.535 5.201.388.494-.225.74-.642.9zm-1.246.326c-.087.21-.544.344-.691.392-.345.116-.381-.179-.61-1.003-.393-1.411-.741-2.833-1.095-4.254-.081-.326-.123-.661-.183-.993-.077-.303.132-.351.247-.096.201.355 2.095 5.001 2.242 5.383.083.217.149.426.09.571zm-2.089.857c-.118.037-.257.001-.275-.456a495.77 495.77 0 0 1-.142-4.487c-.002-.053.309 1.216.405 1.598.15.548.667 2.481.705 2.883.026.269-.281.333-.693.462zm-.628-9.524c-.012-.183.138-.424.32-.67.427-.575.912-1.109 1.442-1.713.064-.072.117-.018.135.02.339.743.657 1.395.931 2.065.201.495-.082.901-.589.896a16.925 16.925 0 0 1-1.369-.064c-.503-.048-.85-.229-.87-.534zm-.266-6.533c-.005-.118.041-.65.206-.258.076.128 1.162 2.666 1.538 3.544.14.327.104.553-.171.885-.386.466-.726.83-1.089 1.23-.175.209-.246.115-.251-.132-.038-.56-.187-4.291-.233-5.269zm-.321 20.808c-.225.027-.387-.001-.446-.372-.058-.295.037-.503.389-.504.238-.06.296.216.335.454.02.223-.132.409-.278.422zm-1.409-1.922c-.923.138-1.378-.022-1.662-.605l2.998-.615c-.007.602-.524 1.098-1.336 1.22zm-1.848-1.94c-.221-.946-2.11-7.939-2.106-8.495.002-.176.19-.42.561-.627.284-.199.378.325.432.489.439 1.36.855 2.728 1.274 4.095.21.684.381 1.386.584 2.061.066.218.052.37-.017.628-.048.182-.399 1.49-.499 1.718-.075.173-.224.219-.229.131zm-.654.946c-.338.027-.78-.018-1.115-.022-.275-.002-.335-.307-.356-.569a171.11 171.11 0 0 1-.171-4.334c-.016-.854-.029-1.618-.088-2.47-.012-.173-.109-1.188.037-1.188.14-.041.358.953.382 1.046.249.967.48 1.938.72 2.907.325 1.321.656 2.64.955 3.965.112.498.13.624-.364.665zM65.004 71.65c-.011-.977-.078-2.644-.132-3.836-.062-1.395.025-1.215.236-.462.233.705.8 2.826.989 3.451.074.247.256.732.068.805-.264.104-.633.185-.875.278-.171.065-.275-.009-.286-.236zm-.304-8.501c-.029-.59-.073-1.134-.078-1.718-.006-.638-.018-.807.113-.575.53.844.996 1.585 1.443 2.338.229.387-.133.364-.272.38-.27.031-.575.077-.791.078-.371.001-.393-.035-.415-.503zm.768 3.314c.123.178 1.856 2.746 2.642 4.146.122.218-.115.372-.291.437-.304.113-.354.092-.664.207-.421.156-.617-.181-.736-.629-.141-.535-1.175-3.889-1.148-4.091.028-.236.108-.198.197-.07zm2.987 4.664c.274-.189.385-.099.384-.421-.001-.2-.321-.045-.173-.287l.35-.757c.392-.768.859-1.696 1.125-2.288.107-.236.114-.136.079.114-.015.111-.715 4.344-.784 4.495-.07.15-.12.472-.905.653-.284.066-.658.198-.939.272-.112.029-.046-.062-.046-.062s.716-1.586.909-1.719zm2.442-5.033c.018.335.067 4.455.07 5.19.001.317-.385.616-.638.831-.221.187-.67.046-.586-.247 0 0 .971-5.569 1.065-6.084.034-.212.091-.091.089.31zm-.413 8.346c.104-.4.3-.279.213.104-.109.636-1.29 7.114-1.527 8.07-.085.35-.616.485-1.092.532-.183.018-.183.018-.112-.224.713-2.411 1.854-6.233 2.518-8.482zM67.2 73.224c.104-.03.372-.022.454.012.663.212 1.22.361 1.851.642.244.109.636.192.518.724-.282 1.288-.699 2.546-1.101 3.803-.037.118-.118.409-.192.679-.044.16-.151.419-.304-.097a388.852 388.852 0 0 0-1.663-5.465c-.178-.478-.112-.731.419-1.012.183-.096.12-.053.296-.162 0 0-.196.465-.329.639-.03.04-.058.061-.078.066-.301.071-.131.243.129.171zm3.838 6.972c-.003.558.026 1.085.018 1.657-.01.631-.124.717-.529.817-.31.076-.695.237-.88.124-.131-.081-.107-.321-.068-.543.171-.994 1.123-6.155 1.261-6.936.024-.187.122-.524.14-.274.002.655.064 4.085.058 5.155zm-6.546 2.57c-.005.273-.084.41-.28.411-.065 0-1.131.004-1.313-.186-.183-.19-.149-.406-.096-.764.032-.219.095-.463.172-.723.309-1.053 1.165-4.527 1.374-5.366.044-.191.114-.153.085.24.02.406.008.885.011 1.292.011 1.271-.005 2.506.042 3.77.016.443.012.884.005 1.326zm-2.206-.118c-.065.181-.113.307-.255.315-.238.015-.724.006-.777-.145-.063-.18.003-.344.079-.56.169-.483 2.212-7.422 2.371-7.86.051-.144.102-.754.475-.735.485.007.276.435.267.579-.025.398-.249 1.243-.344 1.631-.348 1.417-.717 2.829-1.077 4.243-.141.553-.296 1.096-.451 1.645-.084.299-.206.66-.288.887zm-1.553.194a1.19 1.19 0 0 1-.364-.066c-.114-.035-.144-.191-.173-.306-.348-1.42-1.173-4.591-1.321-5.298-.088-.424-.241-.716.21-.911a22.938 22.938 0 0 0 1.921-.946c.127-.072.331-.207.335-.299.014-.282-.307-.096-.37-.206-.193-.34-.383-.682-.588-1.031-.061-.103-.052-.141.063-.146a32.255 32.255 0 0 1 2.566.001c.519.018.477.441.393.776-.242.969-1.984 6.859-2.152 7.351-.115.336-.341 1.088-.52 1.081zm-.925-.078c-.222-.014-.468-.02-.554-.12a.301.301 0 0 1-.058-.099c-.025-.071-.038-.159-.05-.222-.073-.364-.536-4.197-.668-5.275-.022-.15.106-.187.157-.029.192.603 1.244 5.002 1.343 5.631.019.12-.086.119-.17.114zm-1.065-.151a1.981 1.981 0 0 1-.356-.052c-.148-.041-.316-.067-.38-.198-.045-.09-.04-.613-.045-.736-.051-1.276-.12-2.484-.18-3.748-.006-.116-.054-.557.039-.735.071-.137.154-.126.214-.13.314-.008.319.674.348.813.112.543.504 4.376.512 4.544.009.205.016.256-.152.242zm-1.118-7.975c-.019-.392.025-.574.193-.667a.8.8 0 0 1 .267-.078c.068-.01.211.069.248.171.059.156.098.464.098.637.001.278-.017.348-.346.43-.205.051-.424.248-.46-.493zm-.165-3.435c-.003-.063-.04-.892-.041-.995 0-.216.256-.107.311.049.065.183.409 2.399.484 3.094.012.11.057.265-.15.252-.076-.003-.157.015-.303.017-.263.004-.216-.472-.229-.874a66.36 66.36 0 0 0-.072-1.543zm-.215-4.849c-.018-.562-.049-1.29-.064-1.853-.002-.083.001-.177-.001-.274-.005-.276.063-.104.104-.05.201.265.651.972.861 1.318.252.417.462.705.675 1.143.13.266.015.424-.283.442-.086.005-.17.021-.255.027-.992.073-1.008.239-1.037-.753zm-.176 15.198c-.009.234-.003.576-.209.572-.099-.001-.368-.095-.617-.188-.129-.085-.182-.147-.125-.294.255-.667.411-1.273.622-1.914.039-.133.131-.469.165-.537.123-.247.147.157.144.428.007.487.04 1.436.02 1.933zm-1.502 1.43c-.38-.207-.424-.552-.169-.901.441.15.882.299 1.349.459-.24.57-.651.73-1.18.442zm-.398-1.614c-.065-.208.175-.554.305-.851l.012-.005.495-1.006c.075-.114.39-.782.477-.975.04-.089.168-.42.197-.491.26-.637.317.106.265.293-.023.082-.67 2.356-.832 2.794-.072.195-.201.6-.372.546-.173-.055-.496-.146-.547-.305zm-1.147-.105c-.228-.077.02-.326.065-.443.114-.297.285-.619.427-.879l1.148-2.415c.148-.218.214-.47.505-.404.455.104.446.351.312.757-.148.449-.413 1.004-.627 1.486l-.648 1.252c-.082.149-.166.29-.253.403-.201.564-.733.308-.929.243zm-1.389-.392c-.198-.064-.421-.167-.683-.281-.247-.107-.282-.449-.296-.648-.065-.911-.066-1.326-.16-2.244-.033-.317-.18-.426-.428-.426-1.075 0-1.862.019-2.935 0-.393-.007-1.668 0-2.07 0-.222 0 .564-.538.648-.579 1.053-.606 3.836-2.124 4.645-2.652.856-.56 1.953-1.516 2.792-2.288.779-.717 1.284-1.293 1.679-1.694.313-.41.448-.03.38.167-.162.429-.141.42-.263.681-.221.475-.472.941-.688 1.415-.439.966-1.85 3.061-1.902 3.18-.059.136-.65-.013-.291.394.1.114.768.163.936.21.574.161 1.546.267 1.584.657.028.283-.226.911-.225.912 0 0-1.208 2.387-1.652 3.115-.177.289-.238.351-1.071.081zm-2.113-.759c-.414-.142-.842-.521-1.616-1.17-.479-.4-1.332-1.337-.944-1.346 1.269-.029 1.837.018 2.612.018.649 0 .601.195.659.584.066.441.021 1.089.052 1.53.031.45-.34.564-.763.384zm.176 3.787c-.17.087-.407-.254-.572-.446-.309-.36-.399-.759-.613-1.413-.35-1.07-.627-2.334.034-1.926.408.252.393.224.698.45.32.277.326.842.348.959.136.713.159 1.054.182 1.76.012.358.078.535-.077.616zm-2.765-2.269c-.635-.545-2.044-1.832-2.951-2.672-.163-.151-.971-.886-.895-1.192.103-.256.416-.164 1.05-.167 1.082-.006.34-.011 1.082-.006.864.006 1.133.452 1.341.702.032.039.057.074.079.1.293.354.516.7.741 1.419.194.617 1.11 3.155-.447 1.816zm8.109-14.392c-.54.059-.517-.283-.447-.48.278-.79.633-1.553.959-2.326.072-.193.158-.222.158-.032.002.498.03 2.112.027 2.223-.017.653-.254.566-.697.615zm.824 3.603c.03.391.012 1.461.013 1.757l.003.821c0 .091.012.265-.099.298-.133.04-.37-.054-.473-.081-.345-.092-.565-.138-.89-.304-.315-.162-.044-.49.017-.639.287-.704.489-1.19.812-1.878.076-.164.226-.691.434-.564.183.138.171.436.183.59zm-.794 4.616c-.136.154-.265.191-.359.196-.737.04-1.263.059-1.599.006-.338-.053-.434-.194-.173-.532.075-.098.327-.455.464-.678.136-.222.27-.496.476-.76.06-.077.066-.146.136-.162.133-.028.31.062.423.099.368.118.626.173 1.201.397.29.112-.021.5-.179.79-.143.264-.268.505-.39.644zm.774-.021c-.177.055-.333.136-.4.085-.107-.085.032-.236.141-.404.119-.182.043-.062.164-.248.086-.132.178-.045.179.121 0 .166.066.398-.084.446zm3.511-1.038c.21.324.329.443-.1.459-.299.011-.862-.002-1.156.033-.324.038-.394-.184-.439-.558-.01-.084-.481-3.311-.558-3.99-.058-.286.157-.267.257-.001.362.965 1.711 3.616 1.996 4.057zm-1.298-5.935c.389-.287.559.032.768.288.525.642 1.06 1.275 1.568 1.931.088.114.132.352.074.475a30.889 30.889 0 0 1-.943 1.838c-.155.281-.393.195-.567-.118-.398-.718-1.418-2.921-1.498-3.255-.037-.154-.044-.236.029-.386.086-.175.338-.603.569-.773zm1.917-1.055c.266-.105.045-.196-.409-.224-.19-.011-.057-.073.054-.163.202-.165 1.358-1.14 1.538-1.288.194-.159.761-.598 1.025-.525.253.07.147.266.122.398-.025.14-1.166 3.903-1.465 4.626-.08.195-.197.164-.253.098-.57-.675-1.095-1.262-1.541-2.065-.193-.349.246-.6.929-.857zm1.968-3.435l1.138-2.771c.168-.489.264-.194.269-.015.03.485.023 2.215.023 2.373.001.171-.149.3-.306.372-.278.128-.613.288-1.003.368-.134.027-.246-.065-.121-.327zm.037 8.48c-.72.227-1.164.318-1.72.458-.351.127-.311-.046-.193-.25.221-.457.334-.699.611-1.265.057-.118.141-.246.234-.179.38.276.696.561 1.091.908.204.179.051.305-.023.328zm-.803-1.58c-.144-.131-.1-.35.034-.682.064-.159 1.319-4.215 1.417-4.408.106-.317.242-.554.199.145-.009.138-.32 4.566-.36 5.035-.016.194-.001.866-.217.759-.161-.07-.897-.691-1.073-.849zm1.936 1.203c-.221-.03-.355.149-.285-.729.087-1.103.321-4.972.337-5.355.056-.642.167-.583.186.267.003.167.031 4.099.056 5.072-.005.165.137.768-.294.745zm22.702 5.196c-.485.002-1.778 0-2.546 0-.346 0-.265-.279-.261-.497.015-.887.006-5.511.006-5.909h-.247c-.022.319-.03.818-.03 1.158 0 .291-1.822 1.582-2.599 1.117-.352-.212-.332-.44-.361-.739-.053-.556-.295-1.042-.814-1.252-.733-.297-2.377.559-2.883 1.215-.498.645-.5 5.569-.217 6.902a.419.419 0 0 1-.195.012c-.257-.065-.473-.465-.734-.863-.024-.037-1.347-1.795-1.405-1.888-.412-.656-1.022-1.547-1.457-2.187-.461-.679.11-.727.833-.988.613-.223.924-.552 1.526-.556.778-.004.528-.266.317-.253-.575-.01-.725-.349-.828-.58-.322-.731-.968-2.044-1.258-2.688-.02-.045-.262-.455-.438-.856-.46-1.04-.998-2.292-1.498-3.312-.345-.702-.685-1.359-.649-2.143.016-.338.015-.926-.006-1.15-.983-.274-1.113-.079-1.809.48-.361.29-1.122.252-1.356.067.149.442.675.637.825.688.686.23.973-.034 1.708-.15.201-.032.443-.076.443.08.001.107.014.257.002.435-.077 1.15-.437 2.181-.818 3.264-.381 1.082-.929 2.108-1.421 3.149-.128.27-.222.588-.421.324-.318-.422-2.737-4.218-2.857-4.773-.075-.349.354-.359.677-.444.862-.228.913-1.045 1.65-1.292.19-.092.076-.287-.305-.238-.786.101-1.14-.586-1.451-1.075a24.602 24.602 0 0 1-1.313-2.313c-.102-.21-.078-.512-.074-.786.004-.268.011-.247.033-.67-.35.311-.974.233-1.321.549-.501.455-.451 1.843-1.643.816.161.214.294.87 1.134.859.434-.005.77-.107 1.111-.615.23-.344.497-.376.374-.109-.026.057-.638 1.648-.884 2.205-.31.703-.594 1.454-.979 1.971-.13.174-.171.302-.515.386-.072.017-.418.023-.417.118 0 .115.046.062.312.108.783.134.362.678-.224 1.074-.021.014-.978.821-.978.821-.514.399-.798.494-1.197-.001-.622-.77-1.122-1.694-1.673-2.52-.495-.741-.645-1.554-.621-2.471.015-.526-.011-.856-.014-1.523-.772.084-1.177.555-1.596.948-.485.454-.663 1.054-1.359 1.117.497.414 1.23.188 1.999-.424.233-.185.592-.251.61.283.008.234.026.439.013.68-.017.332-.035.423-.094.602-.237.719-.549 1.324-.883 2.109-.26.609-.515 1.357-.922 1.676-.174.136-.386.272-.663.291-.546.038-.405.275-.322.277.579.159 1.05.283 1.518.421.532.156.902.857.66 1.262a4.4 4.4 0 0 1-.16.242c-.165.215-.989 1.13-2.008 2.056-.899.817-1.968 1.638-2.616 2.062-.846.553-3.364 1.856-4.239 2.366-.655.383-1.448 1.075-2.083 1.075-.159 0-.305-.214-.294-.602.032-1.095.069-3.286.06-5.804-.572 0-.501.587-1.113.661-.446.055-.529.205-.541.355-.054.652-.054 1.035-.062 1.297.122.018.292-.079.386-.144.63-.434.547-.232 1.085-.333.019.745-.008 3.309-.046 4.07-.009.169-.062.5-.386.5h-2.046c-.151-.011-.148.265.146.357.207.055.482.03.711.047.308.022.573.263.661.358 1.223 1.308 3.626 3.487 4.147 3.907.339.274.717.561 1.097 1.061.376.494 1.488 2.306 1.75 2.501l-.002.001a.036.036 0 0 0 .009.004.1.1 0 0 0 .019.011l.003-.002c.642.232 1.186.66 1.794.959.956.47 1.907.938 2.893 1.319.823.317 1.576.537 2.429.772 1.095.302 2.293.677 3.413.836 1.361.193 2.071.275 3.109.286a43.972 43.972 0 0 0 4.372-.148c1.2-.107 2.391-.354 3.575-.596.78-.16 1.557-.376 2.304-.65.694-.255 1.321-.55 1.991-.869.635-.301 1.747-1.032 2.356-1.379-.141-.244-.563-.329-.891-.092-.669.389-.792.541-1.882 1.029-.996.446-1.942.9-2.99 1.159-1.544.38-2.902.641-4.75.899-1.92.158-3.825.165-5.657.003-2.035-.228-3.264-.55-5.21-1.106-.831-.196-1.649-.497-2.439-.819-.891-.363-1.906-.889-2.434-1.304-.755-.592-.981-1.416-.942-3.184.01-.479.198-.681.46-.609.159.043.318.092.476.142.548.173 1.272.438 1.811.637a28.032 28.032 0 0 0 4.908 1.328 15.05 15.05 0 0 0 1.896.238c.008-.19.07-.321-.03-.387-.116-.076-.529-.074-.511-.389 0-.175.456-.174.609-.168.413.017.687.057 1.123.104.143.047.062.756.043.967.659.026 1.268.064 1.974.061.241-.001.68-.032.702.205.019.224-.029.174-1.009.219-.109.005-.1.147.008.145.129-.004.507.085.612.177.291.288.235.656.223 1.103-.017.707.402.66.945.682 1.142.048 2.027-.046 2.827-.109.372-.072.447-.302.437-.539-.961.003-2.923.228-2.989.107-.153-.046-.119-.135-.145-.296-.019-.163.126-.158.6-.174.62-.022 1.009-.081 1.599-.098.457-.012.59-.157.584-.385l-2.867.01c-.128.003.014-.521.271-.522 2.095-.008 2.193-.239 3.224-.297.253-.014.765.146.765.614.002 1.177.415 1.086.757 1.026.067-.011.648.043.543-.755-.015-.455-.25-1.019-.026-1.324.273-.374.873-.504 1.425-.752.453-.204.271-.323.169-.57-.125-.304.046-.514.322-.608a41.489 41.489 0 0 0 2.042-.77c.291-.116.729-.298 1.01-.422.649-.286.665-.622 1.063.171.032.063.043.136.097.319.319-.204.794-.352.814-.547.086-.826.618-1.365 1.086-1.94.453-.555.988-1.275 1.796-1.333.27-.019 5.194.02 5.601-.001.162-.263.412-.622.041-.62z"/>
    </g>
</svg>
