<?xml version="1.0" encoding="UTF-8"?>
<svg width="180px" height="61px" viewBox="0 0 180 61" version="1.1" xmlns="http://www.w3.org/2000/svg" xmlns:xlink="http://www.w3.org/1999/xlink">
    <!-- Generator: Sketch 47.1 (45422) - http://www.bohemiancoding.com/sketch -->
    <title>Page 1</title>
    <desc>Created with Sketch.</desc>
    <defs></defs>
    <g id="Prototype" stroke="none" stroke-width="1" fill="none" fill-rule="evenodd">
        <g id="Great.gov-int---landing-page---2" transform="translate(-1050.000000, -65.000000)">
            <g id="Page-1" transform="translate(1050.000000, 65.000000)">
                <polygon id="Fill-1" fill="#FEFEFE" points="163.753912 46.5539158 179.756757 46.5539158 179.756757 -0.000321052632 163.753912 -0.000321052632"></polygon>
                <polygon id="Fill-2" fill="#ED2D24" points="0.0112019915 46.5603368 159.922831 46.5603368 159.922831 0.00128421053 0.0112019915 0.00128421053"></polygon>
                <g id="Group-71" transform="translate(0.000000, -0.000321)">
                    <path d="M27.804143,27.9160079 L22.4191856,27.9160079 L22.4191856,21.6554816 L34.475729,21.6554816 L34.475729,26.0506921 L34.475729,27.0555868 C34.475729,35.6565868 28.8043208,40.5349816 21.0861486,40.5349816 C12.3661984,40.5349816 6.50435633,33.8426395 6.50435633,23.2784026 C6.50435633,13.1010342 12.6046408,6.02503421 21.324591,6.02503421 C28.1386024,6.02503421 31.7584459,9.22592895 33.9508357,14.3900605 L27.6137091,17.0194816 C26.3750889,14.5313237 24.8516181,12.6676132 21.228574,12.6676132 C16.2260846,12.6676132 13.3679765,17.0660342 13.3679765,23.2784026 C13.3679765,29.4458237 16.2708926,33.9855079 21.2749822,33.9855079 C26.7783606,33.9855079 27.5913051,30.5502447 27.804143,28.9209026 C27.8425498,28.4987184 27.8681543,28.2755868 27.8649538,27.9160079 L27.804143,27.9160079 Z" id="Fill-3" fill="#FEFEFE"></path>
                    <polygon id="Fill-5" fill="#FEFEFE" points="72.0940967 40.0118263 72.0940967 6.55011579 95.2518137 6.55011579 95.2518137 13.0995895 78.7624822 13.0995895 78.7624822 20.0295105 91.1310811 20.0295105 91.1310811 26.5308263 78.7624822 26.5308263 78.7624822 33.4607474 95.2518137 33.4607474 95.2518137 40.0118263"></polygon>
                    <path d="M123.119488,40.0118263 L130.456792,40.0118263 L117.784139,6.55011579 L111.302987,6.55011579 L98.5327169,40.0118263 L105.677987,40.0118263 C105.677987,40.0118263 106.767781,36.9088526 108.179232,32.8876684 L120.619844,32.8876684 C122.029694,36.9088526 123.119488,40.0118263 123.119488,40.0118263 L123.119488,40.0118263 Z M110.402027,26.5308263 C112.375178,20.8867211 114.24591,15.4898263 114.401138,14.9151421 C114.553165,15.4898263 116.425498,20.8867211 118.395448,26.5308263 L110.402027,26.5308263 Z" id="Fill-7" fill="#FEFEFE"></path>
                    <polygon id="Fill-9" fill="#FEFEFE" points="143.848293 13.1456605 143.848293 40.0097395 137.178307 40.0097395 137.178307 13.1456605 127.600605 13.1456605 127.600605 6.55123947 153.429196 6.55123947 153.429196 13.1456605"></polygon>
                    <path d="M55.4192923,21.6548395 L46.6993421,21.6548395 L46.6993421,13.0506289 L55.4192923,13.0506289 C58.3734175,13.0506289 60.1833393,14.2931026 60.1833393,17.3029711 C60.1833393,20.2197342 58.5174431,21.6548395 55.4192923,21.6548395 M67.0469595,17.1617079 C67.0469595,10.0391553 61.852436,6.55091842 55.5617176,6.55091842 L40.0293563,6.55091842 L40.0293563,40.0126289 L46.6993421,40.0126289 L46.6993421,27.9619184 L53.4189367,27.9619184 L59.3751956,40.0126289 L67.0469595,40.0126289 L60.6586238,27.0099974 C64.9025782,25.3373132 67.0469595,22.1797605 67.0469595,17.1617079" id="Fill-11" fill="#FEFEFE"></path>
                    <polygon id="Fill-31" fill="#19124A" points="171.124182 0.000963157895 171.124182 10.0547263 179.175213 0.000963157895"></polygon>
                    <polygon id="Fill-33" fill="#19124A" points="172.064989 19.4459974 179.755957 19.4459974 179.755957 9.84491842"></polygon>
                    <polygon id="Fill-35" fill="#19124A" points="172.172048 27.2042342 179.755797 36.6768921 179.755797 27.2042342"></polygon>
                    <polygon id="Fill-37" fill="#19124A" points="171.124182 46.55215 179.170413 46.55215 171.124182 36.5032026"></polygon>
                    <polygon id="Fill-39" fill="#B01F2D" points="171.124182 15.2525684 171.124182 18.8644105 179.756117 8.05135789 179.756117 4.43951579"></polygon>
                    <polygon id="Fill-41" fill="#B01F2D" points="171.124182 34.7133342 179.756117 45.5247816 179.756117 41.9129395 171.124182 31.1014921"></polygon>
                    <polygon id="Fill-43" fill="#B01F2D" points="163.753272 0.000963157895 163.753272 46.5535947 168.680548 46.5535947 168.680548 25.6835684 179.756117 25.6835684 179.756117 20.9689105 168.680548 20.9689105 168.680548 0.000963157895"></polygon>
                    <path d="M3.57871622,57.3953816 L1.52395092,57.3953816 L1.52395092,59.4019605 L3.57871622,59.4019605 C4.32924964,59.4019605 4.68291252,59.0038553 4.68291252,58.3954605 C4.68291252,57.7292763 4.32924964,57.3953816 3.57871622,57.3953816 M3.49070057,54.5444342 L1.52395092,54.5444342 L1.52395092,56.0228816 L3.56751422,56.0228816 C4.20922831,56.0228816 4.43966927,55.7226974 4.43966927,55.2892763 C4.43966927,54.8012763 4.16602063,54.5444342 3.49070057,54.5444342 M3.52270626,60.8804079 L0.0100817923,60.8804079 L0.0100817923,53.1141447 L3.55631223,53.1141447 C5.05897937,53.1141447 6.00954836,53.8349079 6.00954836,55.1656711 C6.00954836,55.8318553 5.70069346,56.3648026 5.19180299,56.6762237 C5.81111309,56.9523289 6.27519559,57.5157763 6.27519559,58.3713816 C6.27519559,60.0023289 5.180601,60.8804079 3.52270626,60.8804079" id="Fill-45" fill="#1E1348"></path>
                    <path d="M10.8723329,54.6222895 L8.84957326,54.6222895 L8.84957326,56.6192368 L10.8723329,56.6192368 C11.5908606,56.6192368 11.9765292,56.2869474 11.9765292,55.6111316 C11.9765292,54.9112368 11.5588549,54.6222895 10.8723329,54.6222895 L10.8723329,54.6222895 Z M11.7908962,60.8796053 L10.4082504,58.0832368 L8.84957326,58.0832368 L8.84957326,60.8796053 L7.30369844,60.8796053 L7.30369844,53.1149474 L10.9059388,53.1149474 C12.3653983,53.1149474 13.5688122,53.924 13.5688122,55.5774211 C13.5688122,56.7428421 13.0711238,57.4732368 12.0869488,57.8633158 L13.5688122,60.8796053 L11.7908962,60.8796053 Z" id="Fill-47" fill="#1E1348"></path>
                    <polygon id="Fill-49" fill="#1E1348" points="14.7514225 60.8812105 16.2972973 60.8812105 16.2972973 53.1149474 14.7514225 53.1149474"></polygon>
                    <polygon id="Fill-51" fill="#1E1348" points="20.8958748 54.6442816 20.8958748 60.8807289 19.3483997 60.8807289 19.3483997 54.6442816 17.1272048 54.6442816 17.1272048 53.1144658 23.1154694 53.1144658 23.1154694 54.6442816"></polygon>
                    <path d="M26.2984353,56.2651158 C26.144808,55.8108263 25.9911807,55.3453 25.9127667,55.0547474 C25.8343528,55.3453 25.6807255,55.8108263 25.5254979,56.2651158 L25.0294097,57.6729316 L26.797724,57.6729316 L26.2984353,56.2651158 Z M27.933926,60.8802474 L27.3274182,59.1481684 L24.4981152,59.1481684 L23.8900071,60.8802474 L22.2321124,60.8802474 L25.194239,53.1139842 L26.6969061,53.1139842 L29.6366287,60.8802474 L27.933926,60.8802474 Z" id="Fill-52" fill="#1E1348"></path>
                    <polygon id="Fill-53" fill="#1E1348" points="30.6310455 60.8812105 32.1785206 60.8812105 32.1785206 53.1149474 30.6310455 53.1149474"></polygon>
                    <path d="M38.3881046,60.8802474 L35.5491999,56.6407474 C35.3619666,56.3550105 35.1075213,55.9633263 35.0067034,55.7626684 C35.0067034,56.0532211 35.0291074,57.0292211 35.0291074,57.4626421 L35.0291074,60.8802474 L33.5040363,60.8802474 L33.5040363,53.1139842 L34.9842994,53.1139842 L37.7239865,57.2186421 C37.9128201,57.5059842 38.1672653,57.8960632 38.2680832,58.0967211 C38.2680832,57.8045632 38.2440789,56.8301684 38.2440789,56.3967474 L38.2440789,53.1139842 L39.7691501,53.1139842 L39.7691501,60.8802474 L38.3881046,60.8802474 Z" id="Fill-54" fill="#1E1348"></path>
                    <path d="M46.1582859,57.6180316 C45.5501778,57.9390842 45.3069346,58.3371895 45.3069346,58.8043211 C45.3069346,59.3051632 45.7038051,59.6246105 46.4767425,59.6246105 C46.9552276,59.6246105 47.3504979,59.5138474 47.6705548,59.2810842 L46.1582859,57.6180316 Z M49.1412162,60.8799263 L48.5555121,60.2458474 C47.947404,60.7450842 47.2064723,60.9987158 46.3007112,60.9987158 C44.7228307,60.9987158 43.7594595,60.3341368 43.7594595,58.9375579 C43.7594595,57.8507947 44.3547653,57.1974526 45.3389403,56.7094526 L45.140505,56.4863211 C44.7324324,56.0304263 44.4667852,55.5327947 44.4667852,54.9099526 C44.4667852,53.6466105 45.4605619,52.9916632 46.7647937,52.9916632 C47.7153627,52.9916632 48.3346728,53.2806105 49.0740043,53.8023211 L48.3346728,54.9227947 C47.8257824,54.5343211 47.2736842,54.3673737 46.7215861,54.3673737 C46.2671053,54.3673737 45.9918563,54.5567947 45.9918563,54.8778474 C45.9918563,55.2101368 46.1582859,55.4332684 46.3999289,55.7222158 L48.5331081,58.1622158 C48.7107397,57.8042421 48.886771,57.3836632 49.0740043,56.8747947 L50.3222262,57.2729 C50.0805832,58.0289789 49.792532,58.6839263 49.4500711,59.2168737 L50.9095306,60.8799263 L49.1412162,60.8799263 Z" id="Fill-55" fill="#1E1348"></path>
                    <path d="M59.0191323,60.8802474 L56.1786273,56.6407474 C55.991394,56.3550105 55.7385491,55.9633263 55.6377312,55.7626684 C55.6377312,56.0532211 55.6601351,57.0292211 55.6601351,57.4626421 L55.6601351,60.8802474 L54.135064,60.8802474 L54.135064,53.1139842 L55.6169275,53.1139842 L58.3566145,57.2186421 C58.5454481,57.5059842 58.7998933,57.8960632 58.899111,58.0967211 C58.899111,57.8045632 58.8751067,56.8301684 58.8751067,56.3967474 L58.8751067,53.1139842 L60.4001778,53.1139842 L60.4001778,60.8802474 L59.0191323,60.8802474 Z" id="Fill-56" fill="#1E1348"></path>
                    <path d="M64.7881579,54.5344816 C63.5383357,54.5344816 63.0198435,55.6116132 63.0198435,56.9969553 C63.0198435,58.3822974 63.5383357,59.4578237 64.7881579,59.4578237 C66.0363798,59.4578237 66.5564723,58.3822974 66.5564723,56.9969553 C66.5564723,55.6116132 66.0363798,54.5344816 64.7881579,54.5344816 M64.7881579,60.9988763 C62.6773826,60.9988763 61.4291607,59.3599026 61.4291607,56.9969553 C61.4291607,54.6340079 62.6773826,52.9918237 64.7881579,52.9918237 C66.8989331,52.9918237 68.147155,54.6340079 68.147155,56.9969553 C68.147155,59.3599026 66.8989331,60.9988763 64.7881579,60.9988763" id="Fill-57" fill="#1E1348"></path>
                    <path d="M72.7449324,54.6222895 L70.7221728,54.6222895 L70.7221728,56.6192368 L72.7449324,56.6192368 C73.4634602,56.6192368 73.8491287,56.2869474 73.8491287,55.6111316 C73.8491287,54.9112368 73.4298542,54.6222895 72.7449324,54.6222895 L72.7449324,54.6222895 Z M73.6634957,60.8796053 L72.2792496,58.0832368 L70.7221728,58.0832368 L70.7221728,60.8796053 L69.176298,60.8796053 L69.176298,53.1149474 L72.7785384,53.1149474 C74.2363976,53.1149474 75.4398115,53.924 75.4398115,55.5774211 C75.4398115,56.7428421 74.9437233,57.4732368 73.9611486,57.8633158 L75.4398115,60.8796053 L73.6634957,60.8796053 Z" id="Fill-58" fill="#1E1348"></path>
                    <polygon id="Fill-59" fill="#1E1348" points="79.5195768 54.6442816 79.5195768 60.8807289 77.9721017 60.8807289 77.9721017 54.6442816 75.7493065 54.6442816 75.7493065 53.1144658 81.7407717 53.1144658 81.7407717 54.6442816"></polygon>
                    <polygon id="Fill-60" fill="#1E1348" points="87.176458 60.8802474 87.176458 57.6183526 84.0062945 57.6183526 84.0062945 60.8802474 82.4588193 60.8802474 82.4588193 53.1139842 84.0062945 53.1139842 84.0062945 56.0885368 87.176458 56.0885368 87.176458 53.1139842 88.7239331 53.1139842 88.7239331 60.8802474"></polygon>
                    <polygon id="Fill-61" fill="#1E1348" points="90.1613087 60.8802474 90.1613087 53.1139842 95.5302632 53.1139842 95.5302632 54.6325632 91.7071835 54.6325632 91.7071835 55.9745632 93.9283784 55.9745632 93.9283784 57.4835105 91.7071835 57.4835105 91.7071835 59.3600632 95.6966927 59.3600632 95.6966927 60.8802474"></polygon>
                    <path d="M100.359282,54.6222895 L98.3381223,54.6222895 L98.3381223,56.6192368 L100.359282,56.6192368 C101.077809,56.6192368 101.466679,56.2869474 101.466679,55.6111316 C101.466679,54.9112368 101.047404,54.6222895 100.359282,54.6222895 L100.359282,54.6222895 Z M101.277845,60.8796053 L99.8967994,58.0832368 L98.3381223,58.0832368 L98.3381223,60.8796053 L96.7922475,60.8796053 L96.7922475,53.1149474 L100.392888,53.1149474 C101.853947,53.1149474 103.055761,53.924 103.055761,55.5774211 C103.055761,56.7428421 102.559673,57.4732368 101.575498,57.8633158 L103.055761,60.8796053 L101.277845,60.8796053 Z" id="Fill-62" fill="#1E1348"></path>
                    <path d="M109.01394,60.8802474 L106.173435,56.6407474 C105.984602,56.3550105 105.730156,55.9633263 105.632539,55.7626684 C105.632539,56.0532211 105.653343,57.0292211 105.653343,57.4626421 L105.653343,60.8802474 L104.129872,60.8802474 L104.129872,53.1139842 L105.610135,53.1139842 L108.349822,57.2186421 C108.537055,57.5059842 108.791501,57.8960632 108.892319,58.0967211 C108.892319,57.8045632 108.869915,56.8301684 108.869915,56.3967474 L108.869915,53.1139842 L110.394986,53.1139842 L110.394986,60.8802474 L109.01394,60.8802474 Z" id="Fill-63" fill="#1E1348"></path>
                    <polygon id="Fill-64" fill="#1E1348" points="115.036451 60.8812105 116.583926 60.8812105 116.583926 53.1149474 115.036451 53.1149474"></polygon>
                    <path d="M121.699716,54.6222895 L119.675356,54.6222895 L119.675356,56.6192368 L121.699716,56.6192368 C122.418243,56.6192368 122.802312,56.2869474 122.802312,55.6111316 C122.802312,54.9112368 122.384637,54.6222895 121.699716,54.6222895 L121.699716,54.6222895 Z M122.618279,60.8796053 L121.232432,58.0832368 L119.675356,58.0832368 L119.675356,60.8796053 L118.131081,60.8796053 L118.131081,53.1149474 L121.731721,53.1149474 C123.18958,53.1149474 124.394595,53.924 124.394595,55.5774211 C124.394595,56.7428421 123.898506,57.4732368 122.915932,57.8633158 L124.394595,60.8796053 L122.618279,60.8796053 Z" id="Fill-65" fill="#1E1348"></path>
                    <polygon id="Fill-66" fill="#1E1348" points="125.690345 60.8802474 125.690345 53.1139842 131.059299 53.1139842 131.059299 54.6325632 127.23622 54.6325632 127.23622 55.9745632 129.455814 55.9745632 129.455814 57.4835105 127.23622 57.4835105 127.23622 59.3600632 131.225729 59.3600632 131.225729 60.8802474"></polygon>
                    <polygon id="Fill-67" fill="#1E1348" points="132.319683 60.8802474 132.319683 53.1139842 133.865558 53.1139842 133.865558 59.3488263 137.744648 59.3488263 137.744648 60.8802474"></polygon>
                    <path d="M142.133108,56.2651158 C141.979481,55.8108263 141.822653,55.3453 141.745839,55.0547474 C141.667425,55.3453 141.512198,55.8108263 141.35857,56.2651158 L140.862482,57.6729316 L142.629196,57.6729316 L142.133108,56.2651158 Z M143.766999,60.8802474 L143.15889,59.1481684 L140.331188,59.1481684 L139.72468,60.8802474 L138.065185,60.8802474 L141.027312,53.1139842 L142.531579,53.1139842 L145.469701,60.8802474 L143.766999,60.8802474 Z" id="Fill-68" fill="#1E1348"></path>
                    <path d="M151.017408,60.8802474 L148.178503,56.6407474 C147.988069,56.3550105 147.736824,55.9633263 147.634406,55.7626684 C147.634406,56.0532211 147.65841,57.0292211 147.65841,57.4626421 L147.65841,60.8802474 L146.133339,60.8802474 L146.133339,53.1139842 L147.612002,53.1139842 L150.35489,57.2186421 C150.542123,57.5059842 150.798169,57.8960632 150.897386,58.0967211 C150.897386,57.8045632 150.873382,56.8301684 150.873382,56.3967474 L150.873382,53.1139842 L152.396853,53.1139842 L152.396853,60.8802474 L151.017408,60.8802474 Z" id="Fill-69" fill="#1E1348"></path>
                    <path d="M155.977649,54.6222895 L155.161504,54.6222895 L155.161504,59.3706579 L155.92324,59.3706579 C157.547528,59.3706579 158.28846,58.4155263 158.28846,56.9964737 C158.28846,55.4104737 157.61474,54.6222895 155.977649,54.6222895 M155.92324,60.8796053 L153.614029,60.8796053 L153.614029,53.1149474 L156.033659,53.1149474 C158.245252,53.1149474 159.879143,54.1567632 159.879143,56.9964737 C159.879143,59.7238158 157.912393,60.8796053 155.92324,60.8796053" id="Fill-70" fill="#1E1348"></path>
                </g>
            </g>
        </g>
    </g>
</svg>