<svg xmlns="http://www.w3.org/2000/svg" xmlns:xlink="http://www.w3.org/1999/xlink" width="216" height="75" viewBox="0 0 216 75">
    <defs>
        <path id="a" d="M8.798 20.626V.683H.705v19.943h8.093z"/>
    </defs>
    <g fill="none" fill-rule="evenodd">
        <path fill="#FFF" d="M0 74.32h2.473V1.078H0zM33.511 7.562c-.317.442-.592.697-.547 1.035.04.341.533.577.764.924.213-.397.565-.697.525-1.006-.046-.315-.643-.73-.742-.953M39.398 7.562c.312.442.591.697.547 1.035-.045.341-.534.577-.765.924-.212-.397-.564-.697-.524-1.006.046-.315.634-.73.742-.953M30.173 7.655c.307 0 .569-.26.569-.57 0-.32-.262-.58-.569-.58a.575.575 0 0 0 0 1.15"/>
        <path fill="#FFF" d="M30.607 8.049c0-.31-.256-.57-.568-.57a.57.57 0 0 0-.564.57.57.57 0 0 0 .564.578.573.573 0 0 0 .568-.578"/>
        <path fill="#FFF" d="M30.8 9.016c0-.31-.26-.571-.569-.571a.57.57 0 0 0 0 1.14c.308 0 .57-.26.57-.57M32.35 5.751c.313 0 .57-.26.57-.57a.567.567 0 1 0-1.133 0c0 .31.256.57.563.57"/>
        <path fill="#FFF" d="M31.375 6.061a.575.575 0 0 0 0-1.149.575.575 0 0 0 0 1.149"/>
        <path fill="#FFF" d="M30.603 6.737a.57.57 0 0 0 0-1.14.57.57 0 0 0 0 1.14M33.383 5.85a.575.575 0 0 0 0-1.15.576.576 0 0 0 0 1.15"/>
        <path fill="#FFF" d="M34.36 6.138a.575.575 0 0 0 0-1.149.568.568 0 0 0-.568.57c0 .32.25.579.568.579"/>
        <path fill="#FFF" d="M35.277 6.573a.575.575 0 0 0 0-1.149.575.575 0 0 0 0 1.15M42.134 7.085c0 .31.257.57.569.57a.57.57 0 0 0 .564-.57.57.57 0 0 0-.564-.579.573.573 0 0 0-.569.579"/>
        <path fill="#FFF" d="M42.832 7.478a.57.57 0 0 0-.568.57c0 .321.261.58.568.58.313 0 .57-.259.57-.58 0-.32-.257-.57-.57-.57"/>
        <path fill="#FFF" d="M42.638 8.445a.572.572 0 0 0-.563.57.565.565 0 1 0 1.133 0 .573.573 0 0 0-.57-.57M40.52 5.751c.314 0 .57-.26.57-.57a.57.57 0 1 0-.57.57"/>
        <path fill="#FFF" d="M41.501 6.061c.312 0 .57-.26.57-.58a.573.573 0 0 0-.57-.569.575.575 0 0 0 0 1.149"/>
        <path fill="#FFF" d="M42.273 6.737a.57.57 0 0 0 0-1.14.57.57 0 0 0 0 1.14M39.493 5.85c.318 0 .57-.26.57-.579a.573.573 0 0 0-.57-.57.576.576 0 0 0 0 1.149"/>
        <path fill="#FFF" d="M38.516 6.138c.318 0 .568-.26.568-.58 0-.31-.25-.569-.568-.569a.576.576 0 0 0-.57.57c0 .32.263.579.57.579"/>
        <path fill="#FFF" d="M37.03 5.994c0 .32.252.579.564.579a.571.571 0 0 0 .569-.58.57.57 0 0 0-.569-.57.57.57 0 0 0-.564.57M35.59 7.984h.64V6.276a2.944 2.944 0 0 1-.64-.14v1.848z"/>
        <path fill="#FFF" d="M37.133 6.134c-.196.066-.41.115-.639.141v1.707h.639V6.134zM36.34 4.543v-1.31c-.663.142-1.18.653-1.297 1.31h1.296zM36.524 4.543h1.296c-.113-.65-.638-1.168-1.296-1.31v1.31zM35.056 4.738c.123.755.615 1.31 1.208 1.31s1.086-.555 1.212-1.31h-2.42zM36.941 3.08c-.282-.224-.495-.544-.537-.889.324.063.683.293.894.575v-1.37c-.21.282-.57.52-.894.576.038-.33.239-.64.515-.986H35.61c.274.347.476.655.51.986-.32-.056-.683-.294-.89-.576v1.37c.207-.282.57-.512.89-.575-.042.345-.251.665-.537.889h1.357zM38.393 30.475c-1.24-.315-2.717-.853-4.1-1.485l.003-.019c.042-.282-.065-.604-.281-.846-.21-.25-.495-.39-.781-.39-.127 0-.252.032-.376.075a5.455 5.455 0 0 1-.57-.593 6.842 6.842 0 0 1-1.214-2.138 7.083 7.083 0 0 1-.359-1.422c-.069.403-.52.94-1.296.954.01-.082.004-.289-.064-.309-.204.227-.512.475-1.215.227.11.554.262 1.099.456 1.626a9.585 9.585 0 0 0 1.778 3.025c.257.289.522.557.798.81-.004.05-.01.108-.01.157 0 .294.281.764.686.961.33.16.683.121 1.01-.115.6.327 1.37.63 2.196.865.93.256 1.827.403 2.53.403.605 0 1.402-.288 2.192-.786.311-.206.608-.43.829-.644a.543.543 0 0 0 .084-.08c-.612.088-1.542-.082-2.296-.276m-4.541-1.888l-.132-.095c-.243-.187-.44-.187-.658.003a2.598 2.598 0 0 0-.285.302l-.136.153.091.08c.256.202.292.426.217.56a.208.208 0 0 1-.13.105c-.123.03-.3-.014-.485-.122l-.097-.058-.059.094c-.012.027-.029.046-.048.072-.019.034-.042.063-.066.103-.106.193-.158.34-.158.462a.29.29 0 0 0 .013.088c.036.14.15.21.247.263l.061.04c.113.073.276.172.396.235-.231.128-.454.14-.678.033-.34-.174-.557-.564-.557-.758 0-.298.132-.678.372-1.062l.04-.055-.036-.066a2.374 2.374 0 0 1-.178-.338c.13.017.26.037.386.07l.064.012.045-.045c.146-.168.67-.7 1.153-.7.22 0 .443.12.612.31a.97.97 0 0 1 .227.48c-.068-.045-.146-.11-.221-.166m.801 2.386a.534.534 0 0 1-.528-.538c0-.294.236-.537.528-.537.295 0 .53.243.53.537a.534.534 0 0 1-.53.538m2.322.731a.487.487 0 0 1-.48-.491.49.49 0 0 1 .48-.495.493.493 0 0 1 0 .986M37.618 34.181a.762.762 0 0 0-.25.04v-1.504a9.981 9.981 0 0 1-2.168-.335v1.846a.686.686 0 0 0-.263-.047c-.522 0-.846.444-.846.86 0 .376.227.734.421.966.097-.238.188-.422.314-.422.26 0 .144 1.298.898 1.33a.596.596 0 0 0 .553.806c.327 0 .59-.268.59-.595a.616.616 0 0 0-.037-.21c.756-.033.629-1.33.89-1.33.128 0 .21.17.322.421.195-.232.422-.59.422-.966 0-.416-.325-.86-.846-.86m-1.341 3.28a.336.336 0 0 1-.33-.335.33.33 0 1 1 .66 0c0 .18-.146.335-.33.335m1.769-1.896c-.091-.167-.222-.262-.334-.262-.505 0-.308 1.35-.914 1.35-.262 0-.404-.174-.404-.357 0-.193.132-.252.132-.406 0-.15-.116-.21-.25-.21-.128 0-.248.06-.248.21 0 .154.133.213.133.406 0 .183-.143.358-.405.358-.606 0-.405-1.351-.914-1.351-.11 0-.242.095-.33.262a1.196 1.196 0 0 1-.158-.524c0-.25.188-.597.583-.597.676 0 .518.934.842.934.146 0 .25-.088.25-.23 0-.268-.47-.51-.47-.898 0-.383.342-.701.718-1.01.376.309.719.627.719 1.01 0 .387-.47.63-.47.898 0 .142.103.23.25.23.324 0 .165-.934.842-.934.395 0 .584.347.584.597 0 .14-.059.33-.156.524"/>
        <path fill="#FFF" d="M55.044 35.987a.158.158 0 0 0-.195-.094c-1.739.511-3.896-.941-5.978-2.351-1.754-1.184-3.413-2.304-4.832-2.304a2.91 2.91 0 0 0-1.396.33c-.495.283-.866.718-1.103 1.302-.24.59-.49.994-.694 1.318-.24.383-.42.66-.42 1.013 0 .28.123.538.365.78.201.206.492.403.91.626.091.052.182.099.269.134.34.174.557.289.596.489-.683.301-1.574.557-2.585.737-1.14.203-2.393.305-3.706.305-1.323 0-2.573-.102-3.71-.305-1.014-.18-1.904-.436-2.593-.744.03-.289.242-.41.618-.59.09-.043.179-.082.272-.134.343-.183.67-.364.891-.57.246-.216.36-.447.36-.728 0-.354-.176-.63-.416-1.013-.2-.324-.456-.728-.693-1.318-.235-.584-.608-1.02-1.107-1.295a2.901 2.901 0 0 0-1.39-.331c-1.42 0-3.082 1.114-4.837 2.298-2.08 1.41-4.236 2.862-5.976 2.35a.163.163 0 0 0-.197.101.166.166 0 0 0 .09.201c.528.236.995.606 1.445.957.621.496 1.218.96 1.869.96.615 0 1.282-.195 2.088-.619.696-.37 1.425-.872 2.128-1.357 1.374-.948 2.792-1.928 4.139-2.036-.143.141-.278.268-.408.384-.4.356-.742.672-.742 1.298 0 .502.166.852.401 1.346.07.141.146.3.227.486.15.335.212.61.302.98.036.161.084.338.139.55.084.329.246.935 1.234 1.44 1.142.59 3.112.89 5.866.89 2.742 0 4.717-.3 5.86-.89.985-.505 1.148-1.111 1.234-1.44.056-.212.1-.389.137-.55.09-.37.152-.645.3-.98.111-.25.22-.45.314-.625.202-.39.37-.7.37-1.148 0-.633-.363-.96-.78-1.344-.134-.122-.276-.25-.422-.403 1.351.108 2.766 1.087 4.139 2.042.703.478 1.43.987 2.129 1.35.809.43 1.472.626 2.088.626.647 0 1.243-.464 1.868-.964.453-.347.92-.717 1.444-.953a.168.168 0 0 0 .088-.207M44.604 21.909c-.195-.142-.505-.436-.667-.787-.21-.43-1.07-2.15-1.205-2.377-.11-.19-.169-.363-.169-.51 0-.181.09-.329.186-.456.068-.089.255-.276.32-.384a1.2 1.2 0 0 1 .16-.203c-.315-.551-.64-.968-1.05-1.436a8.602 8.602 0 0 0-1.688-1.48c.334-.212.668-.53.668-1.053a.961.961 0 0 0-.347-.744c.347-1.129.972-2.485 1.503-3.079l-1.118-.475c.288.442.31.967.244 1.268-.289-.2-.541-.481-.62-.852-.058.34-.242.895-.41 1.229.324-.154.58-.223.906-.088-.184.262-.67.653-1.402.478-.396-.101-.79-.314-.777-.626.01-.18.143-.403.394-.384.247.03.26.404.182.568.321-.184.648-1.125.152-1.265-.391-.116-.751.432-.88.849-.075-.506-.282-.983-.677-.96-.519.039-.347 1-.169 1.242.032-.338.21-.519.366-.505.135.013.317.108.288.416-.036.302-.466.49-.958.49-.47 0-1.3-.146-1.38-1.067.308.059.79.288.994.604a6.153 6.153 0 0 1 0-1.538c-.252.37-.683.557-.977.603.087-.397.42-.812.812-1.059h-2.027c.385.247.725.662.81 1.059-.298-.053-.713-.24-.963-.603.065.583.065.98 0 1.538.2-.309.668-.545.976-.604-.078.92-.907 1.068-1.38 1.068-.489 0-.92-.19-.956-.491-.028-.308.152-.403.289-.416.152-.014.336.167.365.505.182-.243.347-1.203-.164-1.243-.398-.022-.606.455-.678.96-.128-.416-.491-.964-.887-.848-.495.14-.162 1.081.152 1.265-.07-.164-.058-.537.185-.568.249-.019.385.204.395.384.017.312-.379.525-.777.626a1.325 1.325 0 0 1-1.4-.472c.331-.148.597-.072.917.082a5.675 5.675 0 0 1-.411-1.229c-.081.377-.333.66-.631.866a1.768 1.768 0 0 1 .243-1.282l-1.114.475c.53.594 1.156 1.957 1.5 3.085a.986.986 0 0 0-.33.738c0 .524.33.841.662 1.054a8.744 8.744 0 0 0-1.687 1.479 9.618 9.618 0 0 0-1.778 3.002c.152.16.823.902.976 1.101.277.358.446.712.453.987.02.512.126.718.395 1.057.083.108.203.511.217.756h5.54v6.107c-.213.02-.446.075-.634.308.637.262 1.25.492 1.858.685.062-.4.14-.643.343-.89 0 0-.806-.084-1.24-.103v-6.107h5.419a7.8 7.8 0 0 1-.442 2.42 6.918 6.918 0 0 1-1.213 2.137 5.644 5.644 0 0 1-1.803 1.435c-.108.056-.102.134-.212.184a1.414 1.414 0 0 0-.265.495c-.067.184-.093.31-.126.557.256.076.391.121.635.176 1.904.483 2.373.342 2.48.258h.003c.428-.332.83-.716 1.198-1.139a9.662 9.662 0 0 0 1.781-3.029c.435-1.17.651-2.419.651-3.7 0-.237.01-.308-.006-.544zm-8.427.422H30.63a7.624 7.624 0 0 1 .44-2.51c.29-.8.697-1.525 1.214-2.138a5.736 5.736 0 0 1 1.801-1.442 4.87 4.87 0 0 1 2.092-.518v6.608zm.1-9.354c-1.851 0-3.124.55-3.869 1.052-.424-.257-.608-.508-.608-.806 0-1.06 2.969-1.155 4.476-1.155h.002c1.505 0 4.48.095 4.48 1.155 0 .298-.189.55-.62.806-.741-.502-2.014-1.052-3.86-1.052zm.228 9.354V15.73a4.88 4.88 0 0 1 1.96.512c.676.34 1.282.82 1.803 1.442a6.918 6.918 0 0 1 1.213 2.138c.286.794.432 1.638.445 2.51h-5.421z"/>
        <path fill="#FFF" d="M41.069 21.256c.09.06.064.21-.063.2a6.266 6.266 0 0 0-1.039-2.786c.003-.007.01-.007.017-.014.1-.04.204-.128.229-.295a.35.35 0 0 0-.346.161 2.378 2.378 0 0 1-.12-.161 5.343 5.343 0 0 0-1.175-1.108 4.27 4.27 0 0 0-1.309-.606c.006-.108.146-.121.204-.027.013-.18-.133-.262-.223-.23-.042.018-.085.057-.095.136a.35.35 0 0 0-.245-.128.388.388 0 0 0 .075.262c-.07 0-.117.03-.143.069-.042.086.012.242.192.256-.085-.062-.053-.197.057-.19v2.143a.353.353 0 0 0-.356.089.35.35 0 0 0 .356.097v2.332c-.12.006-.146-.134-.055-.2-.175 0-.246.154-.211.236.026.06.08.099.175.085a.396.396 0 0 0-.087.25.376.376 0 0 0 .242-.096c-.012.102.033.144.081.178.085.038.24-.034.24-.211-.064.089-.204.063-.204-.045h1.6a.373.373 0 0 0 .093.353.362.362 0 0 0 .095-.353h1.782c.008.108-.134.148-.198.059.003.17.166.242.239.197.058-.027.094-.076.084-.178.055.049.14.088.244.088a.384.384 0 0 0-.097-.242c.097.007.148-.034.17-.092.036-.082-.035-.235-.21-.23m-1.534-2.841c-.046.042-.066.108-.053.154.02.049.062.102.163.108a.374.374 0 0 0-.127.23.416.416 0 0 0 .255-.057c-.022.096.011.152.056.185a.141.141 0 0 0 .142 0c.412.672.697 1.441.813 2.228a.313.313 0 0 0-.197-.059c.002.119.045.2.11.259h-1.354c.01-.091-.036-.167-.093-.187-.053-.02-.12-.007-.182.062a.37.37 0 0 0-.108-.235.359.359 0 0 0-.106.235c-.058-.069-.13-.081-.181-.062-.059.02-.1.096-.095.187h-1.152a.383.383 0 0 0 .081-.239c-.1 0-.174.04-.234.093V19.41c.088.014.172-.023.188-.089.02-.049.014-.114-.067-.182a.323.323 0 0 0 .239-.112.383.383 0 0 0-.239-.102c.081-.062.087-.128.067-.187-.016-.055-.1-.108-.188-.089v-1.605a.386.386 0 0 0 .204.082.42.42 0 0 0-.055-.23c.357.122.71.295 1.04.518.392.269.758.603 1.073 1"/>
        <path fill="#FFF" d="M40.12 20.66a.313.313 0 0 0 .148-.134c-.08.026-.136-.013-.152-.02.052-.039.114 0 .052-.102-.065-.101-.107-.101-.171-.031-.068.072-.496-.014-.492-.345a.29.29 0 0 0 .146.121c.015.013.032.02.05.027.021.006.04.006.06.01.038.02.083.025.122.02.008 0 .02.005.023.005v-.02c.088-.015.155-.069.165-.163.017-.18-.152-.262-.337-.423-.074-.059-.126-.115-.175-.16-.061-.128-.022-.243-.181-.482a1.376 1.376 0 0 0-.052-.21.602.602 0 0 0 .098.692c.181.197.566.396.548.563-.004.037-.04.076-.096.088-.018 0-.038 0-.057-.006-.01 0-.02-.006-.037-.013a.522.522 0 0 1-.08-.036c-.038-.026-.081-.053-.132-.105-.16-.154-.305-.37-.396-.498-.181-.23-.097-.449-.07-.64.125-.18-.079-.537-.196-.622 0 0 .026-.082-.006-.19a.171.171 0 0 1-.11.009c-.036-.062-.049-.075-.09-.082-.081-.013-.078-.056-.088-.088-.042.036-.055.082-.104.082-.065.006-.087 0-.114.026-.047.033-.068.053-.132.045-.078 0-.074.044-.068.096.003.033.006.083.055.102.006.006.013.012.023.012l.054.066.04-.072c.031-.025.123-.04.142.033.013.046.023.056-.038.063-.062.013-.095.013-.156.02-.038 0-.038.052-.037.084.004.043.047.062.134.043.088-.023.24-.036.24.04 0 .193-.22.186-.27.415a.399.399 0 0 1-.136-.127.913.913 0 0 0-.164-.207c-.045-.042-.1-.095-.165-.134-.072-.044-.074-.082-.074-.165 0-.065.028-.127.028-.193a.424.424 0 0 0-.02-.062c-.015-.04-.073-.072-.103-.065.013.013.033.033.04.068-.017.014-.03.034-.03.04a.045.045 0 0 0 0 .064c.003 0 .003.008.003.015 0 .012 0 .019-.003.029 0 .014-.003.014-.007 0-.016-.044-.039-.114-.088-.121h-.028s.003-.007.003-.013c0-.05-.052-.089-.117-.023.013 0 .043.006.049.017a.26.26 0 0 0-.01.051c-.006.045.032.072.085.072.009 0 .017.007.017.01.001.007.001.014.005.02.003.013-.004.013-.005.007-.09-.037-.128.006-.13.046 0 0 0 .026.002.032-.032.02-.038.07.02.109 0-.02 0-.047.019-.06.008 0 .01 0 .013-.006.01.014.023.026.027.026.003.007.018 0 .045-.02.005-.006.012-.006.022 0l.03.02c.006.007.002.007 0 .013-.06.06-.048.109.019.128-.032.06-.133.039-.13-.056-.075.121.049.204.152.158.004.046.004.134.017.134-.003-.006.006-.023.022-.023.007 0 .01.006.01.013 0 .03.014.063.055.07-.006-.02.003-.027.013-.034.017.027.033.06.049.085.05.089.149.318.378.424-.116.062-.193.163-.268.255-.061.062-.156.134-.217.096-.027-.014-.032-.04-.066-.073a.243.243 0 0 0-.077-.016c-.004.006-.022.006-.036.016-.039-.016-.103.007-.123.04.026-.007.056-.014.088.013 0 .013 0 .04-.004.04-.003.032.02.054.14.049.007 0 .02.005.012.018-.011.007-.032.027-.064.014-.055-.014-.075-.056-.113-.007a.099.099 0 0 1-.03.033h-.013c-.04.014-.087.108-.035.148a.1.1 0 0 1 .035-.076l.03.03c.032.051.068.078.148-.043.01-.013.014 0 .01.007-.003.055-.061.135.013.144.004 0 .02 0 .033.006v.013c.013.066.106.086.135.066-.018-.012-.057-.026-.074-.085h.04c.038-.043-.01-.095.012-.134.004-.004.01-.004.016 0 .014.032.046.085.114.052a.113.113 0 0 0 .043-.075c.082-.034.154-.066.212-.046-.01-.04.04-.102.124-.122.084-.026.123 0 .152.026a.388.388 0 0 1 .08-.147c-.005.344.451.337.554.537-.139-.052-.287-.091-.372-.072-.11.02-.307.122-.333.253-.017.109.09.298.2.37-.13.027-.182-.013-.298.014h-.015c-.102.006-.114-.175-.24-.13-.006.009-.03.018-.036.024-.045 0-.11.059-.1.112.013-.013.038-.039.074-.046v.026c-.002.02.003.04.048.04.027 0 .032-.013.049-.013.007 0 .014.006.014.016 0 .045-.152-.03-.128.105a.13.13 0 0 0 .023.036c-.006.04.026.078.098.058-.014-.006-.04-.025-.032-.052.012 0 .029.007.029.007.01 0 .016-.007.016-.02 0-.004.003-.004.006-.004.006 0 .014.004.014.004 0 .007-.01.02-.01.033 0 0 .006.04.012.046-.006.046.065.095.13.046-.02 0-.059-.013-.065-.033a.21.21 0 0 1 .032-.013.072.072 0 0 0 .013-.046c0-.02.004-.02.014-.02h.032c.013-.006.016 0 .022.013.017.027.052.053.094.04a.07.07 0 0 0 .043-.033c.018.007.038.02.054.032-.012-.052.02-.088.13-.018l.071-.056s.101.042.14-.006c.067-.06.033-.06.033-.119-.05-.101-.072-.088-.091-.19-.033-.167.197-.262.336-.236.027.107.179.39.428.479.154.052.217-.122.272-.096.009.007.019.02.024.043-.007.078.004.147-.015.187-.017.04-.1.006-.159.006-.034-.006-.06.02-.06.026-.046.007-.105.053-.105.11.023-.015.052-.048.088-.054.004.006.004.027.004.027.009.065.083.092.129.045.002-.013.019 0 .01.006-.036.027-.11.097-.046.123l.033.012c-.003.046.022.083.058.089-.014-.027-.016-.037.006-.082.017.006.033.006.035.006.039 0 .022-.085.07-.107.002-.007.009-.007.005 0-.016.049-.022.107.02.12.006 0 .023.007.039.007.012.036.055.069.12.03-.014-.007-.052-.017-.059-.036a.487.487 0 0 0 .032-.039c.033-.103-.058-.109-.058-.147 0-.054.104-.021.104-.122 0 0-.003-.008-.003-.014.045-.026.094-.059.097-.095a.289.289 0 0 1-.123-.027v-.006zM35.55 23.753l-.095-.007.004-.082c.016-.334-.181-.576-.531-.576-.31 0-.913.402-1.76.402-.355 0-.783-.173-1.051-.334l-.103.256v-.023a.212.212 0 0 0-.209-.214.213.213 0 0 0-.207.214c0 .115.095.21.207.21.07 0 .128-.034.167-.076l-.108.256c.036.013.072.033.11.042-.122 1.289.823 2.94 2.491 3.44.246-.062.498-.024.498.248 0 .167-.084.24-.233.24-.1 0-.162-.06-.162-.122 0-.118.194-.046.214-.128.026-.105-.04-.147-.152-.147-.116 0-.295.075-.295.275 0 .23.185.364.382.364.185 0 .574-.102.521-.564.089 0 .19-.013.21-.095l.021-.263-.09-.012.07-2.963.065.004c.107.005.2-.044.207-.16.01-.117-.083-.172-.171-.185m-3.019.23l2.03 2.96c-1.087-.43-2.165-1.418-2.03-2.96m2.089 2.678l-1.846-2.7c.057.007.116.007.169.007.093 0 .19-.006.284-.015l1.48 2.15c-.031.21-.062.403-.087.558m.136-.859l-1.302-1.889a5.1 5.1 0 0 0 .415-.128l.981 1.413c-.03.2-.061.403-.094.604m.317-2.082l-.077-.007c-.087-.006-.198.033-.207.154-.007.115.074.187.18.193h.056l-.01.076c-.027.168-.067.448-.116.77l-.83-1.199c.39-.161.7-.324.872-.324.132 0 .159.061.132.337M35.195 17.792c.395 0 .594-.128.594-.256 0-.441-1.089-.166-1.089-.435 0-.046.032-.082.081-.122h.014c.546-.052.556-.435.945-.511-.47-.066-.535.305-.739.324.11-.048.15-.176.139-.23-.097.129-.307.143-.424.29-.019.025-.027.056-.019.081-.07.046-.113.099-.113.162 0 .415 1.1.127 1.1.435 0 .109-.19.18-.492.18-.227 0-.391-.16-.815-.053.002-.072.142-.21.087-.275.041-.012.071-.052.071-.082-.023-.026-.052-.033-.081-.039.012-.02 0-.045-.02-.059-.003-.007-.013-.05-.022-.056a.357.357 0 0 0-.1-.072c-.047-.026-.079-.026-.097-.026-.014-.006-.055.007-.062.007-.023 0-.052 0-.055.026a.113.113 0 0 0-.078-.033.172.172 0 0 0-.01.125c-.039 0-.08.101-.12.088.017.033.026.046.04.046-.034.056-.05.129-.085.135.01.01.019.022.03.03a1.17 1.17 0 0 0-.06.255.501.501 0 0 0-.087-.07c-.065-.038-.061-.072-.051-.134.01-.059.045-.101.051-.153a.591.591 0 0 0-.01-.054c-.006-.035-.055-.06-.083-.055.013.013.028.027.025.055-.012.007-.025.027-.028.027-.017.02-.026.04-.01.053a.06.06 0 0 1 .003.019c0 .007-.003.013-.007.027-.007.005-.007 0-.01 0-.006-.046-.018-.099-.055-.105h-.028v-.014c.005-.035-.036-.068-.1-.016.012 0 .035 0 .041.01-.01.013-.016.039-.018.046-.011.04.021.059.07.059.01 0 .012.006.012.006.004.008.004.014.004.02.003.003-.004.003-.006.003-.078-.03-.113 0-.123.034l-.003.025c-.03.02-.043.059.006.088 0-.013.003-.035.026-.041 0-.007.006-.007.01-.007l.016.019c.006.007.023.007.051-.012.004-.007.01-.007.02 0 .003.006.01.006.02.012.002.007.002.007 0 .014-.062.042-.062.088.009.107.008 0 .008.007.008.015-.02.087-.147.068-.128-.021-.088.101.026.176.13.134.01-.006.01-.006.013 0 .003.02.009.033.025.033 0 0 .01-.02.027-.02.01 0 .01.007.01.014-.004.015 0 .049.032.055-.004-.019.007-.04.018-.04.015 0 .043.08.102.142-.087.04-.237.072-.246.072-.02 0-.15-.013-.192.013-.064.032-.216.089-.262.027-.013-.02-.01-.047-.03-.08-.015-.026-.035-.036-.047-.036h-.04c-.022-.032-.08-.04-.1-.013.016 0 .038.007.059.036-.01.008-.017.027-.017.033-.012.02-.006.053.09.082.004.006.014.014.004.02a.05.05 0 0 1-.052-.006c-.039-.03-.042-.076-.09-.05a.075.075 0 0 1-.03.02c-.003 0-.007-.006-.01-.006-.041 0-.11.049-.08.094.006-.006.022-.032.052-.04a.178.178 0 0 1 .01.027c.009.06.031.095.133.027.015-.014.015.006.01.006-.024.043-.092.082-.043.121.006 0 .016.007.026.02-.003 0-.003.007-.003.007-.014.055.048.094.084.094a.086.086 0 0 1-.033-.082c.01 0 .026.007.03.007.048-.02.025-.085.05-.105.008 0 .014 0 .014.007.003.026.02.086.074.079a.088.088 0 0 0 .081-.086c-.003-.006 0-.006 0-.006.02.013.036.04.03.065a.084.084 0 0 0 .041-.04.09.09 0 0 1-.022.102c.022-.009.08-.035.094-.101a.06.06 0 0 1 .02.033c0-.007.003-.007.003-.007a.19.19 0 0 0 .12-.007c.005 0 .005.007.005.007-.005.034-.005.052.007.066 0-.007.016-.026.023-.026.016 0 0 .055.036.088.01-.147.09-.088.181-.154.014-.006.014 0 .01.007-.007.02-.013.039-.04.053.037 0 .114-.04.114-.093 0-.006.03-.023.058-.042.034.006.088-.013.108-.052.003.012.022.058-.003.071.096.007.197-.104.233-.118.207-.042-.127-.197.294-.163a.238.238 0 0 0 .127-.053c-.032.072-.035.2.028.206.03.007.089.024.111.05.003.007.003.007-.004.007a.414.414 0 0 0-.09.025c-.1.07-.104-.154-.211-.107a.108.108 0 0 0-.025.018c-.043 0-.102.05-.092.096.014-.013.036-.04.07-.04v.02c-.005.02.001.04.038.04.023 0 .026-.013.042-.013.006 0 .009.006.009.013 0 .042-.129-.027-.1.088 0 0 .006.026.016.033-.006.032.023.069.081.052-.01-.013-.032-.025-.03-.038h.03c.003 0 .01-.008.013-.02 0-.007 0-.007.004-.007.01 0 .016.006.016.013 0 .006-.014.014-.014.027 0 0 .014.025.014.028-.007.04.05.08.11.04-.016 0-.051-.006-.055-.026.01 0 .022-.014.026-.014.009-.003.013-.016.013-.035 0-.006.006-.006.01-.006.01-.008.018-.008.028-.008.01 0 .016.008.02.008.01.025.042.049.081.038.071-.025.01-.091.067-.104.01-.007.03-.007.043 0 .055.013.136.013.152-.014.013-.023.006-.127-.052-.164-.035-.02.004-.065-.032-.118.06.027.126.053.21.053.152 0 .007-.02.075-.059.071-.049.159-.022.18-.017.02 0 .037.013.034.03-.017.086.006.092-.01.127-.016.034-.081.008-.127 0-.026 0-.045.02-.045.027-.039.007-.085.04-.08.085.012-.005.035-.026.068-.039v.02c.005.055.067.075.099.036.004-.004.02 0 .014.006-.034.027-.088.079-.042.099a.17.17 0 0 1 .028.012c-.006.037.02.063.049.07-.01-.013-.012-.027.004-.063h.025c.032.007.02-.066.058-.085.004-.006.006-.006.004 0-.007.04-.02.092.017.098.002 0 .016.003.028.003.01.034.045.053.09.027a.086.086 0 0 1-.041-.027c.013-.009.026-.028.026-.035.023-.086-.046-.086-.046-.115 0-.046.081-.02.081-.105 0-.014-.01-.037-.035-.05h-.004.004c.019 0 .045.008.055-.032-.059.006-.042-.045-.049-.076 0-.006 0-.006.004-.013.018-.012.035-.046.025-.091-.02.026-.087.065-.09 0-.003 0-.007-.036-.069-.034-.099.014-.148-.034-.34-.055-.008-.006-.02-.013 0-.013m-1.211-.449h-.006.006m.29-.069c.012.014.089.042.128.05-.058.013-.045.039-.084.032-.036 0-.056-.042-.045-.082m-.08-.045c-.014.032-.056.059-.085.026-.03-.026.005-.033-.03-.088a.402.402 0 0 0 .114.062m-.123.269c.01-.021.019-.04.032-.04.022 0 .036 0 .043-.022.01-.027-.014-.04-.036-.06.026-.006.036-.013.022-.026-.017-.013-.04.013-.045 0-.004-.013.016-.02.023-.034a.088.088 0 0 1 .032 0l.103.054c.017.007.022.012.022.026 0 .019.008.032-.005.04-.01.006-.01-.034-.03-.04-.015 0-.015.019-.006.046-.026-.014-.045-.02-.058 0-.013.016-.01.035.006.049.01.013 0 .032-.006.059-.01.026-.039.056-.078.035-.039-.016-.032-.062-.02-.087M35.743 19.29c0-.121-.134-.207-.519-.207s-1.263.148-1.263-.068c0-.108.172-.102.376-.088.013.018.04.035.087.049.496.148 1.09-.121 1.386-.037-.355-.269-.65.01-1.032-.072.223 0 .297-.062.31-.128-.175.116-.498-.059-.706.073-.009.002-.022.016-.032.029-.275-.013-.495-.013-.495.174 0 .39 1.036.16 1.362.16.328 0 .396.033.396.102 0 .09-.324.115-.501.115-.288 0-1.137-.154-1.656-.042.046-.086.136-.2.088-.267.045-.016.08-.055.085-.094a.198.198 0 0 0-.102-.044c.017-.024-.003-.045-.02-.07-.005-.008-.015-.06-.025-.063a.425.425 0 0 0-.114-.079c-.06-.026-.096-.026-.123-.04-.01 0-.064.014-.067.014-.026 0-.062 0-.065.032-.022-.025-.059-.032-.09-.046a.213.213 0 0 0-.013.148c-.043 0-.095.121-.14.104.016.038.032.05.045.05-.039.072-.055.154-.096.16.025.033.044.053.061.053-.004.056-.006.109-.01.15l-.08-.028h-.023a.058.058 0 0 1-.033-.013c.01 0 .023.007.033.007l-.046-.013c-.042-.04-.096-.108-.166-.148-.08-.046-.08-.082-.074-.162.003-.074.035-.134.035-.196a.244.244 0 0 0-.015-.059c-.007-.045-.065-.076-.098-.072.02.013.036.033.036.072-.013.013-.026.033-.029.033-.02.02-.025.043 0 .069a.046.046 0 0 1 .003.02l-.006.026c-.004.013-.007.006-.013 0-.013-.046-.033-.121-.074-.121-.004 0-.023-.007-.03 0 .003-.007.003-.007.003-.014.004-.045-.054-.089-.117-.026.014 0 .04.006.047.02a.19.19 0 0 0-.014.052c-.006.05.03.07.088.07.003 0 .01.005.013.012 0 .007.004.013.004.02.002.014-.004.006-.01.006-.085-.039-.124 0-.128.036 0 .007-.003.034 0 .04-.03.026-.04.072.011.108 0-.016 0-.05.022-.055.007 0 .01 0 .014-.008.006.008.019.02.022.02.01.007.026.007.055-.012.004-.008.01-.008.02 0 .006 0 .016.006.022.013.007.006.007.012 0 .02-.059.055-.052.113.023.128.01 0 .012.005.012.018-.012.109-.154.09-.142-.018-.084.12.055.221.159.155.01-.002.013-.002.016 0 .003.027.014.04.03.047a.04.04 0 0 1 .026-.033c.007 0 .007.013.007.02 0 .026.008.065.047.065-.006-.019.003-.039.02-.039.02 0 .064.082.156.135.067.033.123.114.167.065-.01.075.059.157.043.157-.023 0-.22-.01-.272.014-.072.04-.253.105-.305.032-.015-.025-.01-.052-.032-.095a.113.113 0 0 0-.062-.046h-.042c-.026-.032-.094-.039-.12-.013.02.007.046.007.072.046-.01.013-.016.033-.023.04-.016.016-.007.061.107.1.006 0 .016.015.006.015-.016.012-.042.012-.062-.007-.044-.033-.051-.086-.106-.053 0 0-.02.013-.036.02 0-.007-.003-.007-.007-.007-.05-.007-.128.06-.096.115a.094.094 0 0 1 .061-.05l.017.037c.01.059.032.105.155.026.006-.013.006 0 .006.006-.029.053-.11.095-.048.135.003.007.016.013.032.026-.003 0-.006.007-.006.007-.016.069.058.121.094.121-.016-.02-.042-.058-.036-.101.013 0 .032.006.032.006.062-.026.036-.1.065-.115.01-.006.016 0 .016.007.004.03.016.095.087.089a.094.094 0 0 0 .088-.096c-.003-.006 0-.013.003-.006.022.013.046.037.033.07.016-.008.042-.021.05-.054a.115.115 0 0 1-.022.125c.02-.014.088-.046.104-.12.014.008.023.028.03.041 0 0 0-.007.007-.007a.26.26 0 0 0 .131 0c.007-.006.011 0 .011.007-.007.026-.007.053.003.065 0-.006.019-.032.03-.032.015 0-.005.063.037.108.014-.181.108-.108.215-.181.012-.006.012 0 .01.007a.078.078 0 0 1-.042.059c.12.027.304-.154.329-.23.049-.006.095-.012.114-.012.34.032.107-.308.654-.207a.315.315 0 0 0 .133-.062c-.042.07-.045.223.029.236.036 0 .107.027.13.053.006.006 0 .006-.007.012a.543.543 0 0 0-.104.023c-.113.079-.12-.177-.242-.121-.007 0-.026.013-.033.02-.045 0-.117.058-.104.115a.122.122 0 0 1 .08-.049v.023c-.005.026.005.045.044.045.022 0 .028-.013.052-.013.01 0 .015 0 .015.013 0 .046-.155-.026-.126.103 0 .006.01.032.02.038-.006.04.026.075.097.06-.013-.008-.039-.027-.036-.047h.033c.01 0 .016 0 .019-.019 0-.007 0-.007.003-.007.007 0 .01.007.01.013 0 .007-.006.013-.006.027 0 .006.006.04.013.04-.007.048.062.1.13.048-.017 0-.062-.006-.068-.032a.114.114 0 0 1 .034-.01.083.083 0 0 0 .017-.053c0-.007.003-.007.006-.007.01 0 .023 0 .033-.006.016 0 .02.006.022.013.017.026.056.052.097.04.085-.027.014-.106.078-.122h.05c.064.016.161.016.177-.013.02-.033.01-.148-.058-.194-.042-.02.003-.069-.039-.127.074.026.15.058.243.058.184 0 .223-.025.308-.078.084-.056.184-.02.21-.02.023.007.042.013.035.046-.022.095.007.101-.012.148-.016.033-.09.007-.146 0a.074.074 0 0 0-.055.025c-.042.008-.094.05-.09.103a.152.152 0 0 1 .08-.046c0 .006.004.02.004.02.006.065.071.081.116.045.003-.006.02 0 .013.007-.042.026-.104.088-.052.108.004.007.019.013.035.02-.003.035.026.081.056.088-.014-.026-.016-.04.003-.082h.03c.045.006.022-.072.071-.105.003-.003.006 0 .003.006-.014.047-.02.105.016.12.003 0 .019 0 .032.005.013.037.058.062.11.03-.013-.007-.04-.02-.045-.036.01-.014.022-.04.026-.046.029-.095-.055-.095-.055-.134 0-.046.093-.013.093-.115a.064.064 0 0 0-.042-.06v-.006c.027 0 .055.006.069-.033-.069.007-.053-.05-.059-.088a.021.021 0 0 1 .004-.02c.022-.013.038-.042.032-.1-.023.032-.1.068-.11.005-.004-.006-.007-.052-.071-.04-.12.013-.204-.012-.425-.032.253 0 .629-.068.629-.21m-3.032.223c-.003-.007-.003-.007.003-.007-.003 0-.003 0-.003.007m.615-.564c.017.02.11.052.156.066-.075.013-.054.04-.1.04-.039 0-.061-.06-.056-.106m-.09-.042c-.019.032-.062.062-.097.027-.03-.034.003-.04-.032-.112.032.033.11.078.129.085m-.143.314c.014-.025.02-.045.037-.045.025 0 .04-.007.048-.034.013-.032-.016-.045-.043-.06.03-.008.043-.021.03-.04-.02-.014-.045.013-.052 0-.004-.014.017-.02.022-.034.013-.007.024-.007.04 0l.123.059c.016.014.026.014.026.03-.003.02.002.04-.01.045-.013.007-.01-.038-.032-.045-.02 0-.02.02-.006.052-.03-.013-.057-.025-.072 0-.017.027-.01.039.013.06.009.012 0 .036-.013.068-.01.026-.045.065-.088.04-.045-.02-.035-.072-.023-.096m.314.685l.004-.006c0 .006 0 .006-.004.006M35.572 21.006c0-.115-.123-.186-.491-.186-.374 0-1.506.133-1.506-.07 0-.134.384-.085.665-.078.011.026.04.046.08.059.478.134.973-.188 1.313-.07-.269-.252-.615.023-.974-.052.21 0 .43-.04.44-.101-.162.108-.625-.072-.816.05-.012.012-.022.018-.032.026-.354 0-.782-.054-.782.166 0 .37 1.297.154 1.605.154.307 0 .375.033.375.089 0 .088-.308.115-.486.115-.282 0-1.494-.167-1.972-.02.03-.076.142-.204.087-.268.048-.024.079-.057.081-.096a.214.214 0 0 0-.091-.046c.013-.016-.002-.042-.019-.062-.01 0-.02-.053-.026-.065a.702.702 0 0 0-.11-.07c-.055-.026-.094-.026-.11-.032-.013-.007-.062.013-.069.006-.022 0-.058 0-.064.033-.016-.026-.049-.033-.08-.04a.166.166 0 0 0-.013.136c-.043 0-.092.114-.13.094.013.04.026.053.038.053-.035.065-.048.147-.09.153.013.02.026.033.035.04a.807.807 0 0 0-.012.114l-.035-.012c-.027 0-.052 0-.06-.007-.015 0-.039-.007-.061-.007-.059-.006-.104-.101-.197-.16-.075-.047-.078-.075-.078-.154 0-.069.03-.128.023-.184 0-.006-.01-.04-.013-.06-.013-.045-.068-.074-.098-.064.017.013.032.025.04.065-.014.013-.03.033-.03.04-.016.013-.023.035.004.062.003.006.003.006.003.013 0 .006 0 .014-.003.032-.004.007-.01.007-.01 0-.02-.05-.043-.114-.078-.12h-.03v-.008c0-.052-.055-.087-.105-.032.008.007.03.007.039.02a.348.348 0 0 0-.011.052c-.004.049.033.062.084.07.01 0 .013 0 .016.006a.037.037 0 0 1 .007.02c.003.012 0 .012-.007.006-.086-.04-.12.006-.12.04 0 .006-.003.022 0 .028-.032.027-.039.073.016.106 0-.013-.002-.047.018-.053.002 0 .005 0 .008-.006.011.012.027.02.027.026.006 0 .022 0 .048-.02.01-.006.013-.006.023 0 .007.006.016.006.022.013a.018.018 0 0 1 0 .02c-.054.05-.045.108.026.121.013 0 .013.007.013.02-.006.101-.138.082-.138-.027-.071.122.064.211.164.154.004-.006.006 0 .01.008.006.013.017.028.035.028 0-.004.004-.015.024-.015.003 0 .003.006.003.011 0 .025.013.064.054.07-.009-.026-.003-.045.014-.045.016 0 .088.14.243.226.025-.007.068-.007.083-.04 0 .007.013.02.03.033.005.069.052.155.039.155-.023 0-.259-.008-.311.012-.066.043-.233.1-.289.03-.013-.026-.006-.042-.028-.083-.017-.025-.04-.045-.056-.045h-.044c-.024-.033-.084-.036-.115-.019.024.006.046.012.069.052-.006.006-.016.026-.02.033-.012.02-.007.055.1.094.007 0 .017.014.007.014-.012.013-.039.013-.059 0-.041-.033-.048-.082-.1-.059-.002 0-.019.013-.032.02h-.013c-.045-.014-.12.052-.088.107a.084.084 0 0 1 .062-.05c.003.015.01.028.01.033.01.057.032.103.145.024.014-.007.014 0 .01.007-.026.052-.107.098-.045.134.003 0 .017.007.027.02 0 .007-.004.007-.004.013-.01.06.051.108.093.101-.018-.013-.045-.041-.039-.095.02.006.033.014.036.014.052-.02.03-.09.059-.108.01-.007.015 0 .015.006.004.026.014.088.081.082.063-.006.088-.056.082-.095 0 0 0-.007.006 0 .023.013.042.033.036.062.01 0 .032-.017.045-.043.01.03.017.076-.026.115.024-.006.091-.04.105-.108.009.007.018.02.022.03 0 0 .002 0 .002-.007.027.013.066.013.134 0 .003-.004.006 0 .003.006 0 .027 0 .052.01.066 0-.006.019-.032.026-.032.018 0 0 .066.032.1.017-.163.21-.082.315-.144.011-.012.011-.006.009 0-.007.017-.02.044-.048.056.039.006.093-.02.135-.052-.003 0-.01.006-.012.013l.167-.076c0-.013.007-.032.01-.052.02-.006.039-.006.056-.013 0 .007-.003.007-.006.007.106.006.096-.082.14-.069.598.075.254-.263.963-.2.033 0 .046-.014.08-.036-.041.069-.041.184.034.197a.32.32 0 0 1 .123.05c.006.009 0 .016-.006.016-.04.006-.085.011-.097.025-.114.07-.118-.167-.237-.124-.003 0-.02.02-.027.026-.048 0-.113.052-.103.101a.144.144 0 0 1 .078-.043v.026c-.004.017.003.037.04.037.025 0 .027-.013.05-.013.007 0 .01.007.01.013 0 .046-.142-.023-.116.105 0 0 .012.023.022.03-.006.038.023.079.09.059-.012-.007-.038-.027-.035-.046.013.007.029.007.036.007 0 0 .01-.007.013-.027.003 0 .003-.007.006-.007.007.007.01.007.01.014 0 .013-.006.02-.006.026 0 .006.007.039.013.045-.006.04.055.089.122.043-.015-.004-.061-.01-.067-.028a.178.178 0 0 1 .035-.015c.01-.006.013-.025.013-.045.004-.013.007-.013.014-.013h.029c.012-.007.018 0 .022.007.006.032.045.05.09.039.075-.027.014-.095.072-.11.01-.005.035-.005.049 0 .061.015.155.008.17-.018.017-.033.008-.141-.057-.18-.046-.027 0-.07-.038-.128.07.025.138.058.232.058.166 0 .214-.025.288-.071.081-.05.176-.026.204-.026.02.006.039.019.033.045-.02.09.01.095-.01.14-.016.033-.09.008-.139 0-.03 0-.056.021-.056.027-.04.006-.087.046-.087.096.016-.007.047-.04.075-.04 0 .007 0 .013.004.013.006.066.073.085.11.046.006-.007.02 0 .012.006-.033.027-.097.083-.041.109l.029.012c-.004.04.02.076.054.082-.012-.016-.016-.028.004-.068h.029c.036 0 .02-.076.058-.102.006 0 .01 0 .01.007-.014.036-.02.095.016.108 0 0 .019.006.032.006.01.033.052.056.101.026-.013 0-.036-.011-.046-.032.013-.013.024-.033.024-.04.028-.094-.047-.094-.047-.127 0-.053.091-.02.091-.115 0-.014-.012-.04-.044-.059v-.006.006c.026-.006.054 0 .067-.029-.067.006-.049-.053-.058-.085 0-.014-.004-.02.002-.02.02-.02.04-.042.033-.096-.022.033-.093.065-.1 0-.003 0-.007-.052-.078-.039-.11.02-.185-.013-.399-.029.214-.013.6-.059.6-.2m-2.697-.301a.74.74 0 0 0 .145.058c-.071.014-.056.033-.096.033-.043 0-.056-.059-.05-.091m-.09-.05c-.02.03-.06.063-.094.03-.026-.03.003-.036-.033-.101a.476.476 0 0 0 .126.072m-.135.297c.012-.022.022-.042.032-.042.032 0 .045-.007.052-.027.013-.031-.016-.045-.045-.064.032-.008.045-.02.032-.03-.019-.013-.049.006-.052 0-.003-.013.013-.027.02-.033.013-.014.025-.007.042 0l.116.048c.013.015.023.021.023.04 0 .008.007.033-.007.04-.012 0-.01-.04-.039-.04-.012-.006-.012.014-.003.04-.026-.007-.051-.02-.064.006-.014.02-.01.04.009.056.007.006 0 .033-.01.06-.009.025-.042.063-.084.045-.043-.026-.035-.072-.022-.099M40.822 23.887c0-.006 0-.013.007-.013.022-.02.041-.052.038-.102-.026.034-.104.07-.104.007 0-.007-.003-.052-.07-.04-.111.013-.214-.012-.432-.026-.012-.006-.022-.012 0-.019.218-.016.603-.049.603-.184 0-.115-.123-.187-.496-.187-.369 0-1.503.135-1.503-.075 0-.134.384-.079.668-.073.01.027.036.04.077.053.477.142 1.018-.225 1.306-.135-.373-.133-.609.097-.969.02.21 0 .434-.045.444-.105-.165.112-.625-.069-.82.054a.086.086 0 0 0-.032.025c-.349-.007-.777-.045-.777.16 0 .371 1.292.156 1.6.156.31 0 .382.035.382.094 0 .089-.31.108-.486.108-.291 0-1.496-.161-1.978-.013.029-.082.145-.203.09-.27.045-.018.081-.054.081-.094a.189.189 0 0 0-.093-.045c.016-.02-.004-.046-.02-.063-.007-.006-.013-.058-.026-.065a.325.325 0 0 0-.11-.075c-.052-.027-.087-.027-.11-.027-.013-.007-.062.007-.065.007-.026 0-.058 0-.061.026a.138.138 0 0 0-.089-.033c-.018.04-.024.068-.009.134-.045 0-.086.109-.133.096.016.032.03.045.047.052-.04.061-.057.148-.098.148a.2.2 0 0 0 .062.055c-.004.04-.011.079-.011.108l-.064-.022h-.058c-.017-.007-.036-.007-.058-.014-.056-.006-.104-.101-.201-.16-.075-.039-.075-.078-.075-.154 0-.062.03-.122.026-.18-.004-.013-.013-.044-.02-.056-.013-.046-.068-.079-.097-.066a.091.091 0 0 1 .039.066c-.014.012-.03.033-.032.033-.01.015-.016.042.003.062.007.007.007.013.007.013 0 .006 0 .02-.007.033-.003.013-.007.006-.007 0-.012-.046-.038-.115-.077-.115-.004 0-.02-.006-.032-.006 0 0 .003 0 .003-.008 0-.045-.052-.085-.107-.026.012 0 .036.007.045.02-.007.014-.012.042-.012.042-.004.054.028.072.083.072.013 0 .016.007.016.013 0 0 0 .014.004.02.003.007-.004.007-.004.007-.084-.04-.122 0-.122.036 0 0-.004.027 0 .034-.026.018-.036.065.019.1-.003-.018-.003-.049.02-.055h.009c.007.006.02.02.023.02.006.007.019 0 .051-.02h.017a.108.108 0 0 0 .026.02c.003.007.003.007 0 .013-.056.055-.046.115.026.127.009 0 .012.008.012.014-.006.108-.142.082-.14-.02-.073.121.06.21.162.154.007-.006.011-.006.014 0 .007.016.017.037.033.037-.004 0 .006-.027.023-.027.005 0 .005.012.005.02.004.026.013.058.052.065-.007-.026 0-.04.014-.04.022 0 .084.154.236.236-.003-.012.062-.035.09-.055a.1.1 0 0 0 .053.069l.022-.02c-.01.08.075.148.062.148-.023 0-.165-.02-.214.006-.069.04-.237.105-.288.033-.017-.026-.014-.053-.036-.088a.082.082 0 0 0-.052-.046h-.042c-.03-.026-.088-.033-.113-.014a.09.09 0 0 1 .06.047c-.001.013-.015.032-.015.032-.01.023-.007.063.1.102.007 0 .02.006.01.013-.016.007-.039.013-.061-.007-.042-.033-.05-.078-.1-.051-.004 0-.017.006-.033.012h-.01c-.048-.006-.12.059-.087.115a.08.08 0 0 1 .058-.056c.003.013.007.03.01.036.01.06.032.099.145.026.014-.006.014 0 .007.007-.024.046-.1.088-.042.128 0 .007.017.013.026.02-.004.006-.004.012-.004.012-.01.063.055.116.098.109a.108.108 0 0 1-.043-.095c.017.006.03.013.036.006.052-.02.03-.092.061-.108.007-.006.01 0 .013.006.004.03.017.09.081.082.062 0 .09-.058.082-.088 0-.006.003-.006.009-.006.02.012.039.036.033.069a.173.173 0 0 0 .045-.05.118.118 0 0 1-.027.122c.027-.014.089-.047.106-.119.011.014.022.026.022.04 0 0 .002-.007.006-.007a.243.243 0 0 0 .126 0c.01-.007.01 0 .01.007-.007.02-.007.052.006.065 0-.006.017-.033.026-.033.019 0 0 .06.036.102.015-.167.104-.102.207-.167.013-.01.013-.007.01.007a.092.092 0 0 1-.046.052c.036.033.19-.066.19-.128 0-.013.054-.02.104-.026.105.007.092-.082.134-.075.605.082.258-.262.968-.194.032 0 .049-.04.078-.068-.035.068-.04.209.036.23.028 0 .097.025.123.045.007.006 0 .012-.003.012-.045.004-.092.017-.104.03-.11.072-.114-.17-.23-.128-.007.008-.026.02-.032.026-.048 0-.11.06-.101.109.016-.02.039-.043.075-.043v.023c0 .02.006.04.045.04.022 0 .029-.014.043-.014.01 0 .015.007.015.014 0 .045-.146-.026-.117.095.003.006.014.033.02.039-.006.039.026.078.091.052-.013-.006-.036-.026-.03-.046.01.007.023.007.027.007.005 0 .012-.007.015-.02 0-.006.004-.006.01-.006.01 0 .013.007.013.013 0 .006-.01.013-.006.026l.006.04c-.002.043.058.094.126.043-.022 0-.061-.008-.068-.03.014-.007.03-.013.033-.013.01-.007.013-.027.013-.047 0-.013.006-.013.01-.013h.032c.016 0 .016.007.022.013.014.027.047.053.095.033.074-.026.01-.098.07-.108.014 0 .034-.007.05 0 .061.01.152.01.168-.02.016-.026.007-.14-.058-.18-.04-.02 0-.073-.036-.12.07.025.139.047.23.047.171 0 .224-.015.305-.062.09-.059.177-.026.21-.026.016.007.032.014.023.047-.024.089 0 .095-.016.134-.023.033-.094.006-.146.006-.026-.006-.049.02-.053.02-.042.013-.093.05-.097.095.02-.007.047-.033.08-.04v.02c0 .06.066.08.109.04.003-.007.02 0 .01.013-.033.026-.104.082-.053.101l.026.02c-.004.033.02.076.05.082-.008-.026-.01-.039.009-.075h.03c.041 0 .027-.079.07-.102.006 0 .01 0 .006.003-.016.047-.03.099.01.112 0 0 .016.007.026.007.01.035.052.055.103.03-.011-.008-.038-.018-.038-.03.01-.02.027-.04.027-.047.034-.088-.04-.094-.037-.128.004-.045.087-.019.094-.107a.056.056 0 0 0-.033-.06c-.003 0-.003 0-.003-.005.027 0 .052.006.074-.027-.074.006-.047-.05-.054-.089zm-2.66-.697c.02.012.101.045.147.058-.068.014-.055.042-.095.042-.044-.006-.061-.062-.051-.1zm-.09-.048c-.016.033-.058.06-.09.033-.033-.038.002-.041-.036-.1.036.018.11.062.126.067zm-.138.302c.015-.027.024-.05.04-.05.025.009.037 0 .046-.024.01-.027-.015-.04-.041-.059.026-.007.041-.02.026-.04-.017-.01-.043.02-.047 0-.006-.01.015-.016.02-.03.013-.006.023-.006.04 0l.116.055c.013.015.023.02.023.034 0 .013.006.04-.007.04-.013.006-.013-.033-.032-.04-.02 0-.02.013-.007.046-.03-.014-.055-.027-.065 0-.016.027-.013.035.01.062.003.006 0 .033-.01.06-.013.026-.045.055-.084.039-.042-.02-.038-.066-.028-.093zm-.095-.172h-.007.007zm.03-.13h-.01.01zM39.165 24.828c.009.02.039.046.084.06.453.133.968-.22 1.244-.135-.36-.13-.583.089-.926.017.203 0 .414-.037.424-.096-.156.102-.597-.062-.777.053a.186.186 0 0 0-.032.02c-.248-.008-.45-.008-.45.157 0 .354.938.148 1.232.148.296 0 .262.025.262.091 0 .075-.336.102-.504.102-.25 0-1.024-.134-1.49-.04.04-.075.12-.176.074-.23.042-.026.071-.058.074-.094a.214.214 0 0 0-.087-.04c.013-.026-.002-.045-.016-.065-.006 0-.017-.05-.03-.055a.258.258 0 0 0-.1-.072c-.055-.027-.087-.027-.11-.03l-.061.003c-.026 0-.055 0-.059.027-.022-.021-.044-.027-.08-.03a.17.17 0 0 0-.013.127c-.042 0-.081.109-.123.096.013.032.03.045.042.045-.04.062-.053.142-.09.148.012.017.022.023.034.035a.521.521 0 0 0-.022.135l-.042-.02h-.017c-.058-.006-.09 0-.184-.05-.07-.038-.07-.077-.07-.145 0-.066.027-.116.025-.182a.26.26 0 0 0-.016-.048c-.017-.04-.068-.073-.098-.06.017.007.035.027.04.06-.014.01-.026.023-.026.029-.014.02-.023.046 0 .066.006.006.006.006.006.012 0 .007-.003.014-.003.026-.003.01-.01.004-.01 0-.016-.044-.036-.11-.075-.11-.002 0-.018-.007-.028 0v-.007c0-.05-.049-.082-.098-.03.006.007.029.007.04.017a.162.162 0 0 0-.014.045c-.003.053.033.073.084.073.01 0 .01 0 .014.006.002.006.002.01.006.017.003.006-.004.006-.01.006-.08-.029-.114 0-.117.033 0 .006 0 .033.003.039-.025.02-.032.063.017.088 0-.012-.004-.035.016-.041.003 0 .01-.008.012-.008.008.014.02.017.02.017.006.007.02.007.05-.009.005-.008.012-.008.019 0 .003.006.012.006.022.009.006.007.003.014 0 .014-.049.059-.042.11.026.117.01.004.01.01.01.017-.004.104-.136.085-.13-.017-.068.114.058.203.156.145.004-.007.005 0 .01 0 .006.02.016.04.034.04 0-.008.004-.02.017-.02.007 0 .007 0 .007.005.003.027.013.065.048.072-.006-.018 0-.045.013-.045.019 0 .017-.045.137.027.01.018.025.038.047.045l.084-.013c-.008.062.011.17-.003.17-.022 0-.155-.016-.203.007-.066.039-.227.098-.272.026-.017-.02-.01-.046-.03-.076-.019-.026-.041-.038-.054-.045h-.043c-.022-.033-.084-.033-.11-.014.02 0 .046.008.061.047-.006.006-.011.026-.015.033-.013.016-.004.05.097.089.002.006.013.011.006.018a.049.049 0 0 1-.055-.007c-.042-.038-.048-.084-.093-.05a.177.177 0 0 0-.036.012c-.004 0-.004-.007-.01-.007-.045 0-.114.06-.08.108.002-.013.019-.036.054-.042a.07.07 0 0 1 .01.029c.01.06.032.098.143.02.009-.007.009.006.006.006-.03.053-.097.099-.042.128 0 0 .01.013.026.02-.004.007-.004.007-.01.013-.007.06.055.102.09.102a.102.102 0 0 1-.032-.09c.013 0 .025.008.033.008.054-.026.025-.082.057-.102.008-.007.014 0 .014.006.003.02.013.076.074.076.063-.006.088-.055.081-.089-.003 0 0-.006.007 0 .018.007.035.034.03.062a.165.165 0 0 0 .041-.041c.017.023.02.062-.023.107.023-.007.088-.039.097-.107.014.013.02.023.026.029h.004a.202.202 0 0 0 .122-.006c.007 0 .007.006.007.006-.007.026-.007.052.007.071 0-.012.015-.038.026-.038.016 0 0 .065.04.095.007-.151.137-.116.232-.178.009-.006.009-.006.009.007a.087.087 0 0 1-.045.05c.103.064.216-.083.246-.161.013-.004.023-.017.03-.029.006.019.01.029-.02.042.103.006.093-.068.129-.062.308.02.077-.264.566-.18.033.005.096-.027.12-.05-.032.063-.035.197.033.21a.335.335 0 0 1 .117.052c.006.007 0 .007-.004.013-.039 0-.08.01-.097.017-.1.072-.103-.151-.216-.116-.007.008-.02.014-.03.027-.045-.006-.107.053-.097.095a.153.153 0 0 1 .075-.036c-.004.013-.004.017-.004.023-.003.013.004.033.046.033.02 0 .022-.013.039-.013.006 0 .012.006.012.02 0 .039-.136-.027-.114.092a.21.21 0 0 0 .024.035c-.003.033.029.073.084.052-.01-.005-.033-.026-.029-.045h.029c.003.007.01 0 .012-.014 0-.006.004-.006.008-.006.006 0 .013.006.013.006 0 .014-.007.014-.007.027 0 0 .003.04.01.04-.007.042.055.088.116.042-.016 0-.055-.003-.06-.029.012-.007.027-.007.031-.014.006-.007.01-.02.01-.045 0-.007.009-.007.013-.007h.029c.014-.007.02 0 .022.007.014.033.042.052.085.038.077-.032.01-.094.074-.108.007 0 .026-.006.042 0 .062.014.145.014.162-.013.017-.026.01-.133-.058-.173-.033-.02.007-.066-.029-.122a.441.441 0 0 0 .217.056.592.592 0 0 0 .32-.068c.092-.053.176-.027.197-.02.02 0 .033.013.02.046-.038.074-.016.088-.041.128-.024.032-.088.005-.137 0-.022 0-.051.02-.051.02-.046.012-.097.048-.105.095a.108.108 0 0 1 .078-.04l-.003.02c-.01.058.052.079.094.039.007-.007.023 0 .01.007-.04.025-.113.074-.068.101.006 0 .019.006.029.013-.013.04 0 .076.026.076-.004-.017-.004-.03.026-.062h.026c.039 0 .042-.08.084-.095.006-.008.01 0 .006 0-.026.041-.042.095-.012.107.003 0 .016 0 .025.007.004.033.039.049.095.026-.006-.006-.033-.019-.033-.033.012-.012.029-.039.033-.039.048-.089-.023-.089-.014-.121.01-.053.085-.02.107-.1.007-.021.007-.054-.022-.06-.004 0-.004-.007-.004-.007h.004c.022 0 .048.006.067-.033-.063.007-.025-.043-.025-.075 0-.007 0-.013.003-.02a.112.112 0 0 0 .048-.09c-.026.027-.104.057-.097 0 0 0 .008-.044-.058-.032-.11.014-.263-.012-.464-.033-.012 0-.022-.005 0-.012.201-.013.613-.044.613-.177 0-.112-.02-.174-.369-.174-.35 0-1.143.127-1.143-.072 0-.102.153-.089.337-.076m-1.144-.026c-.019.033-.059.059-.09.026-.026-.032.003-.04-.03-.095a.61.61 0 0 0 .12.07m.07.218c-.012 0-.012-.04-.031-.04-.019-.005-.016.015-.006.04-.026-.007-.046-.025-.062 0-.013.024-.005.037.01.056.009.014 0 .034-.007.058-.008.027-.045.058-.083.038-.037-.017-.03-.062-.024-.089.014-.026.024-.04.036-.04.023 0 .038-.006.046-.023.009-.031-.017-.045-.04-.058.026-.014.04-.027.026-.032-.02-.021-.043.005-.048-.007-.003-.014.013-.02.022-.027.01-.01.02-.01.036 0l.11.052c.013.007.023.014.023.033 0 .008.007.032-.007.04m.058-.086c-.038 0-.054-.055-.044-.094.012.019.093.045.136.055-.065.013-.049.04-.092.04M38.795 26.473c.01.027.035.046.084.066.45.128.968-.22 1.243-.134-.356-.132-.587.088-.926.016.201 0 .415-.042.424-.095-.156.102-.595-.075-.78.046a.113.113 0 0 0-.036.033c-.139.03-.259.108-.259.21 0 .302 1.16.065 1.16.166 0 .076-.227.155-.531.155-.233 0-.633-.155-1.13-.027v-.006c.035-.085.139-.214.094-.269.04-.02.067-.052.07-.085-.025-.03-.055-.036-.08-.043.01-.02-.004-.038-.023-.06-.003 0-.014-.04-.023-.054a.338.338 0 0 0-.097-.066c-.048-.026-.081-.026-.1-.033-.013-.007-.055.014-.062.014-.02-.007-.052-.007-.055.019a.263.263 0 0 0-.075-.033.151.151 0 0 0-.012.121c-.04.007-.078.105-.117.092.013.036.026.043.039.043-.032.065-.05.134-.09.14.019.02.034.033.044.04a.94.94 0 0 0-.02.288c-.067-.074-.174-.248-.248-.287-.065-.04-.065-.07-.065-.142 0-.055.023-.109.019-.16a.206.206 0 0 0-.013-.056c-.01-.04-.058-.065-.086-.06.011.014.032.027.035.06-.013.013-.026.033-.026.033-.013.016-.02.036 0 .056.006.007.006.007.006.012 0 .006-.004.02-.006.027 0 .013-.004.006-.007 0-.013-.04-.038-.095-.072-.102h-.026v-.013c0-.039-.045-.072-.095-.027.008.007.032.007.038.02-.003.02-.013.043-.013.05-.003.04.032.058.08.058.007 0 .013 0 .013.007a.04.04 0 0 0 .007.02c0 .006-.004.006-.007.006-.078-.033-.11 0-.113.03 0 .006 0 .027.003.033-.025.019-.035.059.014.098 0-.02-.004-.046.018-.053.004 0 .007 0 .014-.006l.02.02c.003.007.015 0 .044-.014.003-.006.007-.006.014 0 .01 0 .016.007.023.014.002.007.002.007 0 .013-.05.05-.04.094.025.108.01.007.013.007.013.019-.006.095-.13.076-.122-.019-.071.108.05.19.142.134.006 0 .01 0 .01.007.006.014.012.033.032.033-.004-.007.003-.02.02-.02.005 0 .01 0 .01.007 0 .028.005.062.041.062-.007-.019 0-.034.01-.034.02 0 0 .142.136.22.023.083.088.128.158.122.023.06.059.108.049.108-.02 0-.181-.02-.223.007a.448.448 0 0 1-.15.053l-.01.013c.008-.007.008-.013.01-.013-.045.006-.087 0-.11-.027-.016-.026-.012-.046-.032-.076a.085.085 0 0 0-.048-.045h-.04c-.022-.027-.076-.027-.103-.014.019.007.042.014.059.04-.007.02-.014.03-.014.036-.013.02-.003.052.09.086.008 0 .017.013.008.013-.017.006-.037.012-.056-.007-.042-.027-.042-.072-.09-.047 0 0-.016.014-.029.014h-.01c-.045-.007-.11.052-.078.102a.068.068 0 0 1 .052-.043l.013.029c.003.046.025.093.126.02.013-.006.013 0 .01.007-.022.046-.094.084-.039.12.003 0 .01.008.023.015-.003.005-.003.005-.003.011-.013.06.051.103.083.096a.1.1 0 0 1-.032-.088.2.2 0 0 0 .032.013c.046-.02.024-.083.052-.101.01-.007.01 0 .01.012.007.016.016.076.075.068.054-.006.08-.052.078-.08 0-.007 0-.007.003-.007.02.013.039.035.03.062.009 0 .031-.02.041-.037.013.024.017.062-.023.096.023-.007.08-.034.094-.096.01.004.02.017.02.03.004 0 .004 0 .006-.006.019.013.056.013.116 0 .004-.007.006 0 .006.007-.006.02-.006.045.007.058 0-.006.017-.033.023-.033.017 0 0 .06.036.096.01-.148.091-.09.185-.152.01 0 .011 0 .01.004-.01.02-.02.04-.043.052.036 0 .14-.046.14-.101 0-.02.067-.086.087-.256h.032c.127-.006.181-.099.308-.105-.032.033-.042.125-.042.174.003.073.09.148.113.167.007.006.003.006-.004.014a.26.26 0 0 0-.09.019c-.1.069-.1-.148-.207-.108-.007.007-.023.016-.03.023-.045-.007-.1.045-.086.092.013-.013.032-.034.064-.04v.027c0 .013.003.032.04.032.022 0 .026-.012.042-.012.006 0 .012.006.012.018 0 .037-.133-.025-.107.083 0 .006.013.027.016.033-.003.036.026.069.085.049-.014-.007-.032-.02-.03-.037h.026c.007 0 .013 0 .017-.018 0 0 0-.007.003-.007.002.007.012.007.012.013 0 .005-.012.012-.012.022 0 .007.006.034.016.034-.01.038.052.084.11.044-.016-.006-.052-.006-.058-.031.012 0 .029-.007.029-.013.009 0 .013-.02.013-.034 0-.01.006-.01.01-.01h.026c.012-.007.018 0 .022.007a.066.066 0 0 0 .081.03c.072-.02.014-.089.068-.103h.042c.052.014.1.027.116 0 .014-.025.008-.134-.054-.166-.035-.02.051-.243-.116-.345.077.02.333.057.371-.006.08.02.172.069.182.089.009.013.016.032-.007.046-.068.045-.058.062-.096.075l-.008.007c-.018-.027-.04-.063-.071-.07-.019-.019-.045-.006-.048 0-.036-.012-.09 0-.107.043.017-.006.049-.01.078-.006a.037.037 0 0 0-.007.019c-.004.014.003.027.017.033.003 0 .003.006.006.006.003.007.003.014-.006.014-.04-.014-.113-.014-.095.033l.007.033c-.025.016-.035.061-.016.082.006-.02.013-.027.045-.04.01.007.02.02.02.02.022.026.061-.04.103-.02.003 0 .003 0 .003.007-.038.012-.077.046-.061.078l.013.023c-.013.027-.003.072.045.086-.003-.007-.013-.033-.007-.052.014 0 .04-.007.043-.007.078-.04.03-.09.055-.116.029-.025.065.054.126-.006.007-.006.02-.033.01-.055 0-.007 0-.007.003-.007.017.016.03.036.059.016-.046-.035.006-.056.022-.089.004-.006.01-.006.013-.006.022.006.055 0 .084-.039-.036.006-.125-.05-.068-.069.071-.026.09-.073.059-.108-.062-.086-.188-.092-.191-.18h.114c.39 0 .64-.109.63-.237-.012-.268-1.18.027-1.18-.173 0-.059.073-.102.164-.135m-.848.04c.012.02.09.042.128.055-.057.014-.044.033-.083.033-.036 0-.053-.052-.045-.088m-.08-.04c-.018.027-.054.06-.087.027-.025-.027 0-.04-.028-.093.028.027.097.06.116.066m-.126.27c.013-.021.022-.04.032-.04.023 0 .036-.006.043-.023.01-.032-.014-.039-.037-.059.026-.007.037-.013.026-.026-.02-.013-.042.006-.044 0-.007-.013.012-.027.018-.033.007-.013.023-.007.037 0l.1.052c.016.007.022.013.022.027 0 .013.008.04-.006.04-.013 0-.013-.033-.026-.04-.019 0-.019.013-.006.04-.026-.007-.052-.021-.061.002-.013.02-.01.033.01.053.005.012 0 .033-.01.052-.01.026-.04.063-.076.042-.039-.022-.035-.068-.022-.088M20.106 5.978a.41.41 0 0 0-.41-.414.408.408 0 0 0-.405.414.407.407 0 1 0 .815 0"/>
        <path fill="#FFF" d="M20.008 5.21a.415.415 0 0 0-.41-.414.414.414 0 0 0-.405.414c0 .23.182.414.406.414a.41.41 0 0 0 .41-.414"/>
        <path fill="#FFF" d="M20.044 4.994a.41.41 0 0 0 0-.82.41.41 0 0 0 0 .82"/>
        <path fill="#FFF" d="M20.797 4.952a.411.411 0 0 0 .415-.414.41.41 0 1 0-.82 0c0 .23.18.414.405.414M23.928 4.383a.408.408 0 0 0 .578-.009.416.416 0 0 0 0-.581.42.42 0 0 0-.578 0 .435.435 0 0 0 0 .59"/>
        <path fill="#FFF" d="M24.045 3.768a.421.421 0 0 0 0-.58.4.4 0 0 0-.578 0 .414.414 0 0 0 0 .58.4.4 0 0 0 .578 0"/>
        <path fill="#FFF" d="M23.292 3.647a.426.426 0 0 0 0-.59.418.418 0 0 0-.578 0 .426.426 0 0 0 0 .59c.158.156.42.156.578 0"/>
        <path fill="#FFF" d="M22.65 4.126a.414.414 0 0 0 0-.58.4.4 0 0 0-.578 0 .424.424 0 0 0 0 .59c.158.155.42.155.578-.01M20.632 3.515l.223.506.292-.352c.01.007.022.013.033.013.025.167.035.46.035.626 0 .2.159.368.362.368a.364.364 0 0 0 .357-.368.369.369 0 0 0-.188-.324 2.976 2.976 0 0 1-.399-.38c.007-.013.013-.024.017-.043l.482.043-.194-.518-.356.314c-.007-.006-.011-.006-.023-.012l-.026-.532-.492.19.33.393a.081.081 0 0 0-.02.044l-.433.032zM23.912 4.412c.109.174.148.256.159.396-.088-.04-.186-.127-.296-.275l.062.665c.075-.114.143-.197.234-.236-.024.436-.198.613-.344.646a.286.286 0 0 1-.337-.223c-.036-.193.13-.315.3-.142.027-.402-.287-.396-.43-.221.168-.395.098-.65-.24-.859-.213.363-.123.6.149.874-.264-.134-.501.093-.268.394.053-.26.272-.206.324.007.045.17-.123.402-.405.485-.408.121-.537-.142-.635-.357.084-.067.299-.046.528.108l-.197-.652a.67.67 0 0 1-.389.396c-.013-.193.123-.577.123-.577l-.777.324s.36.174.482.322a.632.632 0 0 1-.547-.013l.308.609c.065-.27.2-.436.3-.455.082.23.172.511-.203.712-.263.133-.535.095-.629-.066-.107-.178.013-.384.228-.23-.037-.378-.364-.378-.457-.094.002-.384-.094-.617-.496-.732-.104.39.026.622.415.78-.22-.016-.454.2-.153.47 0-.25.198-.276.311-.116a.28.28 0 0 1-.09.397c-.127.082-.37.075-.69-.22.094-.035.2-.017.336.006l-.417-.517c.025.186.013.322-.026.403-.087-.102-.117-.19-.158-.397l-.321.29c.301.192.654.48 1.075 1.068.44-.282 1.234-.667 1.73-.87a13.518 13.518 0 0 1 1.835-.603c-.103-.717-.054-1.17.035-1.518l-.43.02zM30.132 22.664c.11-.308-.45-.653-.508-1.094-.068-.444-.013-.859-.51-1.446-.49-.577-2.184-2.416-2.696-2.996.13-.013.428-.085.745.216.185.174.543.518.88.86.45-1.161 1.005-2.026 1.798-2.929.103-.114.207-.228.314-.337-.292.089-.745.158-1.008.337-.019-.503.02-.913-.317-1.235.13-.705.017-1.553-1.548-2.606.798.193 1.272.922 1.882.367-.551-.019-.563-1.229-2.54-2.235.756-.014 1.349 1.222 2.223.517-.827-.094-1.098-1.58-2.585-2.034.516.059 1.047.307 1.49-.303-.518.128-.82-.35-1.373-.396.204-.652.155-1.055-.068-1.538-.388.026-.784.148-1.073.388-.038-.362-.413-.381-.737-.355.02.154.087.378-.081.41-.266.052-1.144.295-1.83.557-.684.269-1.464.76-1.69.922-.14.098-.26-.136-.337-.236-.244.21-.48.475-.305.75-.375.03-.8.135-1.152.416 0 .447.365.882.913 1.118-.92.93-.092 1.78-.898 2.586 1.134.047.94-1.56 1.51-1.78-.056 1.122-.681 1.328-.681 2.544 0 .645.386 1.35.04 1.78.952-.27.704-2.397 1.298-3.035.1.363.04.718-.085 1.082-.33.992.043 2.35-.475 2.792.968-.098 1.084-1.671 1.882-2.249-.684 1.416-1.393 4.439-2.413 5.95-1.656 2.259-2.63 5.019-4.149 5.019-.67 0-1.172-.416-1.172-1.276 0-2.566 4.355-4.332 4.355-7.068 0-1.215-.984-1.69-1.596-1.69-.414 0-.917.212-1.334.556a1.516 1.516 0 0 0-.515-.108c-1.535 0-1.124 2.796-2.465 2.774.528.298 1.447-.289 1.985-1.071-.223 1.81-2.804 1.333-2.61 3.51.366-1.711 4.472-1.456 4.472-4.048 0-.286-.145-.538-.349-.722.308-.207.599-.275.868-.275.496 0 .94.37.94 1.101 0 2.292-4.325 4.226-4.325 7.041 0 .475.137.872.363 1.177-.305.138-.622.079-.883-.235-.023.73 1.003 1.186 1.647.818.142.053.293.086.448.092-.198.544-.855.702-1.202.679 1.062.842 2.908-.262 2.808-1.223.842-.685 1.376-1.865 1.981-2.639-.038.18-.068.358-.093.537-.622 1.142-1.202 2.165-1.363 3.669-.136 1.262-.765 2.39-1.635 2.39-.2 0-.51-.253-.658-.126-.272.24-.014.489-.014.718 0 .362-.683.719-.683 1.82 0 .498.288 1.095.178 1.426.278-.145.651-.62.803-1.229.302 1.462-.619 1.397.04 2.69.086-.428.508-.608.766-.428.26.18.14.307-.057.498-.188.194-.363 1.167.508 1.108-.161-.108-.172-.365.259-.46.598-.123.778.158 1.422.158.392 0 .501-.524.819-.524.31 0 .31.243.198.429.511-.141.605-.417.605-.705s-.233-.465-.058-.583c.178-.108.768.013.53.502.303-.06.468-.275.468-.653 0-.374-.424-.59-.82-.528-.064-.228-.411-.35-.725-.35-.706 0-.597.563-1.085.563-.778 0-1.532-1.026-1.532-2.753 0-.921.984-1.157 1.677-1.458.697-.309 1.918-1.069 2.65-2.305.572-.974.586-2.035.515-3.298.98.571 1.097 1.384 1.097 1.977 0 .777-.394 1.087-.71 1.23-.261.12-.348.078-.378.232-.038.196.094.311.207.377.36.18.282.524.383.889.1.38.424.96.974 1.39.062-.23.046-.597.01-1.076.758.37.149 1.908 1.613 1.908-.27-.16-.195-.564-.039-.614.152-.058.35.096.634.5.282.396.204.363.898.363.69 0 .38-.242.748-.242s.336.428.142.743c.619-.186.807-.661.593-1.154.544-.3.836.128.913.43.538-.544 0-1.203-.417-1.242a.433.433 0 0 0-.402-.43 4.752 4.752 0 0 0-.687-.02c-.255.02-.395.385-.693.385-.916 0-2.733-1.676-2.733-2.407 0-.731 1.736-1.17 1.736-2.298 0-1.478-1.432-1.98-2.637-2.933.425-.486 1.682-.6 2.397-.25.075-.409.336-.308.438-1.016.252.626-.01 1.164.25 1.426.2-.302.718-.256.69-1.029.157.485-.205 1.222.157 1.54.062-.396.295-.465.445-.465.148 0 .274.108.274.338 0 .596-.715.32-.715.98 0 .282.35.376.35.563 0 .18-.288.463-.635.217.117.265.343.489.647.489.314 0 .657-.256.79-.591.166.423.04.891-.262.955.318.16 1.072.005.985-.968.42.072.647.367.394.886.347-.093.668-.263.668-.64 0-.288-.315-.373-.172-.75M21.91 9.358c-.396.033-.386-.344-1.085-.517.488-.102 1.124-.352 1.67-.564.104.462-.086 1.039-.585 1.081m2.808 3.016c-.506.226-.904-.23-1.001-.538-.103-.311-.182-.57-.062-.686.217-.215.292-.39.16-.665-.156-.32-.49-.166-.85-.075.168-.307.185-.524-.044-.494-.273.032-.276.475-.425.421-.148-.048-.069-.307-.069-.445.004-.186.12-.259.312-.334l1.476-.57c.188-.07.322-.109.45.026.102.096.335.223.264.364-.076.148-.384-.17-.597 0-.188.14-.026.282.304.384-.32.193-.657.314-.55.655.09.288.259.364.57.364.161 0 .281.242.42.538.143.288.185.819-.358 1.055m.087-4.166c-.396.313-.92.026-1.16-.384.545-.233 1.176-.481 1.6-.75-.392.61-.123.885-.44 1.134M57.856 29.738c0 .686.55 1.236 1.223 1.236.674 0 1.221-.55 1.221-1.236 0-.677-.547-1.235-1.221-1.235s-1.223.558-1.223 1.235m.31 0c0-.504.412-.92.913-.92.5 0 .903.416.903.92a.915.915 0 0 1-.903.923.922.922 0 0 1-.913-.923M53.292 30.879a.729.729 0 0 0-.304.462.741.741 0 0 0 .19.619c.15.167.367.288.609.335.247.042.493.013.694-.1a.703.703 0 0 0 .385-.517c.08-.43-.282-.852-.797-.947-.285-.053-.567 0-.777.148m.554 1.1c-.35-.065-.599-.328-.548-.583a.393.393 0 0 1 .172-.255c.146-.102.343-.135.544-.102.311.056.554.288.554.525 0 .02-.003.038-.006.065-.046.256-.373.412-.716.35M46.556 13.515c-.383.296-.492.8-.25 1.121.246.315.752.325 1.133.033a.97.97 0 0 0 .373-.629.659.659 0 0 0-.123-.491.663.663 0 0 0-.437-.243c-.23-.033-.486.048-.696.21m-.068.724c0-.16.096-.348.262-.475.143-.108.311-.168.463-.147a.35.35 0 0 1 .226.12c.065.091.071.194.063.262a.655.655 0 0 1-.256.417c-.234.186-.553.2-.694.026a.353.353 0 0 1-.064-.203M51.856 28.823c-.184.18-.291.456-.298.744v.023c0 .282.094.544.272.725a.675.675 0 0 0 .998.019c.181-.18.29-.448.3-.737a1.13 1.13 0 0 0-.207-.679.72.72 0 0 0-.563-.305.707.707 0 0 0-.502.21m.473 1.41a.404.404 0 0 1-.272-.135.716.716 0 0 1-.184-.525c.003-.213.074-.4.2-.521.062-.055.152-.127.282-.121.255 0 .467.302.46.659a.772.772 0 0 1-.208.521.399.399 0 0 1-.278.121M45.872 18.823a.723.723 0 0 0-.41.357c-.19.397.048.912.517 1.134.26.129.547.154.79.066a.676.676 0 0 0 .411-.36.707.707 0 0 0 .02-.552c-.081-.242-.282-.452-.543-.58a1.02 1.02 0 0 0-.785-.065m.243 1.21c-.317-.155-.483-.473-.369-.711a.367.367 0 0 1 .228-.198.696.696 0 0 1 .55.05.742.742 0 0 1 .381.403.394.394 0 0 1-.006.308.41.41 0 0 1-.233.2.753.753 0 0 1-.551-.052"/>
        <path fill="#FFF" d="M58.722 17.55c.398 1.107 1.188 1.503 1.794 1.221-1.35-.16-.255-2.497-1.994-2.497a1.28 1.28 0 0 0-.28.033c-.294-.314-.63-.45-1.13-.45-.738 0-2 .719-2 2.204 0 3.188 3.661 3.471 3.661 6.292 0 .827-.615 1.338-1.302 1.338-.618 0-1.113-.697-1.631-1.79-.246-.527-.781-1.236-1.345-1.985a.994.994 0 0 0 .545.199.688.688 0 0 0 .508-.193.712.712 0 0 0 .217-.5v-.032c0-.248-.11-.511-.298-.717-.2-.21-.46-.338-.72-.345a.69.69 0 0 0-.72.692v.03c0 .104.02.22.058.32-.791-1.042-1.522-2.06-1.522-2.625 0-.491.337-.927.754-1.452.016.014.143.082.143.082l.11-.121a79.05 79.05 0 0 1 1.085-1.19l.038-.046-.004.006.153-.166-.391-.319c.103-.238.194-.501.262-.782.123.513.382.838.742.737-.24-.531.242-1.243-.075-2.54.302.504.731.766 1.042.672-.811-.725.244-1.744-.815-3.318.347.121.573.052.728-.121-.965-.141-.524-1.384-2.218-1.833.421-.075.667-.324.605-.543-.447.32-.838-.614-2.306-.587-.09-.558-.599-1.141-1.175-1.423.11.43.01.82-.103 1.141L46.36 2.19c-.14-.134-.218-.158-.256-.116-.039.054-.036.135.055.24l4.102 5.208c-.31.106-.61.24-.931.354a.57.57 0 0 0-.356.538c-.759.384-1.43.86-1.762 1.164-.253.233-.454.289-.23.813.083.2-.179.692.414.327.392-.236 1.277-.723 1.405-.415.072.16-.365.37-.666.485-.302.117-.625.354-.576.468.044.115.284-.006.297.115.02.142.113.263.233.263.12 0 .272-.257.37-.164.097.082-.05.645-.143.793.463-.06.76-.508.774-.86.012-.343.107-.435.177-.477.072-.053.156.37.063.626.245-.054.498-.385.465-.988.123-.1.25-.173.345-.173.154 0 .464.436.906.436.812 0 1.262-.666 1.311-.98.039-.256.02-.499-.116-.685.291.24.385.609.385.885 0 1.164-2.033 1.714-2.87 2.52a.613.613 0 0 0-.09.086l-.955-.378-.065.218-.055.18c-.1.331-.307 1.023-.434 1.419-.003 0-.052.16-.052.16l.084.054c-.567.76-1.02 1.612-1.124 2.49a7.774 7.774 0 0 0-.696-.642c.026-.088.042-.177.052-.269a.965.965 0 0 0-.22-.686.643.643 0 0 0-.44-.221.621.621 0 0 0-.467.18.625.625 0 0 0-.08.08c-.033-.025-.069-.051-.101-.078-.314-.242-.707-.537-.942-.8-.1-.114-.201-.17-.415-.17-.085 0-.285-.013-.428-.013-.139 0-.22.115-.382.256-.08.069-.295.242-.545.43a9.016 9.016 0 0 1 .53.593c.067-.05.122-.096.168-.128.1-.09.23-.109.353-.109.122 0 .295.096.414.282.088.128.858 1.16 1.5 1.87a13.8 13.8 0 0 0-.205.077c-.271.115-.89.089-1.162.07-.279-.027-.33-.096-.515.206-.074.108-.161.242-.257.357-.09.115-.16.242.033.57.282.485.982 1.754 1.215 2.33.23.572.505.667.952.847.447.19 1.205.633 1.295.734l.03-.44c-.133-.133-.557-.301-.719-.353-.159-.055-.205-.134-.01-.134.19 0 .728.193 1.104.354-.113-.436-.518-.906-.76-1.174-.321-.089-.649-.089-.782.013a.175.175 0 0 1-.18.206.174.174 0 0 1-.173-.226c.043-.134.234-.173.195-.423-.043-.242-.343-.281-.537-.308-.273-.396-.59-.983-.73-1.216-.142-.236-.058-.37.04-.452.233-.193.72.101 1.69.167.336.016.768.043 1.205.062.126 1.141.58 2.23 2.15 2.626.767.19 1.558.76 1.83 1.505-3.138-.053-3.63 1.183-3.63 2.35 0 1.323 1.104 1.252 1.104 2.246 0 .87-2.636 1.228-3.433 1.35-.674.098-1.059.249-1.383.577-.323.328-.65.645-1.243 1.242 0 0 .253.059.502.046l.447-.584c.133-.2.223-.357.31-.347.088.02.03.167-.078.373l-.365.627c1.548.108 1.651-.473 1.651-.718 0-.237-.385-.397-.162-.551.22-.148.412-.044.589.167.176.206.234.384.662.227 0 0 3.374-1.417 3.801-1.616.382-.17.272-.345.046-.538-.253-.21-.294-.551-.294-.909 0-1.031.612-1.35 1.71-1.33-.02.177-.033.344-.033.499 0 1.612 2.407 3.188 3.06 3.188.288 0 .68-.218.706.755.016.71.158 1.215.032 2.042-.126.826-.362.954-.851 1.301-.49.351-.953 1.44-1.16 1.669.217.146.454.167.635-.365.15-.441.32-.753.512-.858-.191.483-.33 1.193-.421 1.409.615.108 1.612-.462 1.612-.902 0-.435-.343-.402-.343-.697 0-.128.156-.27.343-.27.247 0 .435.198.454.29.272-.148.445-.423.434-1.066-.006-.25-.016-.511-.025-.78.015.038.032.072.051.108.12.18.314.296.557.315.227.02.467-.046.673-.187.24-.164.412-.397.46-.652a.717.717 0 0 0 .017-.162.663.663 0 0 0-.111-.376.704.704 0 0 0-.453-.302 1.024 1.024 0 0 0-.774.167 1.052 1.052 0 0 0-.447.597c-.051-.878-.114-1.705-.09-2.036.036-.493.055-.711-.11-.789-.163-.07-.34.206-.578.206-.235 0-.941-.666-.941-1.357 0-.697.74-1.592.706-2.547-.014-.3.171-.455.288-.187.142.328.356.767.674 1.128-.198 1.196 1.108 2.367 2.179 1.505-.531.075-.895-.397-1.13-.88.093.015.186.027.288.027.054 0 .11-.007.163-.007.375.473 1.57.43 1.88-.737-.21.247-.642.43-.952.39.45-.357.684-.934.684-1.554 0-3.041-3.648-3.399-3.648-6.165 0-1.03.891-1.692 1.507-1.692.236 0 .417.072.567.187-.237.242-.364.61-.343 1.056.097 2.19 3.626 2.075 3.672 3.13.394-1.587-2.235-1.095-2.332-3.232zM49.33 9.16c.171-.331 0-.833.595-.833.295 0 .558.295.91.41-.574.053-1.091.18-1.505.423zm-3.226 6.703a.63.63 0 0 1-.188.436.345.345 0 0 1-.233.096c-.203-.011-.362-.257-.362-.532v-.042a.625.625 0 0 1 .184-.436.343.343 0 0 1 .24-.092.324.324 0 0 1 .223.118c.097.109.149.275.136.452zm10.425 15.36a.753.753 0 0 1 .323-.455.708.708 0 0 1 .541-.121c.077.013.188.059.256.166a.405.405 0 0 1 .052.302.766.766 0 0 1-.327.452c-.298.194-.654.175-.797-.041a.402.402 0 0 1-.048-.303zm-2.193-10.191a.39.39 0 0 1 .118-.281.385.385 0 0 1 .287-.106.738.738 0 0 1 .495.25c.14.147.22.34.214.514a.395.395 0 0 1-.116.282.399.399 0 0 1-.286.102c-.17 0-.36-.096-.498-.242a.794.794 0 0 1-.214-.52zm-5.984-6.876c.171-.538.491-1.606.491-1.606l.555.222c-.163.062-.36.216-.532.378.127.058.352.072.505-.034l-.223.564c-.051-.089-.211-.295-.363-.331-.112.452.165.627.373.728.336.18.558.207.651.045.107-.192-.114-.46-.399-.344-.032-.295.133-.449.324-.449.152 0 .276.141.318.332-.02-.479.194-.85.628-.99.162.464.03.78-.317 1.12.181-.079.392-.065.475.062.104.162.069.385-.19.526-.058-.309-.412-.332-.512-.135-.1.2.052.384.362.563.364.201.651.082.845-.235-.12-.046-.326-.02-.517.101l.37-.697c.019.101.076.274.232.408.055-.153.136-.428.022-.677l.798.468c-.27.026-.464.23-.57.357a.752.752 0 0 0 .468 0l-.414.672c.007-.228-.071-.422-.168-.504-.175.324-.136.638.22.858.308.184.545.223.66.036.12-.19-.077-.485-.369-.383-.01-.295.163-.436.353-.43.153.013.266.188.295.384.114-.472.318-.74.794-.83.1.447-.11.821-.531 1.043.188-.06.369-.026.443.108.098.174.046.39-.223.512-.04-.312-.382-.371-.496-.177-.087.164.049.337.365.55.195.128.48.289.814-.038-.11-.123-.365-.155-.467-.155l.374-.476c-.014.181.11.374.219.456.055-.235.088-.478.062-.652l.466.377s-.751.813-1.127 1.229l-5.064-2.956zm4.94 12.607c-.2.284-.542.389-.766.228-.22-.16-.24-.517-.04-.805.198-.29.539-.39.766-.233.223.16.24.52.04.81zm1.44-2.301c-.198.28-.542.386-.765.225-.22-.16-.237-.518-.039-.807.204-.287.544-.386.767-.232.22.16.237.525.036.814zM93.27 72.033c2.604 0 4.71-2.073 4.71-5.773 0-3.73-2.106-5.803-4.71-5.803-2.603 0-4.71 2.073-4.71 5.803 0 3.7 2.107 5.773 4.71 5.773m0-13.797c4.797 0 7.343 3.524 7.343 8.024 0 4.47-2.546 7.995-7.343 7.995-4.797 0-7.342-3.525-7.342-7.995 0-4.5 2.545-8.024 7.342-8.024M12.696 52.08h2.914v9.534h11.537v-9.535h2.914v22.175h-2.914V64.097H15.61v10.157h-2.914zM34.1 52.08h3.988l6.904 18.633 6.936-18.634h3.988v22.175h-2.762V55.805h-.062L46.25 74.254h-2.484l-6.844-18.449h-.06v18.449H34.1zM75.292 51.623l1.215.043 1.213.17 1.131.296 1.047.382.963.507.88.635.752.765.67.888.587 1.018.419 1.145.294 1.314h-2.848l-.252-1.018-.418-.89-.544-.762-.629-.636-.753-.552-.839-.38-.877-.298-1.006-.168-1.005-.044-1.257.086-1.087.297-1.006.424-.837.55-.795.678-.628.805-.545.932-.419.976-.335 1.018-.25 1.1-.126 1.145-.042 1.144.042 1.23.208 1.185.294 1.103.46 1.058.545.977.67.89.795.719.921.635 1.005.425 1.13.297 1.257.127 1.256-.127 1.13-.254 1.047-.425.922-.549.754-.721.67-.805.46-.933.377-1.017.167-1.06.042-1.187h-6.825v-2.415h9.379v11.4h-1.8l-.754-2.713-.754.89-.878.722-.964.593-1.005.466-1.089.297-1.046.17-1.089.083-1.55-.127-1.422-.297-1.299-.508-1.214-.635-1.047-.85-.963-.931-.794-1.059-.671-1.188-.502-1.228-.377-1.313-.252-1.358-.083-1.397.083-1.44.168-1.4.292-1.314.42-1.272.544-1.186.669-1.102.796-1.016.88-.849 1.046-.763 1.131-.593 1.255-.423 1.383-.298 1.507-.085zM108.83 74.254h-2.672l-5.636-15.364h2.788l4.26 12.807h.056l4.14-12.807h2.614zM125.84 69.034c-.44 1.991-1.875 2.991-3.926 2.991-3.309 0-4.801-2.37-4.717-5.038h11.335c.148-3.7-1.494-8.769-6.854-8.769-4.125 0-7.113 3.376-7.113 7.976.146 4.681 2.43 8.06 7.258 8.06 3.396 0 5.801-1.842 6.476-5.22h-2.459zm-8.643-4.269c.18-2.344 1.732-4.325 4.335-4.325 2.46 0 4.247 1.924 4.361 4.325h-8.696zM130.58 74.254h2.489v-6.82c0-3.882 1.464-6.193 5.475-6.193v-2.67c-2.695-.089-4.365 1.126-5.563 3.586h-.06v-3.228h-2.34v15.325zM147.42 58.634l1.106.043.981.208.777.33.697.415.53.58.412.62.326.747.206.787.123.911.04.953v10.025h-2.457V63.94l-.121-.912-.246-.745-.45-.58-.614-.456-.78-.291-.857-.124-.943.082-.86.207-.694.374-.614.455-.491.54-.37.662-.285.788-.164.786-.041.911v8.617h-2.496V58.967h2.331v2.444h.041l.614-.869.656-.705.777-.539.86-.372.982-.208 1.024-.083zM188.49 69.034c-.44 1.991-1.873 2.991-3.924 2.991-3.31 0-4.801-2.37-4.718-5.038h11.336c.146-3.7-1.494-8.769-6.854-8.769-4.126 0-7.113 3.376-7.113 7.976.145 4.681 2.429 8.06 7.256 8.06 3.397 0 5.802-1.842 6.477-5.22h-2.46zm-8.642-4.269c.18-2.344 1.731-4.325 4.335-4.325 2.46 0 4.247 1.924 4.362 4.325h-8.697zM200.602 58.634l1.107.043.981.208.777.33.697.415.531.58.41.62.327.747.206.787.122.911.041.953v10.025h-2.457V63.94l-.122-.912-.245-.745-.45-.58-.614-.456-.779-.291-.858-.124-.944.082-.857.207-.695.374-.614.455-.493.54-.368.662-.287.788-.163.786-.041.911v8.617h-2.497V58.967h2.333v2.444h.04l.615-.869.655-.705.778-.539.858-.372.983-.208 1.023-.083zM153.95 58.91h2.344v2.256h.06c1.113-1.721 2.814-2.611 4.895-2.611 1.848 0 3.549.742 4.164 2.61a5.59 5.59 0 0 1 4.75-2.61c3.02 0 5.042 1.276 5.042 4.45v11.249h-2.492V64.193c0-1.899-.498-3.413-2.932-3.413-2.403 0-3.957 1.544-3.957 3.916v9.558h-2.491V64.193c0-1.988-.617-3.413-2.845-3.413-2.96 0-4.047 2.76-4.047 3.916v9.558h-2.492V58.91z"/>
        <g transform="translate(206.635 53.627)">
            <mask id="b" fill="#fff">
                <use xlink:href="#a"/>
            </mask>
            <path fill="#FFF" d="M5.778 5.283h3.02V7.51h-3.02v9.525c0 1.158.323 1.365 1.876 1.365H8.8v2.226H6.892c-2.58 0-3.607-.534-3.607-3.353V7.51H.705V5.283h2.58v-4.6h2.493v4.6z" mask="url(#b)"/>
        </g>
    </g>
</svg>
