<svg xmlns="http://www.w3.org/2000/svg" width="199" height="69" viewBox="0 0 199 69">
    <g fill="#333" fill-rule="evenodd">
        <path d="M0 68.374h2.28V.992H0zM30.886 6.957c-.292.407-.546.641-.504.952.037.314.491.53.704.85.196-.365.52-.641.483-.925-.042-.29-.592-.672-.683-.877M36.311 6.957c.288.407.546.641.504.952-.041.314-.491.53-.704.85-.196-.365-.52-.641-.483-.925.042-.29.584-.672.683-.877M27.81 7.043c.283 0 .523-.24.523-.525a.532.532 0 0 0-.523-.533.53.53 0 0 0 0 1.058"/>
        <path d="M28.21 7.405a.528.528 0 0 0-.524-.525c-.289 0-.52.24-.52.525 0 .296.231.532.52.532a.528.528 0 0 0 .524-.532"/>
        <path d="M28.388 8.294a.531.531 0 0 0-.525-.525.524.524 0 0 0 0 1.05.53.53 0 0 0 .525-.525M29.816 5.291a.528.528 0 0 0 .525-.525.522.522 0 1 0-1.044 0c0 .287.236.525.519.525"/>
        <path d="M28.917 5.576a.532.532 0 0 0 .524-.533.53.53 0 0 0-.524-.524.53.53 0 0 0 0 1.057"/>
        <path d="M28.206 6.198a.525.525 0 1 0-.524-.525c0 .295.24.525.524.525M30.768 5.382a.53.53 0 0 0 0-1.057.53.53 0 0 0 0 1.057"/>
        <path d="M31.668 5.647a.53.53 0 0 0 0-1.057.523.523 0 0 0-.523.524c0 .294.23.533.523.533"/>
        <path d="M32.514 6.047a.53.53 0 0 0 0-1.057.53.53 0 0 0-.524.524c0 .295.24.533.524.533M38.833 6.518c0 .286.237.525.524.525.289 0 .52-.24.52-.525a.524.524 0 0 0-.52-.532.528.528 0 0 0-.524.532"/>
        <path d="M39.477 6.88a.525.525 0 0 0-.524.525c0 .295.241.532.524.532a.529.529 0 0 0 0-1.057"/>
        <path d="M39.298 7.77a.527.527 0 0 0-.52.524.52.52 0 1 0 1.045 0 .528.528 0 0 0-.525-.525M37.346 5.291a.528.528 0 0 0 .525-.525.524.524 0 0 0-1.048 0c0 .287.24.525.523.525"/>
        <path d="M38.25 5.576a.528.528 0 1 0 0-1.057.53.53 0 0 0 0 1.057"/>
        <path d="M38.962 6.198a.525.525 0 0 0 0-1.049.525.525 0 0 0 0 1.049M36.399 5.382a.527.527 0 0 0 .525-.532.527.527 0 0 0-.525-.525.53.53 0 0 0 0 1.057"/>
        <path d="M35.498 5.647a.526.526 0 0 0 .524-.533.523.523 0 1 0-1.048 0c0 .294.242.533.524.533"/>
        <path d="M34.13 5.514c0 .296.23.533.52.533a.526.526 0 0 0 .523-.533.525.525 0 0 0-.524-.525c-.288 0-.52.24-.52.525M32.803 7.345h.588v-1.57a2.717 2.717 0 0 1-.588-.13v1.7z"/>
        <path d="M34.224 5.643c-.18.06-.378.106-.589.13v1.57h.589v-1.7zM33.493 4.18V2.974c-.611.131-1.087.6-1.195 1.206h1.195zM33.662 4.18h1.195c-.104-.598-.587-1.075-1.195-1.206V4.18zM32.31 4.36c.113.694.567 1.205 1.113 1.205s1-.511 1.117-1.206h-2.23zM34.047 2.833c-.26-.205-.456-.5-.495-.817.298.058.63.269.824.528v-1.26c-.194.26-.526.479-.824.53.035-.304.22-.588.474-.907h-1.205c.253.32.44.603.47.908-.294-.052-.63-.272-.82-.53v1.26c.19-.26.526-.471.82-.53-.038.318-.231.613-.494.818h1.25zM35.385 28.037c-1.142-.29-2.504-.784-3.779-1.366l.004-.018c.038-.259-.06-.555-.26-.778a.956.956 0 0 0-.72-.36c-.116 0-.232.03-.346.07a5.022 5.022 0 0 1-.525-.545 6.292 6.292 0 0 1-1.12-1.968 6.506 6.506 0 0 1-.33-1.308c-.064.371-.479.866-1.195.878.01-.075.004-.266-.059-.284-.188.209-.472.437-1.12.209.102.51.242 1.01.421 1.495a8.814 8.814 0 0 0 1.639 2.783c.236.266.48.513.735.746-.004.045-.01.1-.01.145 0 .27.26.702.633.884.305.147.63.111.93-.107.554.301 1.264.58 2.025.796.857.236 1.684.371 2.33.371.56 0 1.293-.265 2.022-.723.287-.19.56-.395.764-.592a.5.5 0 0 0 .078-.075c-.564.082-1.421-.075-2.117-.253M31.2 26.3l-.121-.087c-.225-.173-.406-.173-.607.002a2.392 2.392 0 0 0-.263.278l-.125.141.084.074c.236.186.27.391.2.515a.192.192 0 0 1-.12.097c-.113.027-.277-.013-.447-.113l-.09-.053-.053.087c-.012.024-.027.041-.045.066-.017.03-.039.058-.06.094-.099.178-.146.314-.146.425 0 .027.003.057.012.081.033.13.137.193.227.242l.056.036c.105.068.255.159.365.217a.646.646 0 0 1-.624.03c-.314-.16-.514-.519-.514-.696 0-.275.122-.625.343-.978l.036-.05-.032-.061a2.183 2.183 0 0 1-.165-.311c.12.015.24.034.356.063l.06.012.04-.041c.135-.155.619-.643 1.063-.643.203 0 .41.109.565.284a.892.892 0 0 1 .209.442c-.063-.042-.135-.102-.204-.153m.738 2.195a.491.491 0 0 1-.487-.495c0-.27.218-.494.487-.494.272 0 .49.223.49.494a.492.492 0 0 1-.49.495m2.14.673a.449.449 0 0 1-.442-.452.45.45 0 0 1 .442-.455.454.454 0 0 1 0 .907M34.67 31.447a.703.703 0 0 0-.23.037V30.1a9.214 9.214 0 0 1-1.998-.309v1.698a.634.634 0 0 0-.242-.042c-.481 0-.78.408-.78.791 0 .346.21.675.389.889.089-.22.172-.388.289-.388.239 0 .132 1.193.827 1.223a.549.549 0 0 0 .51.742.546.546 0 0 0 .543-.549.566.566 0 0 0-.033-.193c.696-.03.58-1.223.82-1.223.118 0 .193.156.297.388.18-.214.389-.543.389-.889 0-.383-.3-.791-.78-.791m-1.236 3.017a.31.31 0 0 1-.304-.309.304.304 0 1 1 .608 0 .308.308 0 0 1-.304.309m1.63-1.744c-.083-.154-.204-.242-.307-.242-.465 0-.284 1.243-.843 1.243-.241 0-.373-.16-.373-.329 0-.178.123-.232.123-.373 0-.139-.107-.193-.23-.193-.119 0-.23.054-.23.193 0 .141.123.195.123.373 0 .169-.131.33-.373.33-.559 0-.374-1.244-.843-1.244-.1 0-.222.088-.303.242a1.1 1.1 0 0 1-.147-.482c0-.23.174-.55.538-.55.623 0 .477.86.776.86.134 0 .23-.081.23-.212 0-.247-.433-.47-.433-.826 0-.352.316-.645.662-.929.346.284.663.577.663.93 0 .355-.433.578-.433.825 0 .13.095.212.23.212.299 0 .152-.86.776-.86.364 0 .538.32.538.55 0 .129-.054.304-.144.482"/>
        <path d="M50.732 33.108a.146.146 0 0 0-.18-.087c-1.602.47-3.59-.865-5.51-2.163-1.616-1.088-3.145-2.119-4.453-2.119-.486 0-.916.105-1.287.304-.456.26-.798.66-1.016 1.197a7.224 7.224 0 0 1-.64 1.213c-.221.353-.387.607-.387.932 0 .258.113.495.337.718.185.19.453.37.839.576.083.048.167.09.247.123.314.16.514.266.55.45-.63.277-1.451.512-2.383.678a19.678 19.678 0 0 1-3.416.28c-1.22 0-2.37-.094-3.418-.28-.936-.166-1.756-.401-2.39-.685.026-.265.222-.377.569-.543.083-.039.164-.075.25-.123.317-.169.618-.335.821-.525.227-.198.332-.41.332-.669 0-.325-.162-.58-.383-.932-.185-.298-.42-.67-.639-1.213-.217-.536-.56-.937-1.02-1.191-.37-.199-.8-.305-1.281-.305-1.31 0-2.84 1.026-4.458 2.114-1.917 1.298-3.905 2.634-5.508 2.163a.15.15 0 0 0-.182.093.152.152 0 0 0 .084.185c.486.216.916.557 1.331.88.572.456 1.122.883 1.722.883.567 0 1.183-.18 1.925-.57.642-.34 1.314-.802 1.962-1.248 1.265-.872 2.572-1.774 3.814-1.872-.131.13-.256.246-.376.352-.368.328-.684.618-.684 1.194 0 .462.153.784.37 1.24.064.129.135.274.21.446.137.308.194.561.277.902.033.148.078.31.128.506.078.302.227.86 1.138 1.324 1.052.544 2.868.82 5.406.82 2.528 0 4.348-.276 5.401-.82.908-.465 1.058-1.022 1.138-1.324.05-.196.092-.358.126-.506.083-.34.14-.594.276-.902.103-.23.203-.413.29-.575.185-.36.34-.643.34-1.057 0-.582-.334-.883-.719-1.236-.123-.112-.254-.23-.388-.37 1.245.099 2.549 1 3.815 1.878.647.44 1.318.908 1.961 1.242.746.397 1.358.576 1.925.576.596 0 1.146-.427 1.722-.887.418-.319.848-.66 1.331-.876a.155.155 0 0 0 .081-.19M41.11 20.156c-.18-.13-.466-.4-.615-.724-.194-.395-.986-1.978-1.11-2.186-.102-.175-.156-.335-.156-.47 0-.167.082-.303.17-.42.063-.081.236-.253.295-.353.054-.08.1-.141.148-.187a7.629 7.629 0 0 0-.968-1.32 7.924 7.924 0 0 0-1.555-1.361c.307-.196.615-.488.615-.97a.884.884 0 0 0-.32-.685c.32-1.038.896-2.286 1.386-2.832l-1.03-.437c.265.406.286.89.224 1.166-.266-.183-.499-.442-.57-.783a4.854 4.854 0 0 1-.38 1.13c.3-.141.535-.205.836-.08-.17.24-.618.6-1.292.44-.365-.094-.728-.29-.716-.576.008-.166.131-.371.363-.354.227.028.24.372.168.522.296-.168.597-1.034.14-1.164-.36-.106-.692.398-.812.782-.068-.465-.26-.905-.623-.884-.478.036-.32.92-.156 1.143.03-.31.194-.477.337-.464.125.012.293.099.266.382-.033.278-.43.452-.883.452-.433 0-1.197-.135-1.272-.983.284.055.728.266.916.556a5.65 5.65 0 0 1 0-1.415c-.232.34-.63.513-.9.555.08-.365.387-.747.748-.974h-1.868c.355.227.668.61.746.974-.274-.048-.657-.22-.887-.555.06.536.06.902 0 1.415.185-.284.615-.501.9-.556-.073.848-.836.983-1.273.983-.45 0-.847-.174-.88-.452-.026-.283.14-.37.266-.382.14-.013.31.153.336.464.168-.223.32-1.107-.151-1.143-.367-.021-.558.419-.625.884-.118-.384-.452-.888-.817-.782-.457.13-.15.996.14 1.164-.066-.15-.054-.494.17-.522.23-.017.355.188.364.354.016.286-.349.482-.716.575a1.223 1.223 0 0 1-1.29-.434c.305-.136.55-.066.845.075a5.214 5.214 0 0 1-.38-1.13c-.074.346-.306.606-.58.797a1.624 1.624 0 0 1 .223-1.18l-1.027.437c.49.546 1.066 1.8 1.383 2.838a.906.906 0 0 0-.305.679c0 .482.305.774.611.97a8.054 8.054 0 0 0-1.555 1.36 8.846 8.846 0 0 0-1.638 2.763c.14.147.758.83.899 1.012.256.33.411.656.418.909.018.47.116.66.364.971.077.1.187.47.2.697h5.106v5.617c-.197.019-.411.07-.585.284a22.1 22.1 0 0 0 1.713.63c.057-.367.129-.59.317-.82 0 0-.743-.075-1.143-.094v-5.617h4.994a7.165 7.165 0 0 1-.407 2.225 6.362 6.362 0 0 1-1.119 1.966 5.2 5.2 0 0 1-1.662 1.321c-.1.052-.093.124-.195.169a1.3 1.3 0 0 0-.244.456 2.07 2.07 0 0 0-.116.512c.236.07.36.112.585.162 1.755.444 2.188.315 2.285.237h.004a7.823 7.823 0 0 0 1.104-1.047 8.886 8.886 0 0 0 1.641-2.787c.401-1.077.6-2.225.6-3.405 0-.217.01-.283-.005-.5zm-7.767.389h-5.112c.008-.803.142-1.58.406-2.31a6.398 6.398 0 0 1 1.118-1.966 5.285 5.285 0 0 1 1.66-1.328 4.494 4.494 0 0 1 1.928-.475v6.079zm.093-8.606c-1.707 0-2.88.506-3.567.967-.39-.235-.56-.467-.56-.741 0-.975 2.736-1.063 4.125-1.063h.002c1.387 0 4.128.088 4.128 1.063 0 .274-.173.506-.57.741-.684-.461-1.857-.967-3.558-.967zm.209 8.606V14.47c.627.03 1.236.185 1.806.47a5.222 5.222 0 0 1 1.662 1.328c.476.563.856 1.23 1.119 1.966.263.73.398 1.507.41 2.31h-4.997z"/>
        <path d="M37.851 19.555c.083.055.06.193-.057.184a5.758 5.758 0 0 0-.958-2.563c.003-.006.01-.006.015-.012a.333.333 0 0 0 .212-.272.323.323 0 0 0-.32.148 2.188 2.188 0 0 1-.11-.148 4.92 4.92 0 0 0-1.083-1.02 3.94 3.94 0 0 0-1.206-.557c.006-.1.134-.111.188-.024.012-.166-.123-.241-.206-.211-.038.015-.078.051-.087.124a.322.322 0 0 0-.226-.118.357.357 0 0 0 .069.241c-.064 0-.108.027-.132.064-.039.078.012.223.177.235-.078-.057-.049-.181.053-.175v1.972a.326.326 0 0 0-.328.082.324.324 0 0 0 .328.09v2.144c-.11.006-.135-.123-.051-.184-.161 0-.227.142-.194.218.024.054.074.09.161.078a.364.364 0 0 0-.08.229.347.347 0 0 0 .223-.088c-.012.094.03.133.075.164.078.036.22-.03.22-.194-.059.082-.187.058-.187-.042h1.474a.343.343 0 0 0 .086.326.333.333 0 0 0 .087-.326h1.643c.008.1-.123.136-.183.055.003.157.153.223.22.181.054-.024.087-.07.078-.164.05.045.129.082.225.082a.353.353 0 0 0-.09-.223c.09.006.137-.031.157-.085.034-.075-.032-.216-.193-.21m-1.415-2.615c-.042.039-.06.1-.048.141.019.045.057.094.15.1a.344.344 0 0 0-.117.211.384.384 0 0 0 .236-.052c-.021.088.01.14.05.17a.13.13 0 0 0 .132 0c.379.618.642 1.326.75 2.05a.289.289 0 0 0-.182-.054.307.307 0 0 0 .101.238H36.26c.01-.084-.033-.154-.086-.172-.048-.018-.111-.006-.168.057a.34.34 0 0 0-.099-.216.33.33 0 0 0-.098.216c-.054-.063-.12-.075-.167-.057-.054.018-.092.088-.087.172h-1.062a.352.352 0 0 0 .075-.22.312.312 0 0 0-.216.085v-1.753c.081.013.158-.02.174-.081.018-.046.012-.106-.062-.168.076 0 .15-.03.22-.103a.354.354 0 0 0-.22-.094c.074-.057.08-.118.062-.172-.016-.05-.093-.1-.174-.082v-1.476a.356.356 0 0 0 .188.075.385.385 0 0 0-.05-.211c.329.111.654.27.958.476.361.247.698.554.988.92"/>
        <path d="M36.977 19.008a.289.289 0 0 0 .136-.124c-.073.024-.125-.012-.14-.018.049-.036.105 0 .049-.094-.06-.093-.1-.093-.158-.03-.063.067-.458-.012-.454-.316.026.051.08.087.135.111.014.012.03.018.046.025.02.005.036.005.054.009a.192.192 0 0 0 .113.018c.008 0 .018.005.022.005v-.018c.08-.014.143-.063.152-.15.015-.166-.14-.242-.311-.39-.068-.054-.116-.105-.16-.147-.057-.117-.022-.223-.168-.443a1.264 1.264 0 0 0-.048-.193.553.553 0 0 0 .09.636c.167.181.522.364.505.518-.003.034-.037.07-.088.081-.017 0-.035 0-.053-.005-.009 0-.018-.006-.033-.012a.481.481 0 0 1-.075-.034c-.035-.023-.074-.048-.121-.096-.147-.142-.281-.34-.365-.458-.167-.212-.09-.413-.065-.589.116-.165-.072-.494-.18-.572 0 0 .024-.076-.005-.175a.158.158 0 0 1-.102.008c-.033-.057-.045-.068-.083-.075-.075-.012-.072-.051-.081-.081-.039.033-.05.076-.095.076-.06.005-.081 0-.106.023-.044.031-.062.05-.122.042-.072 0-.068.04-.063.088.003.03.007.076.052.094.005.006.011.011.02.011l.05.06.036-.065c.03-.024.115-.037.133.03.011.042.02.051-.036.058-.057.011-.088.011-.144.018-.035 0-.035.048-.033.078.003.039.043.057.123.039.08-.021.22-.033.22.036 0 .179-.202.172-.247.383a.367.367 0 0 1-.126-.117.84.84 0 0 0-.152-.19c-.041-.039-.091-.088-.152-.124-.066-.04-.068-.075-.068-.151 0-.06.026-.117.026-.178a.39.39 0 0 0-.018-.057c-.014-.037-.068-.066-.095-.06.012.012.03.03.036.062-.015.013-.027.031-.027.037-.013.012-.022.036 0 .06.003 0 .003.007.003.013 0 .011 0 .017-.003.026 0 .013-.003.013-.006 0-.016-.04-.036-.105-.081-.111h-.026l.002-.012c0-.045-.047-.081-.107-.02.011 0 .04.005.045.015a.24.24 0 0 0-.01.047c-.005.042.03.066.079.066.008 0 .015.006.015.01.002.005.002.012.005.018.003.012-.003.012-.005.006-.082-.034-.118.006-.12.042 0 0 0 .025.002.03-.03.018-.035.064.02.1 0-.018 0-.043.016-.055.007 0 .01 0 .013-.006.009.013.02.025.024.025.003.006.017 0 .041-.019.006-.006.012-.006.021 0l.027.019c.006.006.003.006 0 .011-.054.055-.044.1.018.118-.03.055-.122.036-.12-.052-.069.112.045.188.14.146.004.042.004.123.016.123-.003-.006.005-.021.02-.021.007 0 .01.005.01.012 0 .028.012.058.05.064-.006-.019.003-.024.012-.03.016.024.031.054.045.077.047.082.138.293.349.39-.107.057-.178.15-.247.235-.057.057-.144.123-.2.088-.025-.013-.03-.036-.06-.067a.224.224 0 0 0-.072-.015c-.003.006-.02.006-.033.015-.036-.015-.095.006-.113.036.023-.005.051-.012.08.013 0 .011 0 .036-.003.036-.002.03.02.05.13.045.005 0 .017.006.01.017-.01.007-.03.025-.059.013-.05-.013-.07-.052-.104-.006a.09.09 0 0 1-.027.03h-.013c-.037.012-.08.1-.032.136 0-.018.006-.048.032-.07l.028.027c.03.048.062.073.137-.039.009-.012.012 0 .009.006-.003.051-.057.125.011.133a.07.07 0 0 1 .03.006v.012c.013.06.099.079.126.06-.017-.011-.053-.024-.068-.078h.035c.036-.04-.009-.087.012-.123.004-.004.01-.004.015 0 .013.03.043.078.105.048a.104.104 0 0 0 .04-.07c.075-.03.141-.06.195-.042-.009-.036.036-.093.114-.111.077-.025.113 0 .14.023a.356.356 0 0 1 .075-.135c-.006.316.415.31.51.494-.128-.048-.265-.084-.343-.066-.102.018-.283.111-.307.232-.016.1.083.275.185.34-.12.025-.168-.01-.275.014h-.015c-.093.005-.105-.16-.22-.12-.006.008-.028.016-.034.023-.041 0-.101.053-.092.102.012-.012.036-.035.068-.042v.024c-.002.018.004.036.045.036.024 0 .03-.012.045-.012.006 0 .012.006.012.016 0 .04-.14-.027-.117.096a.12.12 0 0 0 .021.033c-.006.037.024.072.09.054-.013-.006-.037-.024-.03-.048.012 0 .027.006.027.006.01 0 .015-.006.015-.018 0-.004.003-.004.006-.004.005 0 .013.004.013.004 0 .006-.01.018-.01.03 0 0 .006.037.011.043-.005.041.06.087.12.041-.018 0-.054-.011-.06-.03a.194.194 0 0 1 .03-.011.066.066 0 0 0 .012-.043c0-.018.004-.018.012-.018h.03c.012-.006.015 0 .02.012.016.024.048.049.087.036a.064.064 0 0 0 .04-.03.205.205 0 0 1 .05.03c-.012-.048.019-.082.12-.017l.065-.052s.093.039.13-.005c.06-.055.029-.055.029-.11-.045-.093-.066-.08-.084-.175-.03-.153.182-.24.31-.217.025.1.165.36.395.44.142.049.2-.11.25-.087a.07.07 0 0 1 .023.04c-.007.071.003.135-.015.171-.015.036-.092.006-.146.006-.031-.006-.056.019-.056.024-.042.006-.096.049-.096.1.02-.013.048-.043.081-.048.004.005.004.024.004.024.008.06.076.084.118.042.003-.012.018 0 .01.005-.033.025-.102.09-.042.114l.03.01c-.003.043.02.077.053.082-.012-.024-.015-.033.006-.075.015.005.03.005.032.005.036 0 .02-.078.064-.099.003-.006.009-.006.005 0-.014.046-.02.1.02.112.005 0 .02.005.034.005.012.034.051.064.11.028-.012-.006-.047-.015-.053-.033a.448.448 0 0 0 .03-.035c.03-.096-.054-.101-.054-.136 0-.05.096-.02.096-.112 0 0-.003-.007-.003-.013.041-.024.086-.054.089-.087a.267.267 0 0 1-.113-.025v-.005zM32.765 21.852l-.087-.006.003-.075c.015-.307-.167-.53-.49-.53-.286 0-.841.37-1.62.37-.329 0-.723-.16-.97-.308l-.095.236v-.021a.195.195 0 0 0-.193-.197c-.103 0-.19.09-.19.197 0 .106.087.193.19.193a.21.21 0 0 0 .154-.07l-.1.236c.034.012.067.03.102.038-.112 1.186.759 2.705 2.296 3.165.226-.057.46-.022.46.228 0 .154-.078.22-.216.22-.092 0-.149-.054-.149-.111 0-.109.179-.043.197-.118.024-.097-.036-.135-.14-.135-.107 0-.271.069-.271.253 0 .211.17.334.352.334.17 0 .528-.093.48-.518.081 0 .174-.012.193-.088l.02-.241-.084-.012.064-2.726.06.004c.1.005.186-.04.192-.146.009-.109-.077-.16-.158-.172m-2.782.212l1.87 2.723c-1.002-.395-1.995-1.304-1.87-2.723m1.925 2.464l-1.702-2.483c.053.006.107.006.156.006.086 0 .176-.006.262-.014l1.365 1.978-.081.513m.126-.79L30.834 22c.13-.036.26-.072.381-.118l.905 1.3-.086.556m.292-1.915l-.071-.007c-.081-.005-.183.03-.192.142-.006.106.069.172.167.177h.05l-.008.07c-.025.154-.062.413-.107.709l-.765-1.103c.359-.149.645-.298.803-.298.123 0 .147.056.123.31M32.438 16.369c.364 0 .547-.118.547-.236 0-.406-1.003-.153-1.003-.4 0-.042.03-.076.074-.112h.013c.503-.048.513-.4.871-.47-.433-.061-.493.28-.68.298.1-.045.137-.162.127-.211-.09.117-.283.13-.39.265-.018.024-.025.052-.018.075-.066.043-.104.091-.104.15 0 .38 1.013.116 1.013.4 0 .1-.175.166-.453.166-.209 0-.36-.148-.752-.05.003-.065.132-.192.081-.252.038-.012.066-.048.066-.076-.022-.024-.049-.03-.076-.036.012-.019 0-.041-.018-.054-.002-.006-.011-.045-.02-.052a.33.33 0 0 0-.092-.066c-.043-.023-.073-.023-.09-.023-.012-.007-.05.006-.056.006-.022 0-.049 0-.051.023a.104.104 0 0 0-.072-.03.158.158 0 0 0-.01.115c-.035 0-.074.093-.11.081.015.03.024.042.036.042-.03.052-.045.119-.077.124.009.01.017.021.027.027a1.074 1.074 0 0 0-.055.236.462.462 0 0 0-.08-.064c-.06-.036-.057-.066-.048-.124.01-.054.042-.093.048-.14a.543.543 0 0 0-.009-.05c-.006-.033-.051-.056-.077-.05.012.011.026.024.023.05-.01.006-.023.025-.026.025-.015.018-.024.036-.009.049.003.011.003.011.003.017 0 .006-.003.012-.006.024-.007.006-.007 0-.01 0-.006-.041-.017-.09-.05-.096h-.027v-.013c.006-.032-.033-.062-.092-.015.011 0 .033 0 .038.01-.009.012-.015.035-.017.042-.01.036.02.054.066.054.008 0 .01.006.01.006a.036.036 0 0 1 .004.018c.003.003-.003.003-.006.003-.072-.027-.104 0-.113.031l-.003.023c-.027.019-.04.054.005.081 0-.011.003-.032.025-.038 0-.006.005-.006.009-.006a.925.925 0 0 0 .015.017c.005.007.02.007.047-.01.003-.007.009-.007.018 0 .003.005.01.005.019.01v.014c-.058.038-.058.08.008.098.007 0 .007.006.007.013-.019.081-.135.063-.118-.019-.08.094.024.163.12.124.009-.006.009-.006.012 0 .003.018.008.03.024.03 0 0 .009-.018.024-.018.009 0 .009.006.009.012-.004.015 0 .045.03.05-.004-.016.006-.035.017-.035.013 0 .039.072.093.13a1.19 1.19 0 0 1-.226.066c-.02 0-.138-.012-.177.012-.06.03-.2.082-.242.024-.012-.018-.01-.042-.027-.072-.014-.025-.032-.034-.044-.034h-.036c-.02-.03-.075-.036-.093-.011.015 0 .036.006.054.032-.01.008-.015.025-.015.031-.012.018-.005.048.084.075.002.006.011.013.002.018a.046.046 0 0 1-.047-.005c-.036-.028-.039-.07-.084-.045a.07.07 0 0 1-.027.017c-.002 0-.006-.006-.009-.006-.038 0-.101.046-.074.088.005-.006.02-.03.048-.037.006.013.008.025.008.025.01.054.03.087.123.024.015-.012.015.006.01.006-.022.04-.085.075-.04.111.006 0 .015.007.024.02-.003 0-.003.005-.003.005-.012.05.044.087.078.087a.079.079 0 0 1-.03-.076c.009 0 .023.007.027.007.044-.018.023-.08.047-.097.007 0 .012 0 .012.006.003.025.018.079.069.073a.081.081 0 0 0 .074-.08c-.003-.005 0-.005 0-.005.019.012.033.037.027.06a.078.078 0 0 0 .039-.036.084.084 0 0 1-.021.093c.02-.008.075-.032.087-.093a.055.055 0 0 1 .018.03c0-.006.003-.006.003-.006.02.007.054.012.11-.006.006 0 .006.006.006.006-.006.031-.006.048.006.061 0-.006.014-.024.02-.024.016 0 0 .05.034.081.009-.136.083-.081.167-.142.013-.006.013 0 .009.006-.006.018-.012.037-.036.05.033 0 .104-.038.104-.086 0-.005.027-.02.054-.039.03.005.081-.012.099-.048.003.012.02.053-.003.066.09.006.182-.096.215-.109.191-.039-.117-.181.271-.15a.22.22 0 0 0 .117-.048c-.03.066-.032.183.026.19.028.006.082.021.102.045.003.006.003.006-.003.006a.382.382 0 0 0-.084.024c-.092.063-.095-.142-.194-.1a.1.1 0 0 0-.023.018c-.04 0-.093.045-.084.088.012-.012.033-.036.063-.036v.018c-.003.018.002.036.036.036.02 0 .024-.012.039-.012.005 0 .008.006.008.012 0 .039-.119-.024-.093.082 0 0 .007.023.016.03-.006.03.02.063.074.048-.009-.012-.03-.024-.027-.036h.027c.003 0 .01-.007.012-.019 0-.005 0-.005.004-.005.008 0 .015.005.015.012 0 .005-.013.012-.013.024l.013.026c-.007.037.046.074.1.037-.014 0-.046-.006-.05-.024.01 0 .02-.013.024-.013.008-.002.012-.014.012-.032 0-.006.005-.006.009-.006.009-.007.017-.007.026-.007.01 0 .015.007.019.007a.062.062 0 0 0 .074.036c.066-.024.01-.085.062-.097.01-.006.027-.006.04 0 .05.012.125.012.14-.012.012-.021.006-.117-.048-.15-.033-.019.003-.06-.03-.11a.46.46 0 0 0 .194.05c.14 0 .006-.019.07-.055.065-.045.146-.02.165-.015.02 0 .035.011.03.027-.014.079.007.084-.008.117-.014.03-.075.007-.117 0-.024 0-.041.019-.041.024-.036.007-.078.037-.075.08.012-.006.034-.025.063-.037v.018c.006.05.062.069.092.034.003-.004.019 0 .012.005-.03.024-.08.073-.038.09l.026.012c-.006.034.019.058.045.064-.008-.012-.011-.025.003-.057h.024c.03.006.019-.061.054-.08.003-.005.005-.005.003 0-.007.037-.018.086.015.092l.026.002c.01.031.042.05.084.025a.079.079 0 0 1-.039-.025c.012-.008.025-.026.025-.032.02-.08-.043-.08-.043-.106 0-.042.075-.019.075-.097 0-.012-.01-.033-.032-.045h-.004.004c.017 0 .041.006.05-.03-.054.006-.039-.041-.045-.07 0-.005 0-.005.004-.011.017-.012.032-.043.023-.085-.018.025-.08.06-.084 0-.002 0-.006-.032-.062-.03-.092.012-.137-.032-.314-.051-.008-.006-.018-.012 0-.012m-1.117-.413h-.005.005m.267-.064a.366.366 0 0 0 .119.045c-.053.013-.042.037-.077.03-.034 0-.052-.038-.042-.075m-.074-.042c-.013.03-.052.055-.079.025-.026-.025.006-.03-.026-.082a.37.37 0 0 0 .105.057m-.114.248c.009-.02.018-.036.03-.036.02 0 .032 0 .039-.021.009-.025-.013-.036-.034-.055.025-.006.034-.012.021-.024-.015-.012-.036.012-.041 0-.004-.012.014-.018.02-.03a.081.081 0 0 1 .03 0l.095.048c.016.006.021.012.021.025 0 .017.007.029-.005.036-.01.005-.01-.031-.027-.036-.015 0-.015.017-.006.041-.024-.012-.042-.018-.054 0-.011.016-.009.033.006.046.009.011 0 .03-.006.054-.009.024-.036.052-.071.033-.036-.016-.03-.058-.018-.081M32.943 17.747c0-.112-.124-.19-.478-.19-.355 0-1.165.136-1.165-.063 0-.1.16-.094.347-.082.012.018.036.033.08.046.457.136 1.004-.112 1.278-.034-.327-.247-.6.01-.952-.066.206 0 .274-.057.287-.118-.162.106-.46-.054-.652.067-.008.002-.02.015-.03.027-.253-.012-.456-.012-.456.16 0 .36.955.148 1.256.148.302 0 .365.03.365.093 0 .082-.298.105-.462.105-.266 0-1.048-.141-1.526-.038.042-.08.126-.185.08-.245.042-.016.075-.051.08-.087a.182.182 0 0 0-.094-.04c.015-.023-.003-.042-.018-.066-.006-.006-.015-.055-.024-.057a.391.391 0 0 0-.105-.072c-.055-.025-.089-.025-.113-.037-.009 0-.06.012-.062.012-.024 0-.057 0-.06.03-.02-.023-.054-.03-.084-.042a.196.196 0 0 0-.011.136c-.04 0-.088.111-.129.096.015.034.03.046.041.046-.035.065-.05.141-.088.147.023.03.04.049.056.049-.003.05-.005.1-.009.138l-.074-.027H30.2a.053.053 0 0 1-.03-.012c.008 0 .02.007.03.007l-.042-.012c-.039-.037-.09-.1-.153-.136-.075-.043-.075-.075-.068-.149.002-.069.032-.123.032-.18a.224.224 0 0 0-.014-.054c-.007-.042-.06-.07-.09-.067.019.012.033.03.033.067-.012.011-.024.03-.027.03-.018.018-.023.04 0 .063.003.006.003.012.003.018l-.006.025c-.003.011-.006.005-.012 0-.012-.043-.03-.112-.068-.112-.004 0-.021-.006-.027 0 .002-.006.002-.006.002-.013.004-.041-.05-.081-.107-.023.012 0 .036.005.043.018a.174.174 0 0 0-.013.048c-.006.045.027.063.08.063.004 0 .01.006.013.012 0 .007.003.012.003.018.002.013-.003.006-.009.006-.078-.036-.114 0-.117.033 0 .007-.003.031 0 .037-.03.024-.038.066.01.1 0-.015 0-.046.02-.051.006 0 .01 0 .013-.008.005.008.017.02.02.02.01.005.024.005.05-.012.004-.008.01-.008.019 0 .006 0 .015.005.02.011.007.006.007.011 0 .018-.054.051-.047.105.022.118.008 0 .01.006.01.018-.01.1-.141.082-.13-.018-.078.112.05.204.146.144.009-.002.012-.002.015 0 .003.024.013.037.027.043 0-.006.006-.024.024-.03.007 0 .007.011.007.017 0 .025.008.06.044.06-.007-.017.002-.035.018-.035.018 0 .059.075.143.124.062.03.114.104.155.06-.01.069.054.144.04.144-.022 0-.205-.01-.251.013-.067.036-.234.097-.281.03-.015-.024-.01-.048-.03-.088a.104.104 0 0 0-.058-.042h-.038c-.024-.03-.086-.036-.11-.013.017.008.042.008.066.043-.01.012-.015.03-.022.036-.014.016-.006.057.1.094.004 0 .014.012.004.012-.014.012-.038.012-.056-.006-.041-.03-.048-.079-.098-.05 0 0-.018.014-.033.02 0-.006-.003-.006-.007-.006-.046-.007-.118.054-.089.105a.087.087 0 0 1 .057-.046l.015.034c.01.054.03.097.143.024.006-.012.006 0 .006.006-.026.048-.102.087-.044.124.002.006.015.012.03.024-.004 0-.006.006-.006.006-.015.063.053.112.086.112-.014-.019-.039-.054-.033-.094.012 0 .03.006.03.006.057-.024.033-.091.06-.106.009-.005.014 0 .014.007.004.027.015.087.08.081a.087.087 0 0 0 .082-.088c-.003-.005 0-.011.002-.005.021.012.043.034.03.063.015-.006.04-.019.048-.049a.106.106 0 0 1-.021.116c.018-.013.08-.043.095-.11.014.006.022.024.028.037 0 0 0-.006.006-.006a.24.24 0 0 0 .122 0c.006-.007.01 0 .01.006-.007.024-.007.048.002.06 0-.006.017-.03.027-.03.015 0-.003.058.035.1.013-.167.1-.1.198-.167.012-.006.012 0 .009.006a.072.072 0 0 1-.039.055c.11.024.28-.142.304-.212.045-.005.087-.011.105-.011.313.03.099-.283.603-.19a.29.29 0 0 0 .122-.058c-.039.065-.041.206.027.218.033 0 .099.024.12.049.006.005 0 .005-.007.01a.501.501 0 0 0-.095.021c-.104.073-.11-.162-.224-.111-.006 0-.023.013-.03.019-.042 0-.107.053-.096.106a.112.112 0 0 1 .073-.045v.02c-.003.025.005.042.041.042.021 0 .026-.012.048-.012.009 0 .014 0 .014.012 0 .042-.142-.024-.115.095 0 .005.009.03.017.035-.005.036.025.069.09.054-.012-.006-.036-.024-.033-.042h.03c.009 0 .015 0 .018-.018 0-.006 0-.006.002-.006.007 0 .01.006.01.012s-.006.012-.006.024c0 .006.005.037.012.037-.007.045.057.093.12.045-.016 0-.057-.006-.063-.03a.105.105 0 0 1 .032-.01.077.077 0 0 0 .015-.048c0-.006.003-.006.006-.006.01 0 .02 0 .03-.006.015 0 .018.006.02.012.016.024.052.048.09.036.078-.024.013-.097.072-.111h.045c.06.014.15.014.164-.012.018-.03.009-.136-.053-.179-.039-.018.002-.063-.036-.117.068.024.137.054.223.054.17 0 .206-.024.284-.072.077-.051.17-.019.194-.019.02.008.039.013.033.043-.021.087.006.093-.012.136-.014.03-.084.006-.135 0a.068.068 0 0 0-.05.023c-.039.008-.086.046-.084.095a.14.14 0 0 1 .075-.042l.003.017c.006.061.066.075.107.042.003-.005.018 0 .012.007-.039.024-.095.08-.048.099.004.006.017.012.033.018-.003.033.024.075.051.082-.013-.025-.014-.037.003-.076h.028c.04.006.02-.067.065-.097.003-.002.005 0 .003.006-.013.043-.018.097.014.11.004 0 .018 0 .03.005.012.034.054.057.101.027-.011-.006-.036-.017-.041-.032.009-.013.02-.037.024-.043.026-.087-.05-.087-.05-.123 0-.042.085-.012.085-.106a.058.058 0 0 0-.038-.055v-.006c.024 0 .05.006.063-.03-.063.006-.049-.045-.054-.08a.02.02 0 0 1 .003-.02c.02-.012.035-.038.03-.092-.022.03-.093.063-.103.005-.002-.005-.005-.048-.064-.036-.112.012-.188-.012-.392-.03.234 0 .58-.062.58-.193m-2.794.205c-.003-.006-.003-.006.002-.006-.002 0-.002 0-.002.006m.567-.519a.52.52 0 0 0 .143.061c-.069.012-.05.036-.092.036-.036 0-.057-.054-.051-.097m-.084-.039c-.017.03-.057.057-.089.025-.028-.031.003-.036-.03-.103a.52.52 0 0 0 .119.078m-.131.29c.012-.024.018-.042.033-.042.023 0 .038-.007.045-.031.012-.03-.015-.042-.04-.056.027-.007.04-.02.027-.036-.018-.013-.04.011-.047 0-.004-.013.015-.019.02-.031.012-.007.022-.007.036 0l.115.053c.014.014.024.014.024.028-.004.018.002.037-.01.042-.012.006-.01-.035-.03-.042-.018 0-.018.018-.005.048-.028-.011-.052-.023-.067 0-.015.025-.009.036.013.055.008.012 0 .033-.013.063-.009.024-.04.06-.08.036-.042-.018-.033-.066-.021-.087m.29.63l.003-.006c0 .006 0 .006-.004.006M32.785 19.326c0-.106-.113-.171-.453-.171-.344 0-1.388.122-1.388-.065 0-.123.354-.078.614-.071.01.023.036.041.073.053.44.123.897-.172 1.21-.063-.247-.232-.566.02-.898-.048.194 0 .397-.037.406-.094-.149.1-.575-.066-.752.046-.011.011-.02.017-.03.024-.325 0-.72-.049-.72.153 0 .341 1.195.142 1.479.142.283 0 .346.03.346.081 0 .082-.284.106-.448.106-.26 0-1.377-.153-1.818-.018.027-.07.131-.188.08-.246.045-.023.073-.053.076-.09a.198.198 0 0 0-.085-.041c.013-.015-.002-.039-.017-.057-.009 0-.018-.049-.024-.06a.647.647 0 0 0-.102-.064c-.05-.025-.086-.025-.1-.03-.013-.007-.058.012-.064.005-.02 0-.054 0-.06.031-.015-.024-.044-.03-.074-.036a.153.153 0 0 0-.012.124c-.039 0-.084.105-.119.087.012.036.024.048.035.048-.032.06-.044.136-.084.141.013.019.025.03.034.038a.74.74 0 0 0-.012.104l-.032-.011c-.025 0-.048 0-.055-.006-.014 0-.036-.007-.057-.007-.054-.005-.095-.093-.181-.147-.07-.043-.072-.07-.072-.142 0-.063.027-.118.022-.17 0-.005-.01-.036-.013-.054-.012-.041-.062-.069-.09-.06.015.013.03.024.036.06-.012.013-.027.031-.027.037-.014.012-.02.033.004.058.002.005.002.005.002.011l-.002.03c-.004.007-.01.007-.01 0-.018-.047-.039-.105-.071-.111h-.027v-.007c0-.048-.051-.08-.098-.03.008.007.029.007.036.02a.32.32 0 0 0-.01.047c-.004.045.03.057.077.064.01 0 .013 0 .016.005a.034.034 0 0 1 .006.019c.003.011 0 .011-.006.006-.08-.037-.11.005-.11.036 0 .006-.004.021 0 .026-.03.025-.037.068.013.097 0-.011-.001-.042.017-.048.002 0 .005 0 .008-.006.01.012.024.018.024.025.006 0 .02 0 .045-.019.009-.006.012-.006.02 0 .007.006.016.006.021.012a.017.017 0 0 1 0 .018c-.05.047-.041.1.024.112.012 0 .012.006.012.018-.005.093-.127.075-.127-.025-.066.113.059.194.151.142.004-.006.006 0 .01.007.005.012.015.026.032.026 0-.003.003-.014.021-.014.003 0 .003.005.003.01 0 .023.013.059.05.065-.008-.024-.002-.042.013-.042s.08.13.224.208c.023-.006.062-.006.077-.036 0 .006.011.018.027.03.005.063.048.142.036.142-.021 0-.238-.007-.287.012-.06.039-.215.092-.266.027-.011-.024-.005-.039-.026-.076-.015-.024-.036-.042-.051-.042h-.041c-.022-.03-.078-.032-.105-.017.021.005.042.01.062.048-.005.005-.014.024-.018.03-.011.018-.006.05.093.087.006 0 .015.013.006.013-.011.011-.036.011-.055 0-.037-.031-.044-.076-.091-.055-.003 0-.018.012-.03.018h-.012c-.042-.012-.11.048-.081.1a.078.078 0 0 1 .057-.046c.003.013.01.024.01.03.008.051.029.094.133.022.013-.007.013 0 .01.006-.025.048-.1.09-.042.123a.05.05 0 0 1 .024.018c0 .007-.004.007-.004.012-.009.055.048.1.087.093-.017-.011-.042-.038-.036-.087.019.006.03.013.033.013.048-.019.027-.082.054-.1.009-.006.014 0 .014.006.004.024.013.081.075.075.057-.005.08-.05.075-.087 0 0 0-.006.006 0 .021.012.038.03.033.057.009 0 .03-.015.041-.04.01.028.015.07-.024.106.022-.005.084-.036.097-.1a.084.084 0 0 1 .02.028s.002 0 .002-.006c.025.012.06.012.123 0 .003-.003.006 0 .003.006 0 .024 0 .048.01.06 0-.005.017-.03.023-.03.017 0 0 .061.03.093.015-.15.194-.075.29-.132.011-.011.011-.006.008 0-.006.015-.018.04-.044.051.036.006.087-.018.125-.048-.003 0-.009.006-.012.012l.155-.07c0-.011.006-.03.009-.048.019-.005.036-.005.051-.011 0 .006-.003.006-.005.006.098.005.089-.075.128-.064.552.07.236-.242.889-.184.03 0 .042-.012.074-.033-.038.063-.038.17.03.181.03.007.09.025.114.047.005.008 0 .014-.005.014-.037.005-.079.01-.09.023-.105.064-.109-.154-.219-.114-.002 0-.017.018-.024.024-.045 0-.104.048-.095.093a.132.132 0 0 1 .072-.04v.025c-.004.015.003.033.036.033.024 0 .026-.011.047-.011.006 0 .01.006.01.011 0 .043-.132-.02-.107.097 0 0 .01.021.02.028-.006.035.02.072.083.054-.012-.006-.036-.025-.033-.043.012.007.027.007.033.007 0 0 .009-.007.012-.025.003 0 .003-.006.006-.006.006.006.01.006.01.013 0 .011-.007.018-.007.023 0 .006.007.036.012.042-.005.036.051.081.113.04-.014-.004-.056-.01-.062-.027a.165.165 0 0 1 .033-.013c.009-.006.011-.023.011-.042.004-.012.007-.012.013-.012h.027c.01-.006.017 0 .02.007.006.03.042.047.084.036.068-.025.012-.087.066-.1.009-.006.032-.006.045 0 .056.013.142.006.157-.018.015-.03.007-.13-.053-.166-.043-.024 0-.064-.035-.118.064.024.127.054.213.054.153 0 .198-.023.266-.065.075-.047.162-.024.188-.024.019.005.036.017.03.042-.018.081.01.087-.01.128-.014.03-.082.008-.127 0-.028 0-.051.02-.051.025-.038.005-.08.042-.08.088.014-.007.042-.036.068-.036 0 .006 0 .011.004.011.005.061.067.078.101.043.006-.006.018 0 .011.005-.03.025-.089.077-.037.1l.026.012c-.003.037.018.07.05.075-.01-.014-.015-.026.004-.062h.026c.034 0 .018-.07.054-.095.006 0 .01 0 .01.007-.013.033-.019.088.015.1 0 0 .017.005.028.005.01.03.049.051.094.024-.012 0-.033-.01-.042-.03.011-.011.021-.03.021-.036.026-.087-.043-.087-.043-.117 0-.049.084-.018.084-.106 0-.013-.011-.036-.04-.054v-.006.006c.023-.006.05 0 .061-.027-.062.006-.045-.049-.053-.078 0-.013-.004-.019.002-.019.019-.018.036-.039.03-.088-.02.03-.086.06-.092 0-.003 0-.006-.048-.072-.036-.102.018-.17-.012-.367-.026.196-.013.552-.054.552-.184m-2.486-.278a.683.683 0 0 0 .134.054c-.065.013-.051.03-.089.03-.04 0-.05-.054-.045-.084m-.084-.045c-.018.026-.054.057-.086.026-.024-.026.002-.032-.03-.092a.44.44 0 0 0 .116.066m-.125.274c.012-.02.02-.039.03-.039.03 0 .041-.006.047-.025.013-.029-.014-.041-.041-.058.03-.008.041-.02.03-.029-.017-.011-.045.006-.048 0-.003-.011.012-.024.018-.03.013-.012.023-.006.039 0l.107.045c.012.014.021.019.021.036 0 .007.006.031-.006.036-.012 0-.01-.036-.036-.036-.012-.005-.012.013-.003.036-.024-.005-.047-.018-.06.007-.012.018-.008.036.009.052.006.005 0 .03-.008.054-.01.023-.04.059-.078.042-.04-.024-.033-.067-.02-.091M37.624 21.976c0-.005 0-.012.006-.012a.108.108 0 0 0 .036-.094c-.024.031-.096.064-.096.007 0-.007-.003-.048-.065-.037-.102.012-.198-.011-.398-.024-.012-.005-.02-.01 0-.017.2-.016.555-.046.555-.17 0-.106-.113-.172-.456-.172-.34 0-1.385.124-1.385-.069 0-.123.353-.072.615-.067.01.024.033.037.071.049.44.13.938-.208 1.204-.124-.344-.123-.562.089-.893.019.194 0 .4-.043.409-.097-.152.102-.576-.064-.756.049a.08.08 0 0 0-.03.023c-.321-.006-.716-.041-.716.148 0 .34 1.19.142 1.476.142.285 0 .35.033.35.087 0 .082-.285.1-.447.1-.268 0-1.379-.149-1.823-.013.027-.075.134-.186.083-.247.042-.017.075-.05.075-.087a.174.174 0 0 0-.086-.042c.015-.018-.004-.042-.018-.058-.007-.005-.013-.053-.025-.06a.3.3 0 0 0-.101-.069c-.048-.024-.08-.024-.102-.024-.011-.006-.056.006-.059.006-.024 0-.054 0-.056.024a.127.127 0 0 0-.082-.03c-.017.036-.023.063-.008.123-.042 0-.08.1-.123.088.015.03.027.042.043.048-.037.056-.052.136-.09.136a.185.185 0 0 0 .057.051c-.004.036-.01.073-.01.1l-.06-.021h-.053c-.015-.006-.033-.006-.054-.013-.05-.005-.095-.093-.185-.148-.069-.035-.069-.071-.069-.141 0-.057.028-.111.024-.166-.003-.012-.011-.04-.017-.05-.013-.043-.063-.073-.09-.061.015.011.03.024.036.06-.013.011-.027.03-.03.03-.009.015-.014.04.003.057.006.007.006.012.006.012 0 .007 0 .018-.006.031-.003.012-.007.005-.007 0-.01-.043-.035-.106-.07-.106-.004 0-.019-.006-.03-.006 0 0 .002 0 .002-.007 0-.041-.047-.078-.097-.023.01 0 .032.006.04.018-.005.012-.01.039-.01.039-.004.049.025.066.076.066.012 0 .015.006.015.012 0 0 0 .012.003.019.003.005-.003.005-.003.005-.077-.036-.112 0-.112.034 0 0-.004.024 0 .03-.025.018-.034.06.017.093-.003-.017-.003-.045.018-.05h.009c.006.005.018.017.021.017.005.007.017 0 .047-.018h.015a.1.1 0 0 0 .024.018c.003.007.003.007 0 .012-.05.051-.042.106.025.117.008 0 .01.007.01.013-.005.1-.13.076-.128-.018-.067.111.054.193.149.141.006-.005.01-.005.013 0 .006.016.015.035.03.035-.003 0 .006-.025.02-.025.006 0 .006.011.006.018.004.024.012.054.048.06-.006-.024 0-.036.012-.036.021 0 .078.141.218.216-.003-.01.057-.032.083-.05.007.024.021.05.049.063l.02-.018c-.008.073.07.136.057.136-.02 0-.152-.019-.197.005-.063.037-.218.097-.266.03-.015-.023-.012-.048-.033-.08a.075.075 0 0 0-.047-.042h-.039c-.027-.025-.08-.03-.104-.014.02.007.038.014.055.044a.09.09 0 0 1-.014.029c-.009.022-.006.058.093.094.006 0 .018.006.009.012-.015.006-.036.012-.057-.006-.039-.03-.045-.072-.093-.048l-.03.011h-.008c-.045-.005-.11.055-.081.106a.074.074 0 0 1 .054-.051.24.24 0 0 0 .009.033c.009.055.03.09.134.024.012-.006.012 0 .006.006-.022.043-.092.082-.039.118 0 .006.016.012.025.018-.004.007-.004.012-.004.012-.009.058.05.106.09.1a.1.1 0 0 1-.04-.087c.016.005.027.011.034.005.047-.018.027-.084.056-.1.007-.005.01 0 .012.007.003.027.015.081.074.075.058 0 .084-.054.076-.082 0-.005.003-.005.008-.005.018.012.036.033.03.063a.159.159 0 0 0 .042-.045.108.108 0 0 1-.024.112c.024-.013.081-.043.097-.11.01.013.02.024.02.037 0 0 .002-.006.006-.006.017.006.06.012.116 0 .01-.007.01 0 .01.006-.007.018-.007.048.005.06 0-.006.015-.03.024-.03.017 0 0 .054.032.093.015-.153.097-.093.192-.153.011-.009.011-.006.009.006a.085.085 0 0 1-.042.049c.033.03.174-.061.174-.118 0-.012.05-.018.097-.025.096.007.084-.075.123-.069.558.076.238-.24.892-.178.03 0 .045-.037.072-.063-.033.063-.036.192.033.211.026 0 .09.024.113.042.007.006 0 .012-.002.012-.042.004-.085.015-.096.028-.101.065-.105-.157-.212-.119-.007.007-.024.018-.03.025-.044 0-.102.054-.093.1.016-.019.036-.04.07-.04v.021c0 .018.005.037.04.037.021 0 .028-.013.04-.013.01 0 .015.006.015.013 0 .041-.135-.024-.108.087.003.006.012.03.018.036-.006.036.024.072.084.048-.012-.006-.033-.024-.028-.042.01.007.021.007.025.007.005 0 .011-.007.014-.019 0-.006.004-.006.01-.006.009 0 .01.006.01.012s-.007.013-.005.024l.006.037c-.002.04.054.087.116.04-.02 0-.056-.008-.062-.029.012-.005.027-.011.03-.011.01-.007.012-.025.012-.043 0-.012.005-.012.009-.012h.03c.015 0 .015.007.02.012.013.024.043.049.087.03.069-.024.01-.09.066-.099.012 0 .03-.006.046 0 .055.01.139.01.154-.018.015-.025.006-.13-.054-.166-.036-.018 0-.067-.033-.111a.59.59 0 0 0 .213.044c.157 0 .206-.015.28-.057.083-.055.164-.025.193-.025.016.007.03.014.022.044-.022.081 0 .087-.014.123-.022.03-.088.006-.135.006-.024-.006-.045.018-.049.018-.038.012-.086.046-.09.088.02-.007.044-.031.075-.037v.019c0 .054.06.072.1.036.002-.007.018 0 .009.012-.03.024-.096.075-.049.093l.024.018c-.003.03.018.07.045.075-.006-.023-.009-.035.01-.069h.026c.039 0 .026-.072.066-.093.005 0 .009 0 .005.003-.014.042-.027.09.01.102 0 0 .015.007.024.007.008.032.047.05.095.027-.011-.007-.035-.016-.035-.027.008-.019.024-.037.024-.043.031-.082-.037-.087-.034-.118.003-.042.08-.017.087-.099a.052.052 0 0 0-.03-.054c-.003 0-.003 0-.003-.006.024 0 .047.006.068-.024-.068.005-.044-.045-.05-.082zm-2.451-.641c.018.01.093.041.135.053-.063.013-.05.04-.087.04-.042-.006-.057-.058-.048-.093zm-.084-.044c-.014.03-.053.054-.082.03-.03-.035.002-.038-.033-.092.033.017.101.057.115.062zm-.127.277c.014-.024.022-.045.038-.045.022.007.033 0 .042-.023.009-.024-.015-.037-.039-.054.024-.006.039-.019.024-.036-.015-.01-.039.017-.043 0-.005-.01.014-.016.02-.028.01-.006.02-.006.035 0l.108.05c.012.014.02.02.02.031 0 .013.006.037-.006.037-.011.006-.011-.03-.03-.037-.017 0-.017.013-.006.043-.027-.013-.05-.025-.06 0-.014.024-.011.033.01.057.003.005 0 .03-.01.054-.011.025-.041.052-.077.037-.039-.018-.035-.061-.026-.086zm-.087-.158h-.007.007zm.027-.119h-.01.01zM36.097 22.842c.008.019.036.042.077.054.418.123.892-.202 1.146-.123-.331-.12-.537.081-.853.015.188 0 .382-.033.39-.088-.143.094-.55-.057-.715.048a.171.171 0 0 0-.03.019c-.228-.007-.415-.007-.415.145 0 .325.865.136 1.136.136.273 0 .242.023.242.084 0 .069-.31.093-.465.093-.23 0-.944-.123-1.374-.036.037-.07.112-.162.07-.211.038-.025.065-.055.068-.087a.198.198 0 0 0-.081-.037c.012-.024-.002-.042-.015-.06-.005 0-.015-.046-.027-.051a.238.238 0 0 0-.092-.066c-.051-.025-.08-.025-.102-.028l-.056.003c-.024 0-.05 0-.054.025-.02-.02-.041-.025-.075-.028a.156.156 0 0 0-.011.118c-.039 0-.075.1-.114.087.012.03.027.042.04.042-.037.057-.05.13-.084.136.011.016.02.021.032.033a.479.479 0 0 0-.02.124l-.04-.018h-.015c-.054-.006-.083 0-.17-.046-.065-.036-.065-.072-.065-.135 0-.06.026-.106.024-.166a.239.239 0 0 0-.015-.045c-.015-.036-.063-.067-.09-.054.015.005.032.023.036.054-.013.01-.023.021-.023.027-.013.018-.022.042 0 .06.005.006.005.006.005.012s-.003.013-.003.024c-.002.01-.009.003-.009 0-.015-.041-.033-.102-.069-.102-.002 0-.017-.006-.026 0v-.006c0-.046-.045-.076-.09-.027.006.006.026.006.036.015a.149.149 0 0 0-.012.042c-.003.048.03.067.077.067.01 0 .01 0 .013.005.002.006.002.01.006.016.003.005-.004.005-.01.005-.074-.026-.104 0-.107.03 0 .006 0 .03.003.036-.024.02-.03.058.015.082 0-.012-.004-.033.015-.038.003 0 .01-.008.011-.008a.032.032 0 0 0 .019.016c.005.006.018.006.045-.008.005-.008.012-.008.018 0 .003.005.011.005.02.008.006.006.003.013 0 .013-.044.054-.038.101.024.107.009.004.009.01.009.016-.003.096-.125.079-.12-.016-.062.106.054.187.144.134.004-.007.005 0 .01 0 .005.018.014.036.031.036 0-.006.004-.018.016-.018.006 0 .006 0 .006.005.003.025.012.06.044.066-.005-.017 0-.041.013-.041.017 0 .015-.042.125.024.01.017.024.036.044.042l.078-.012c-.008.057.01.157-.003.157-.02 0-.143-.015-.188.005-.06.037-.21.091-.25.025-.016-.018-.01-.043-.027-.07-.018-.024-.04-.035-.05-.042h-.04c-.02-.03-.078-.03-.1-.012.016 0 .04.007.055.043-.006.006-.011.024-.015.03-.011.015-.003.045.09.082.002.005.012.01.006.017a.045.045 0 0 1-.05-.006c-.04-.036-.046-.078-.087-.048a.163.163 0 0 0-.033.012c-.004 0-.004-.006-.01-.006-.04 0-.104.055-.074.099.003-.012.018-.033.05-.038.007.011.01.02.01.026.009.055.03.09.132.019.008-.007.008.005.005.005-.027.048-.089.091-.039.118 0 0 .01.012.025.018-.004.007-.004.007-.01.012-.006.055.051.094.084.094a.094.094 0 0 1-.03-.082c.012 0 .023.006.03.006.05-.023.024-.075.053-.093.007-.006.013 0 .013.005.003.02.012.07.068.07.058-.005.081-.05.075-.081-.003 0 0-.006.006 0 .017.006.032.03.027.057a.152.152 0 0 0 .039-.038c.015.02.018.057-.022.098.022-.006.082-.036.09-.098.012.011.018.02.024.026h.004c.017.006.059.012.112-.006.006 0 .006.006.006.006-.006.024-.006.048.007.066 0-.012.014-.035.024-.035.014 0 0 .06.036.087.007-.139.127-.106.214-.163.009-.006.009-.006.009.006a.08.08 0 0 1-.042.045c.095.06.2-.076.227-.148.012-.003.021-.015.027-.026.006.017.01.026-.018.038.095.006.086-.062.119-.057.284.02.071-.242.522-.166.03.006.088-.024.11-.045-.03.058-.032.181.031.193.032.006.086.03.108.048.005.006 0 .006-.004.012a.279.279 0 0 0-.09.015c-.091.066-.095-.138-.2-.106-.005.007-.017.013-.026.025-.041-.006-.099.049-.09.087a.141.141 0 0 1 .07-.033c-.004.012-.004.015-.004.02-.003.013.003.032.042.032.018 0 .02-.012.036-.012.005 0 .012.005.012.017 0 .036-.126-.024-.106.085 0 .003.013.021.022.033-.003.03.027.067.077.048-.009-.005-.03-.024-.026-.042h.026c.004.007.01 0 .012-.012 0-.006.004-.006.007-.006.006 0 .012.006.012.006 0 .012-.006.012-.006.024 0 0 .002.036.009.036-.007.04.05.082.106.04-.014 0-.05-.003-.055-.027.011-.006.026-.006.03-.013.005-.006.007-.018.007-.041 0-.007.01-.007.013-.007h.027c.013-.006.018 0 .02.007.013.03.04.048.079.035.07-.03.009-.087.068-.1.006 0 .023-.005.039 0 .056.013.134.013.149-.011.015-.025.009-.123-.054-.16-.03-.018.007-.06-.026-.112.056.03.121.051.2.051.148 0 .217-.02.295-.062.084-.05.162-.025.181-.02.02 0 .03.013.02.044-.037.068-.016.08-.04.117-.021.03-.08.006-.125 0-.02 0-.048.02-.048.02-.042.01-.089.043-.096.086a.1.1 0 0 1 .072-.036.114.114 0 0 1-.003.017c-.009.055.048.074.086.036.007-.006.022 0 .01.008-.036.022-.105.068-.063.092a.06.06 0 0 1 .027.012c-.012.037 0 .07.024.07-.004-.016-.004-.027.024-.057h.023c.036 0 .039-.073.078-.087.006-.008.01 0 .006 0-.024.038-.039.087-.012.098.003 0 .016 0 .024.007.003.03.036.044.087.023-.006-.005-.03-.017-.03-.03.01-.011.026-.036.03-.036.045-.081-.02-.081-.013-.111.01-.05.078-.018.099-.093.006-.019.006-.049-.02-.055-.004 0-.004-.006-.004-.006h.003c.021 0 .045.006.062-.03-.058.006-.023-.04-.023-.07 0-.006 0-.011.003-.018a.103.103 0 0 0 .045-.082c-.025.025-.097.052-.09 0 0 0 .007-.04-.053-.03-.103.013-.243-.01-.428-.03-.012 0-.02-.005 0-.012.185-.011.565-.04.565-.162 0-.103-.019-.16-.34-.16-.323 0-1.054.117-1.054-.066 0-.094.141-.082.31-.07m-1.054-.024c-.017.03-.054.054-.083.024-.024-.03.003-.036-.026-.087.03.024.092.057.11.063m.065.201c-.012 0-.012-.036-.03-.036-.017-.005-.014.013-.005.036-.025-.006-.043-.023-.057 0-.012.022-.005.034.01.052.007.013 0 .031-.007.054-.008.024-.042.052-.077.034-.034-.015-.027-.057-.022-.082.013-.024.022-.036.033-.036.02 0 .035-.006.042-.022.009-.029-.015-.041-.036-.053.024-.013.036-.024.024-.03-.018-.019-.04.006-.045-.006-.003-.013.013-.018.02-.025.01-.009.019-.009.034 0l.101.048c.012.007.021.013.021.03 0 .007.006.03-.006.036m.054-.077c-.035 0-.05-.051-.042-.088.012.018.087.042.126.051-.06.012-.045.037-.084.037M35.755 24.356c.01.024.033.041.078.06.415.117.893-.202 1.146-.123-.328-.121-.54.08-.853.015.185 0 .381-.04.39-.088-.143.094-.548-.07-.72.042a.104.104 0 0 0-.032.031c-.128.026-.238.099-.238.192 0 .279 1.068.061 1.068.153 0 .07-.209.143-.489.143-.215 0-.583-.143-1.042-.025v-.005c.033-.078.128-.197.087-.248.038-.018.062-.048.065-.078-.024-.028-.05-.033-.075-.04.01-.018-.003-.035-.02-.054-.003 0-.013-.038-.021-.05a.312.312 0 0 0-.09-.061c-.044-.024-.075-.024-.093-.03-.011-.007-.05.012-.056.012-.018-.006-.048-.006-.05.018a.242.242 0 0 0-.07-.03.139.139 0 0 0-.011.111c-.036.007-.072.096-.108.085.012.033.024.04.036.04-.03.06-.045.123-.083.128.017.018.032.03.04.037a.862.862 0 0 0-.017.265c-.062-.069-.161-.228-.23-.265-.059-.037-.059-.064-.059-.13 0-.051.02-.1.017-.147a.189.189 0 0 0-.011-.052c-.01-.037-.054-.06-.08-.054.01.012.03.024.032.054-.012.012-.023.031-.023.031-.013.015-.02.033 0 .05.005.007.005.007.005.013a.134.134 0 0 1-.005.024c0 .012-.004.006-.007 0-.012-.036-.036-.087-.066-.094h-.024v-.012c0-.035-.042-.066-.088-.024.008.006.03.006.035.019-.003.017-.012.039-.012.045-.003.036.03.053.075.053.005 0 .011 0 .011.007 0 .006.003.012.007.018 0 .005-.004.005-.007.005-.072-.03-.101 0-.104.028 0 .006 0 .025.003.03-.024.018-.033.055.012.091 0-.02-.003-.043.017-.049.004 0 .007 0 .013-.005l.018.018c.003.006.014 0 .041-.013.003-.005.007-.005.013 0 .009 0 .014.006.02.013.003.006.003.006 0 .011-.044.046-.035.088.024.1.01.007.012.007.012.017-.006.088-.12.07-.113-.017-.065.099.047.174.131.124.006 0 .01 0 .01.006.005.013.011.03.029.03-.004-.007.003-.017.018-.017.005 0 .009 0 .009.005 0 .026.005.057.039.057-.007-.017 0-.03.009-.03.018 0 0 .13.125.201.021.077.081.118.146.113.02.054.054.099.045.099-.018 0-.167-.018-.206.006a.414.414 0 0 1-.137.049l-.01.012c.007-.007.007-.012.01-.012-.043.005-.081 0-.102-.025-.015-.024-.012-.042-.03-.07a.078.078 0 0 0-.044-.041h-.036c-.021-.025-.071-.025-.096-.013.017.007.039.013.054.037-.006.018-.012.027-.012.033-.012.018-.003.048.083.079.007 0 .016.012.007.012-.016.005-.034.012-.052-.007-.038-.024-.038-.066-.083-.042 0 0-.015.012-.026.012h-.01c-.041-.006-.1.049-.071.094a.063.063 0 0 1 .048-.04l.011.027c.003.043.024.085.117.018.012-.005.012 0 .009.007-.02.042-.087.078-.036.111.003 0 .009.006.02.013l-.002.01c-.012.055.048.095.077.089a.093.093 0 0 1-.03-.081.184.184 0 0 0 .03.012c.042-.02.022-.076.048-.094.009-.006.009 0 .009.012.006.015.015.07.069.063.05-.006.075-.048.072-.075 0-.006 0-.006.003-.006.018.013.036.033.027.057.009 0 .03-.018.038-.033.012.021.015.057-.021.088.021-.007.074-.031.087-.088a.032.032 0 0 1 .018.028c.003 0 .003 0 .006-.007.017.012.051.012.107 0 .003-.006.005 0 .005.007-.005.018-.005.041.007.053 0-.005.015-.03.021-.03.015 0 0 .055.032.088.01-.136.085-.082.171-.14.01 0 .01 0 .01.004-.01.018-.019.036-.04.048.033 0 .129-.042.129-.093 0-.018.062-.079.08-.236h.03c.116-.005.167-.09.283-.096-.03.03-.038.115-.038.16.003.067.082.136.104.154.006.005.003.005-.004.012a.24.24 0 0 0-.083.018c-.092.063-.092-.136-.19-.1-.007.007-.021.015-.028.022-.042-.007-.092.041-.08.084.012-.012.03-.03.06-.036v.024c0 .012.003.03.036.03.02 0 .024-.012.04-.012.005 0 .01.007.01.018 0 .033-.122-.024-.099.076 0 .005.013.024.016.03-.003.033.024.063.078.045-.013-.006-.03-.018-.028-.034h.024c.006 0 .012 0 .015-.017 0 0 0-.006.003-.006.003.006.012.006.012.012 0 .005-.012.011-.012.02 0 .007.006.031.015.031-.009.036.048.078.102.041-.015-.005-.049-.005-.054-.029.012 0 .027-.006.027-.012.008 0 .012-.018.012-.03 0-.01.006-.01.01-.01h.023c.011-.006.017 0 .02.007a.06.06 0 0 0 .075.027c.066-.018.013-.082.063-.094h.039c.047.012.092.024.106 0 .013-.024.008-.124-.05-.154-.032-.018.048-.223-.107-.317.071.02.307.053.342-.005.075.018.16.063.168.081.009.012.015.03-.006.043-.063.042-.054.057-.089.069l-.007.006c-.017-.024-.038-.058-.066-.063-.017-.018-.04-.007-.044 0-.033-.012-.083 0-.098.039.015-.006.045-.01.072-.006a.034.034 0 0 0-.007.018c-.003.012.003.024.015.03.003 0 .003.006.006.006.003.006.003.012-.006.012-.035-.012-.104-.012-.087.03l.007.031c-.024.015-.033.056-.015.075.006-.019.012-.024.042-.037a.102.102 0 0 1 .018.018c.02.025.056-.036.095-.018.002 0 .002 0 .002.007-.035.011-.07.042-.056.072l.012.021c-.012.024-.002.066.042.079-.003-.006-.012-.03-.006-.048.012 0 .036-.007.039-.007.072-.036.027-.081.05-.106.027-.023.06.05.117-.005.006-.006.018-.03.008-.05 0-.007 0-.007.004-.007.015.014.027.032.054.014-.043-.032.006-.051.02-.081.004-.006.01-.006.012-.006.02.006.051 0 .078-.036-.033.006-.116-.045-.063-.063.066-.025.084-.067.054-.1-.056-.079-.173-.084-.176-.166h.105c.36 0 .59-.1.581-.218-.011-.246-1.087.025-1.087-.158 0-.055.067-.094.15-.124m-.781.036c.012.018.083.039.119.05-.053.013-.042.03-.078.03-.033 0-.048-.047-.041-.08m-.073-.036c-.017.024-.05.054-.08.024-.024-.024 0-.036-.027-.085.026.024.09.055.107.06m-.116.248c.012-.019.021-.036.03-.036.02 0 .033-.006.04-.021.008-.03-.013-.036-.035-.054.025-.007.034-.012.025-.025-.018-.012-.039.006-.042 0-.006-.012.012-.024.017-.03.007-.012.022-.006.034 0l.092.048c.015.007.02.012.02.025 0 .011.008.036-.005.036-.011 0-.011-.03-.024-.036-.017 0-.017.011-.005.036-.025-.006-.048-.02-.057.003-.012.018-.009.03.01.048.005.012 0 .03-.01.048-.009.024-.036.058-.069.039-.036-.021-.032-.063-.02-.08M18.53 5.5a.376.376 0 0 0-.751 0 .375.375 0 1 0 .751 0"/>
        <path d="M18.44 4.793a.383.383 0 0 0-.377-.38.381.381 0 0 0 0 .76c.21 0 .378-.168.378-.38"/>
        <path d="M18.474 4.595a.378.378 0 0 0 0-.755.378.378 0 0 0 0 .755"/>
        <path d="M19.167 4.556a.378.378 0 0 0 .383-.381.38.38 0 0 0-.383-.383.377.377 0 0 0-.373.383c0 .212.167.38.373.38M22.053 4.033c.146.143.391.143.533-.009a.382.382 0 0 0 0-.534.387.387 0 0 0-.533 0 .4.4 0 0 0 0 .543"/>
        <path d="M22.161 3.466a.387.387 0 0 0 0-.533.37.37 0 0 0-.533 0 .38.38 0 0 0 0 .533.37.37 0 0 0 .533 0"/>
        <path d="M21.468 3.355a.391.391 0 0 0 0-.542.386.386 0 0 0-.533 0 .391.391 0 0 0 0 .542.382.382 0 0 0 .533 0"/>
        <path d="M20.876 3.796a.38.38 0 0 0 0-.533.37.37 0 0 0-.533 0 .39.39 0 0 0 0 .541.376.376 0 0 0 .533-.008M19.016 3.234l.205.465.269-.324c.01.007.02.012.03.012.024.154.033.424.033.577 0 .184.146.338.334.338a.335.335 0 0 0 .329-.338.34.34 0 0 0-.174-.298 2.741 2.741 0 0 1-.367-.35c.006-.012.012-.022.015-.04l.445.04-.18-.477-.328.289c-.006-.005-.01-.005-.02-.01l-.024-.49-.454.175.303.361a.074.074 0 0 0-.017.04l-.4.03zM22.038 4.059c.101.16.137.235.147.364-.081-.036-.17-.117-.272-.253l.056.612c.07-.105.132-.181.216-.217-.022.401-.183.564-.316.594a.263.263 0 0 1-.311-.205c-.033-.177.12-.29.276-.13.025-.37-.265-.365-.396-.204.155-.363.09-.598-.22-.79-.197.334-.115.551.136.804-.244-.123-.462.086-.247.362.048-.238.25-.19.299.007.041.156-.114.37-.374.446-.376.112-.495-.13-.585-.329.078-.06.275-.041.486.1l-.181-.6a.618.618 0 0 1-.358.364c-.012-.177.113-.53.113-.53l-.716.298s.331.16.444.296a.584.584 0 0 1-.504-.012l.283.56c.06-.247.185-.4.278-.419.075.212.158.47-.188.656-.242.122-.493.087-.58-.06-.098-.165.013-.354.21-.212-.033-.348-.335-.348-.42-.087.002-.354-.087-.568-.458-.674-.096.36.024.573.382.718-.203-.014-.417.184-.14.432 0-.23.182-.253.287-.106a.258.258 0 0 1-.084.365c-.117.075-.34.069-.636-.202.087-.033.185-.016.31.005l-.384-.476c.023.172.012.297-.024.371-.08-.093-.108-.175-.146-.365l-.296.266c.278.177.603.443.991.983.405-.26 1.137-.613 1.594-.8.453-.189 1.223-.45 1.692-.554-.095-.66-.05-1.076.033-1.397l-.397.019zM27.772 20.851c.101-.284-.415-.6-.47-1.007-.061-.408-.01-.79-.468-1.33-.453-.531-2.014-2.223-2.486-2.757.12-.011.395-.078.687.2.17.16.5.476.81.79.416-1.068.927-1.863 1.658-2.694.095-.105.19-.21.29-.31-.27.082-.687.145-.93.31-.016-.463.02-.84-.291-1.136.12-.649.015-1.43-1.427-2.398.735.178 1.172.848 1.734.338-.508-.018-.518-1.13-2.34-2.056.696-.013 1.242 1.124 2.048.476-.762-.087-1.012-1.454-2.382-1.872.475.054.964.282 1.373-.279-.478.118-.755-.322-1.266-.364.188-.6.143-.971-.063-1.415-.357.024-.722.136-.988.357-.035-.333-.38-.35-.68-.326.018.141.081.347-.074.377-.246.048-1.054.27-1.687.512-.63.247-1.349.7-1.558.848-.129.09-.24-.125-.31-.217-.225.193-.442.437-.281.69-.346.028-.737.124-1.062.383 0 .41.337.812.842 1.028-.848.857-.085 1.638-.828 2.38 1.045.042.866-1.435 1.392-1.637-.052 1.031-.628 1.22-.628 2.34 0 .593.356 1.242.037 1.637.877-.248.65-2.205 1.196-2.792.093.334.036.66-.078.995-.304.913.04 2.162-.438 2.569.893-.09 1-1.537 1.734-2.069-.63 1.303-1.283 4.083-2.223 5.474-1.526 2.078-2.424 4.617-3.824 4.617-.617 0-1.08-.383-1.08-1.173 0-2.362 4.014-3.986 4.014-6.503a1.498 1.498 0 0 0-1.472-1.555c-.381 0-.845.195-1.23.512a1.399 1.399 0 0 0-.474-.1c-1.415 0-1.036 2.573-2.272 2.552.487.275 1.334-.266 1.83-.985-.205 1.666-2.584 1.226-2.405 3.229.336-1.574 4.121-1.34 4.121-3.724a.902.902 0 0 0-.322-.664c.284-.19.552-.253.8-.253.457 0 .866.34.866 1.013 0 2.108-3.985 3.888-3.985 6.478 0 .437.126.801.334 1.082-.281.127-.573.073-.814-.216-.021.672.925 1.091 1.518.753.132.048.27.079.413.084-.183.5-.788.646-1.108.625.98.775 2.68-.241 2.588-1.125.776-.63 1.269-1.716 1.827-2.428a7.39 7.39 0 0 0-.087.494c-.573 1.05-1.107 1.992-1.256 3.375-.125 1.161-.705 2.199-1.507 2.199-.183 0-.47-.233-.606-.116-.251.222-.013.45-.013.661 0 .333-.63.661-.63 1.675 0 .457.266 1.007.165 1.311.256-.133.6-.57.74-1.13.278 1.344-.57 1.284.036 2.475.08-.395.469-.56.707-.395.239.166.128.283-.053.46-.173.177-.334 1.072.468 1.018-.148-.1-.158-.335.239-.422.551-.115.717.144 1.31.144.362 0 .462-.482.755-.482.287 0 .287.223.183.395.471-.13.557-.384.557-.648 0-.266-.214-.428-.053-.537.164-.1.707.012.49.461.278-.054.43-.253.43-.6 0-.344-.391-.543-.756-.486-.06-.21-.38-.322-.668-.322-.65 0-.55.518-1 .518-.717 0-1.413-.944-1.413-2.533 0-.847.908-1.064 1.547-1.341.642-.284 1.767-.983 2.442-2.12.527-.896.54-1.873.474-3.035.904.526 1.012 1.274 1.012 1.82 0 .714-.364 1-.654 1.13-.242.111-.322.072-.35.214-.035.18.088.286.192.347.331.166.26.482.353.818.092.35.39.883.897 1.278.058-.211.043-.548.01-.99.698.34.137 1.756 1.486 1.756-.248-.148-.18-.519-.036-.565.14-.053.323.088.585.46.26.364.188.334.827.334.635 0 .35-.223.69-.223.339 0 .31.395.13.684.57-.171.744-.608.547-1.062.5-.276.77.118.841.396.496-.5 0-1.106-.384-1.143a.399.399 0 0 0-.37-.395 4.387 4.387 0 0 0-.634-.018c-.235.018-.363.353-.638.353-.845 0-2.52-1.542-2.52-2.214 0-.673 1.6-1.076 1.6-2.114 0-1.36-1.319-1.821-2.43-2.698.392-.448 1.55-.552 2.21-.23.069-.377.31-.284.403-.935.233.576-.01 1.07.23 1.312.185-.278.662-.236.636-.947.146.446-.189 1.124.146 1.417.056-.364.271-.428.41-.428.136 0 .252.1.252.311 0 .549-.659.295-.659.901 0 .26.322.347.322.519 0 .166-.265.425-.585.2.108.243.316.45.597.45.289 0 .605-.237.728-.545.153.39.036.82-.242.879.293.147.989.005.908-.89.388.066.596.338.364.814.32-.085.615-.242.615-.588 0-.266-.29-.344-.158-.69M20.193 8.61c-.364.03-.355-.316-1-.476.45-.093 1.036-.323 1.54-.518.096.425-.08.955-.54.994m2.589 2.775c-.467.208-.833-.211-.923-.495-.095-.286-.168-.525-.058-.63.2-.2.27-.36.148-.613-.144-.295-.451-.153-.784-.068.156-.283.171-.483-.04-.456-.251.03-.254.437-.392.388-.136-.044-.063-.282-.063-.41.004-.17.111-.238.288-.307l1.36-.524c.173-.064.296-.1.415.024.093.088.308.205.243.334-.07.136-.353-.156-.55 0-.174.13-.024.26.28.354-.295.178-.605.29-.507.603.083.265.239.334.526.334.148 0 .259.223.387.495.131.265.17.754-.33.971m.08-3.833c-.365.289-.848.024-1.069-.353.502-.214 1.084-.443 1.475-.69-.362.561-.115.814-.406 1.043M53.323 27.36c0 .63.507 1.136 1.127 1.136a1.13 1.13 0 0 0 1.126-1.137c0-.623-.504-1.136-1.126-1.136-.62 0-1.127.513-1.127 1.136m.287 0c0-.464.379-.847.84-.847.461 0 .833.383.833.847a.842.842 0 0 1-.833.849.849.849 0 0 1-.84-.849M49.117 28.408a.67.67 0 0 0-.28.426.68.68 0 0 0 .176.569c.137.154.338.266.56.308a.974.974 0 0 0 .64-.091.647.647 0 0 0 .355-.476c.074-.396-.26-.785-.735-.872a.946.946 0 0 0-.716.136m.51 1.013c-.321-.06-.551-.302-.505-.537a.362.362 0 0 1 .16-.234c.134-.094.316-.125.5-.094.287.051.51.265.51.482 0 .019-.002.036-.005.06-.042.236-.344.38-.66.323M42.909 12.434c-.353.272-.454.736-.23 1.032.226.289.692.298 1.044.03a.891.891 0 0 0 .344-.579.605.605 0 0 0-.114-.452.612.612 0 0 0-.403-.223c-.212-.031-.448.044-.641.192m-.063.667c0-.148.089-.32.242-.437a.599.599 0 0 1 .426-.136c.067.012.15.036.209.112.06.083.065.177.057.24a.603.603 0 0 1-.235.383c-.216.172-.51.185-.64.025a.324.324 0 0 1-.059-.187M47.794 26.517a.993.993 0 0 0-.275.685v.02c0 .26.087.501.25.668a.623.623 0 0 0 .92.017c.167-.165.268-.412.278-.678a1.038 1.038 0 0 0-.192-.624.665.665 0 0 0-.519-.28.652.652 0 0 0-.462.192m.435 1.297a.372.372 0 0 1-.25-.123.658.658 0 0 1-.17-.484.671.671 0 0 1 .185-.48c.056-.05.14-.116.26-.11.235 0 .43.278.423.606a.71.71 0 0 1-.19.48.368.368 0 0 1-.258.11M42.278 17.317a.666.666 0 0 0-.378.328c-.174.366.044.84.477 1.044a.936.936 0 0 0 .728.06.622.622 0 0 0 .379-.331.65.65 0 0 0 .019-.507.964.964 0 0 0-.501-.534.941.941 0 0 0-.724-.06m.224 1.113c-.292-.142-.445-.435-.34-.654a.338.338 0 0 1 .21-.181.643.643 0 0 1 .507.045c.17.084.3.22.352.37a.362.362 0 0 1-.007.284.377.377 0 0 1-.214.184.695.695 0 0 1-.508-.048"/>
        <path d="M54.121 16.146c.368 1.018 1.095 1.383 1.654 1.124-1.244-.147-.235-2.298-1.838-2.298-.09 0-.177.012-.258.03-.27-.289-.58-.413-1.04-.413-.682 0-1.845.66-1.845 2.027 0 2.934 3.375 3.194 3.375 5.79 0 .76-.567 1.23-1.2 1.23-.57 0-1.026-.642-1.504-1.647-.226-.485-.72-1.137-1.239-1.827a.917.917 0 0 0 .502.183.635.635 0 0 0 .468-.177.655.655 0 0 0 .2-.459v-.03c0-.228-.1-.47-.274-.66a.974.974 0 0 0-.663-.317.636.636 0 0 0-.665.636v.028c0 .096.018.202.054.295-.73-.96-1.403-1.896-1.403-2.416 0-.451.31-.852.695-1.335.015.013.132.075.132.075l.1-.111c.136-.154.419-.465 1.002-1.095l.035-.042-.004.005.141-.153-.361-.293c.095-.22.179-.461.242-.72.113.473.352.772.683.678-.22-.488.224-1.143-.069-2.337.278.465.675.706.961.619-.748-.668.225-1.605-.752-3.053.32.112.529.048.671-.111-.889-.13-.482-1.273-2.043-1.686.388-.07.614-.298.557-.5-.412.295-.772-.565-2.125-.54-.083-.513-.552-1.05-1.083-1.31.101.396.009.755-.096 1.05L42.73 2.015c-.129-.124-.2-.145-.236-.106-.036.048-.033.124.05.22l3.782 4.792c-.286.097-.563.22-.859.325a.524.524 0 0 0-.328.495c-.699.354-1.317.79-1.624 1.07-.233.216-.418.266-.212.749.077.184-.165.636.382.3.36-.216 1.176-.665 1.295-.381.067.148-.337.34-.614.446-.278.108-.576.325-.531.43.041.107.262-.005.274.107.018.13.104.242.214.242s.251-.237.34-.152c.09.076-.044.594-.13.73.426-.054.7-.468.713-.79.012-.317.099-.401.163-.44.067-.05.144.34.058.576.226-.05.459-.354.43-.909.113-.092.23-.16.316-.16.142 0 .429.402.836.402.748 0 1.163-.613 1.208-.902.036-.235.019-.458-.107-.63.269.22.355.56.355.814 0 1.07-1.874 1.578-2.645 2.32a.564.564 0 0 0-.082.078l-.881-.348-.06.2-.051.166c-.093.305-.283.941-.4 1.306-.002 0-.047.147-.047.147l.077.05c-.523.698-.94 1.482-1.036 2.291a7.16 7.16 0 0 0-.641-.591 1.45 1.45 0 0 0 .047-.248.886.886 0 0 0-.203-.63.593.593 0 0 0-.405-.204.573.573 0 0 0-.43.165.576.576 0 0 0-.075.075c-.03-.024-.063-.048-.092-.073-.29-.223-.652-.494-.869-.735-.092-.106-.185-.157-.382-.157-.078 0-.263-.012-.394-.012-.129 0-.203.106-.352.235-.075.064-.272.223-.502.395a8.3 8.3 0 0 1 .487.546c.062-.045.113-.088.156-.117.091-.082.21-.1.325-.1.112 0 .271.088.382.259.08.118.79 1.068 1.381 1.72l-.188.071c-.25.106-.82.082-1.071.065-.257-.025-.304-.088-.474.19-.069.099-.15.222-.238.327-.082.106-.148.223.031.525.26.446.905 1.614 1.12 2.144.211.526.466.613.877.779.412.175 1.11.582 1.194.675l.027-.404c-.122-.123-.513-.278-.662-.326-.147-.05-.189-.123-.01-.123.176 0 .672.178 1.018.326-.104-.401-.477-.834-.701-1.08-.296-.082-.597-.082-.72.012a.161.161 0 0 1-.167.19.16.16 0 0 1-.159-.208c.04-.124.216-.16.18-.39-.04-.222-.316-.259-.495-.283-.251-.365-.543-.905-.672-1.119-.131-.217-.054-.34.036-.416.215-.178.663.093 1.558.154.31.015.708.04 1.11.057.117 1.05.535 2.05 1.982 2.416.707.175 1.436.7 1.687 1.384-2.893-.048-3.346 1.09-3.346 2.163 0 1.217 1.017 1.152 1.017 2.066 0 .8-2.429 1.13-3.164 1.242-.62.09-.975.229-1.274.53-.298.303-.6.595-1.146 1.143 0 0 .233.054.463.043l.411-.538c.123-.183.206-.328.287-.32.08.019.027.155-.072.344l-.337.577c1.427.1 1.522-.435 1.522-.66 0-.218-.355-.365-.15-.508.204-.136.38-.04.543.155.163.189.216.352.61.208 0 0 3.11-1.304 3.504-1.487.352-.157.25-.317.042-.495-.232-.193-.271-.506-.271-.835 0-.95.564-1.242 1.576-1.224a4.23 4.23 0 0 0-.03.458c0 1.484 2.218 2.934 2.82 2.934.266 0 .627-.201.651.694.014.654.146 1.118.03 1.879-.117.76-.334.877-.785 1.197-.451.323-.878 1.325-1.069 1.535.2.135.418.154.585-.335.138-.407.296-.693.472-.79-.176.444-.305 1.098-.388 1.296.567.1 1.486-.425 1.486-.83 0-.4-.317-.369-.317-.641 0-.118.144-.247.317-.247.228 0 .4.18.418.265.25-.136.41-.389.4-.98-.005-.23-.014-.47-.023-.718.014.036.03.066.047.1.11.166.29.272.513.29a.96.96 0 0 0 .621-.172c.221-.152.38-.366.424-.6a.658.658 0 0 0 .015-.149.609.609 0 0 0-.102-.346.65.65 0 0 0-.417-.278.945.945 0 0 0-.714.153.968.968 0 0 0-.412.55c-.047-.808-.105-1.568-.083-1.873.033-.454.051-.655-.102-.726-.15-.065-.313.19-.531.19-.218 0-.868-.614-.868-1.249 0-.642.683-1.465.65-2.343-.012-.277.158-.42.266-.173.131.302.328.707.62 1.038-.182 1.1 1.022 2.178 2.01 1.385-.49.069-.825-.366-1.042-.809.086.013.172.024.265.024.05 0 .102-.006.15-.006.346.435 1.448.395 1.733-.678-.194.227-.59.395-.877.359.416-.329.63-.86.63-1.43 0-2.798-3.361-3.127-3.361-5.672 0-.947.82-1.556 1.388-1.556.218 0 .385.066.522.171-.218.223-.335.561-.316.972.09 2.014 3.343 1.909 3.385 2.88.363-1.46-2.06-1.008-2.15-2.973zm-8.655-7.718c.158-.304 0-.766.549-.766.272 0 .514.271.839.377-.53.048-1.006.166-1.388.39zm-2.973 6.167a.58.58 0 0 1-.173.401.319.319 0 0 1-.215.088c-.187-.01-.334-.236-.334-.489v-.039a.574.574 0 0 1 .17-.401.316.316 0 0 1 .22-.085c.096.007.164.06.207.11.09.099.137.252.125.415zm9.608 14.131a.692.692 0 0 1 .298-.418.654.654 0 0 1 .499-.112.349.349 0 0 1 .235.153c.066.095.06.2.049.278a.705.705 0 0 1-.302.416c-.274.178-.603.16-.734-.038a.37.37 0 0 1-.045-.279zM50.08 19.35a.359.359 0 0 1 .108-.258.355.355 0 0 1 .266-.097.68.68 0 0 1 .456.23.678.678 0 0 1 .197.472.363.363 0 0 1-.107.26.368.368 0 0 1-.264.094c-.157 0-.331-.089-.459-.223a.73.73 0 0 1-.197-.478zm-5.515-6.326c.158-.495.453-1.477.453-1.477l.51.205c-.15.056-.33.198-.49.347a.516.516 0 0 0 .467-.031l-.206.518c-.048-.081-.195-.27-.335-.304-.104.416.153.576.344.67.31.166.514.19.6.041.099-.176-.105-.424-.367-.316-.03-.272.122-.413.298-.413.14 0 .254.13.293.305-.018-.44.178-.782.578-.91.15.426.028.717-.292 1.03.167-.073.361-.06.439.057.095.149.062.354-.176.483-.054-.284-.38-.304-.472-.124-.093.184.048.354.334.519.335.184.6.075.779-.217-.11-.042-.301-.018-.477.093l.34-.642a.666.666 0 0 0 .215.377c.05-.142.125-.395.02-.624l.736.43c-.248.025-.428.213-.526.33.18.06.342.03.432 0l-.382.618c.007-.21-.065-.389-.155-.464-.16.298-.125.587.203.79.284.169.502.204.609.033.11-.175-.072-.447-.34-.353-.01-.272.15-.401.325-.395.14.012.245.172.272.353.104-.435.293-.681.731-.764.093.411-.101.755-.49.96.174-.055.341-.024.41.1.09.159.042.358-.206.47-.036-.287-.353-.341-.458-.163-.08.15.045.31.337.507.18.117.443.265.75-.036-.101-.113-.337-.142-.43-.142l.344-.438c-.012.166.102.344.202.42.051-.217.081-.44.058-.6l.43.346s-.693.748-1.04 1.13l-4.667-2.719zm4.554 11.598c-.185.262-.5.359-.707.21-.203-.147-.221-.475-.036-.74.182-.266.496-.359.705-.215.206.147.22.48.038.745zm1.326-2.116c-.182.258-.5.355-.705.207-.203-.147-.218-.477-.036-.742.188-.265.502-.355.707-.214.203.148.219.483.034.749zM85.964 66.27c2.399 0 4.34-1.907 4.34-5.311 0-3.432-1.941-5.339-4.34-5.339-2.4 0-4.341 1.908-4.341 5.339 0 3.404 1.941 5.311 4.34 5.311m0-12.693c4.421 0 6.768 3.242 6.768 7.382 0 4.113-2.347 7.355-6.767 7.355-4.422 0-6.768-3.242-6.768-7.355 0-4.14 2.346-7.382 6.768-7.382M11.701 47.913h2.686v8.772h10.634v-8.772h2.685v20.4H25.02V58.97H14.387v9.345h-2.686zM31.428 47.913h3.676l6.363 17.143 6.393-17.143h3.676v20.4H48.99V51.342h-.058l-6.305 16.973h-2.29L34.03 51.34h-.056v16.973h-2.546zM69.394 47.493l1.12.04 1.118.156 1.042.272.965.352.887.467.811.584.694.703.617.818.54.936.387 1.054.271 1.208h-2.625l-.232-.937-.386-.818-.5-.7-.58-.586-.695-.508-.772-.35-.809-.274-.927-.155-.926-.04-1.159.08-1.002.272-.927.39-.771.506-.733.624-.579.74-.502.858-.386.898-.31.936-.23 1.013-.116 1.053-.039 1.053.039 1.131.192 1.09.271 1.015.424.974.503.898.617.819.733.662.849.584.926.391 1.041.273 1.159.117 1.157-.117 1.041-.234.966-.39.85-.506.694-.663.617-.74.424-.86.348-.935.154-.974.039-1.093h-6.29v-2.222h8.644v10.489h-1.66l-.694-2.497-.695.82-.81.663-.888.546-.926.429-1.004.273-.964.156-1.003.077-1.428-.117-1.312-.273-1.197-.468-1.119-.584-.965-.781-.887-.858-.732-.973-.618-1.094-.463-1.13-.348-1.208-.232-1.249-.077-1.285.077-1.326.155-1.287.27-1.21.386-1.169.502-1.091.616-1.014.734-.935.81-.78.965-.702 1.042-.546 1.157-.39 1.274-.274 1.39-.078zM100.304 68.313h-2.462L92.647 54.18h2.57l3.925 11.782h.053l3.816-11.782h2.408zM115.982 63.51c-.406 1.833-1.729 2.753-3.619 2.753-3.05 0-4.425-2.18-4.348-4.635h10.448c.136-3.403-1.377-8.067-6.317-8.067-3.802 0-6.556 3.106-6.556 7.337.135 4.307 2.24 7.416 6.689 7.416 3.13 0 5.347-1.695 5.97-4.803h-2.267zm-7.967-3.926c.167-2.157 1.597-3.979 3.996-3.979 2.268 0 3.914 1.77 4.02 3.979h-8.016zM120.35 68.313h2.294v-6.275c0-3.57 1.35-5.696 5.046-5.696v-2.456c-2.484-.082-4.023 1.035-5.127 3.298h-.054v-2.969h-2.158v14.098zM135.87 53.944l1.02.039.905.19.716.305.642.381.489.535.379.57.3.687.19.724.114.838.037.877v9.223h-2.264v-9.49l-.113-.838-.226-.685-.415-.534-.566-.42-.718-.268-.79-.114-.87.076-.791.19-.64.344-.567.42-.453.496-.34.61-.263.723-.151.724-.038.838v7.928h-2.3V54.25h2.148v2.248h.038l.566-.8.605-.648.716-.495.792-.343.905-.191.944-.076zM173.724 63.51c-.406 1.833-1.727 2.753-3.617 2.753-3.051 0-4.425-2.18-4.348-4.635h10.447c.135-3.403-1.377-8.067-6.317-8.067-3.802 0-6.556 3.106-6.556 7.337.134 4.307 2.239 7.416 6.688 7.416 3.131 0 5.347-1.695 5.97-4.803h-2.267zm-7.965-3.926c.165-2.157 1.595-3.979 3.995-3.979 2.267 0 3.914 1.77 4.02 3.979h-8.015zM184.887 53.944l1.02.039.904.19.716.305.642.381.49.535.378.57.301.687.19.724.113.838.038.877v9.223h-2.265v-9.49l-.112-.838-.227-.685-.414-.534-.566-.42-.718-.268-.791-.114-.87.076-.79.19-.64.344-.567.42-.453.496-.34.61-.264.723-.15.724-.039.838v7.928h-2.3V54.25h2.15v2.248h.037l.566-.8.604-.648.717-.495.791-.343.906-.191.943-.076zM141.889 54.198h2.161v2.075h.055c1.026-1.584 2.593-2.403 4.511-2.403 1.704 0 3.271.683 3.838 2.403a5.155 5.155 0 0 1 4.379-2.403c2.783 0 4.647 1.174 4.647 4.094v10.35h-2.297v-9.256c0-1.747-.46-3.14-2.703-3.14-2.215 0-3.647 1.42-3.647 3.603v8.792h-2.296v-9.255c0-1.83-.569-3.14-2.622-3.14-2.728 0-3.73 2.54-3.73 3.603v8.792h-2.296V54.198zM195.772 54.198h2.784v2.048h-2.784v8.763c0 1.066.298 1.256 1.73 1.256h1.054v2.048H196.8c-2.379 0-3.325-.491-3.325-3.085v-8.982h-2.378v-2.048h2.378v-4.232h2.298v4.232z"/>
    </g>
</svg>
