<svg xmlns="http://www.w3.org/2000/svg" width="38" height="32" viewBox="0 0 38 32">
    <g fill="none" fill-rule="evenodd" stroke="#E12321" stroke-linecap="round" stroke-linejoin="round" stroke-width="2">
        <path d="M8.5 15.912a3.706 3.706 0 1 1-7.411 0 3.706 3.706 0 0 1 7.411 0zM25.794 20.853c0-3.597-3.197-7.412-6.794-7.412-3.597 0-6.794 3.815-6.794 7.412h13.588z"/>
        <path d="M22.088 10.353a3.088 3.088 0 1 1-6.175 0 3.088 3.088 0 0 1 6.175 0zM13.441 4.794a3.706 3.706 0 1 1-7.411 0 3.706 3.706 0 0 1 7.411 0zM13.441 27.03a3.706 3.706 0 1 1-7.411 0 3.706 3.706 0 0 1 7.411 0zM24.559 4.794a3.706 3.706 0 1 0 7.411 0 3.706 3.706 0 0 0-7.411 0zM24.559 27.03a3.706 3.706 0 1 0 7.411 0 3.706 3.706 0 0 0-7.411 0zM29.5 15.912a3.706 3.706 0 1 0 7.411 0 3.706 3.706 0 0 0-7.411 0z"/>
    </g>
</svg>
