<svg xmlns="http://www.w3.org/2000/svg" width="47" height="32" viewBox="0 0 47 32">
    <g fill="none" fill-rule="evenodd" stroke="#E12321" stroke-linecap="round" stroke-linejoin="round" stroke-width="2">
        <path d="M9.25 19.75c1.027-2.056 3.702-3 6-3l5.25-5.25c.512-.43 1.5-.655 2.25 0l.233.265c.738.737 1.096 1.868.517 2.735l-3 3.75c-.498.683-1.5 1.405-1.5 2.25v.75c0 2.283 2.991 3.323 5.25 3l3.75.033 5.25-.033-6.75 4.5c-.965.963-5.44 1.875-6.75 1.5L7.75 28l1.5-8.25z"/>
        <path d="M1.75 30.25c2.343 0 6-2.25 6-2.25s1.079-4.927 1.5-9.75c-1.485-1.405-7.5-1.467-7.5-1.467V30.25zM30.25 6.25v10.5M37.75 4.75h3M15.25 10.75v-9h30v19.5h-21"/>
    </g>
</svg>
