<svg xmlns="http://www.w3.org/2000/svg" width="32" height="40" viewBox="0 0 32 40">
    <g fill="none" fill-rule="evenodd" stroke="#006ccc" stroke-linecap="round" stroke-linejoin="round" stroke-width="2">
        <path d="M23.125 6.416a1.953 1.953 0 1 1-3.906-.001 1.953 1.953 0 0 1 3.906.001zM15.967 9.02c-4.493 0-7.809 6.88-7.809 14.966 0 8.086 3.316 14.967 7.809 14.967s7.809-6.88 7.809-14.967c0-3.797-.635-6.508-1.952-9.11"/>
        <path d="M24.042 11.397c-1.384 2.204-2.869 4.13-2.869 4.13s-2.694-3.493-4.205-6.457c-.332-.022-.664-.05-1-.05C7.7 9.02 1 15.72 1 23.985c0 8.266 6.7 14.967 14.967 14.967 8.266 0 14.967-6.7 14.967-14.967 0-5.289-2.751-9.927-6.892-12.589zM15.316 9.02v29.933M4.254 14.876H27.68M1 23.986h29.934M28.766 31.795H3.603"/>
        <path d="M26.412 5.88c0 2.696-5.206 9.436-5.206 9.436S16 8.576 16 5.881C16 3.185 18.33 1 21.206 1c2.875 0 5.206 2.185 5.206 4.88z"/>
    </g>
</svg>
